<svg xmlns="http://www.w3.org/2000/svg" width="1058" height="135" viewBox="0 0 1058 135" fill="none"><path d="M46.807 9.25562C46.807 4.14388 50.9509 0 56.0626 0H200.039C205.151 0 209.295 4.14388 209.295 9.25562V42.1645C209.295 47.2762 205.151 51.4201 200.039 51.4201H56.0626C50.9509 51.4201 46.807 47.2762 46.807 42.1645V9.25562Z" fill="#EFE6DF"></path><path fill-rule="evenodd" clip-rule="evenodd" d="M356.638 4.85526H271.858C268.112 4.85526 265.076 7.91289 265.076 11.6847V39.0023C265.076 42.7741 268.112 45.8317 271.858 45.8317H356.638C360.384 45.8317 363.42 42.7741 363.42 39.0023V11.6847C363.42 7.91289 360.384 4.85526 356.638 4.85526ZM271.858 4.00159C267.644 4.00159 264.228 7.44142 264.228 11.6847V39.0023C264.228 43.2456 267.644 46.6854 271.858 46.6854H356.638C360.852 46.6854 364.268 43.2456 364.268 39.0023V11.6847C364.268 7.44142 360.852 4.00159 356.638 4.00159H271.858Z" fill="#EFE6DF"></path><path fill-rule="evenodd" clip-rule="evenodd" d="M466.015 4.85526H381.235C377.489 4.85526 374.452 7.91289 374.452 11.6847V39.0023C374.452 42.7741 377.489 45.8317 381.235 45.8317H466.015C469.76 45.8317 472.797 42.7741 472.797 39.0023V11.6847C472.797 7.91289 469.76 4.85526 466.015 4.85526ZM381.235 4.00159C377.021 4.00159 373.605 7.44142 373.605 11.6847V39.0023C373.605 43.2456 377.021 46.6854 381.235 46.6854H466.015C470.229 46.6854 473.645 43.2456 473.645 39.0023V11.6847C473.645 7.44142 470.229 4.00159 466.015 4.00159H381.235Z" fill="#EFE6DF"></path><path fill-rule="evenodd" clip-rule="evenodd" d="M575.494 4.85526H491.845C488.149 4.85526 485.153 7.91289 485.153 11.6847V39.0023C485.153 42.7741 488.149 45.8317 491.845 45.8317H575.494C579.19 45.8317 582.186 42.7741 582.186 39.0023V11.6847C582.186 7.91289 579.19 4.85526 575.494 4.85526ZM491.845 4.00159C487.687 4.00159 484.316 7.44142 484.316 11.6847V39.0023C484.316 43.2456 487.687 46.6854 491.845 46.6854H575.494C579.652 46.6854 583.023 43.2456 583.023 39.0023V11.6847C583.023 7.44142 579.652 4.00159 575.494 4.00159H491.845Z" fill="#EFE6DF"></path><path fill-rule="evenodd" clip-rule="evenodd" d="M686.103 4.85526H601.323C597.577 4.85526 594.541 7.91289 594.541 11.6847V39.0023C594.541 42.7741 597.577 45.8317 601.323 45.8317H686.103C689.849 45.8317 692.885 42.7741 692.885 39.0023V11.6847C692.885 7.91289 689.849 4.85526 686.103 4.85526ZM601.323 4.00159C597.109 4.00159 593.693 7.44142 593.693 11.6847V39.0023C593.693 43.2456 597.109 46.6854 601.323 46.6854H686.103C690.317 46.6854 693.733 43.2456 693.733 39.0023V11.6847C693.733 7.44142 690.317 4.00159 686.103 4.00159H601.323Z" fill="#EFE6DF"></path><path fill-rule="evenodd" clip-rule="evenodd" d="M795.481 4.85526H710.701C706.956 4.85526 703.919 7.91289 703.919 11.6847V39.0023C703.919 42.7741 706.956 45.8317 710.701 45.8317H795.481C799.227 45.8317 802.264 42.7741 802.264 39.0023V11.6847C802.264 7.91289 799.227 4.85526 795.481 4.85526ZM710.701 4.00159C706.487 4.00159 703.071 7.44142 703.071 11.6847V39.0023C703.071 43.2456 706.487 46.6854 710.701 46.6854H795.481C799.695 46.6854 803.111 43.2456 803.111 39.0023V11.6847C803.111 7.44142 799.695 4.00159 795.481 4.00159H710.701Z" fill="#EFE6DF"></path><path d="M848.461 9.36376C848.461 4.1923 854.018 0 860.873 0H998.781C1005.64 0 1011.19 4.1923 1011.19 9.36376V42.6571C1011.19 47.8286 1005.64 52.0209 998.781 52.0209H860.873C854.018 52.0209 848.461 47.8286 848.461 42.6571V9.36376Z" fill="#EFE6DF"></path><path d="M173.356 29.6695C172.787 29.6695 172.273 29.5643 171.813 29.3539C171.354 29.1397 170.989 28.83 170.721 28.4249C170.456 28.0197 170.323 27.5231 170.323 26.9349C170.323 26.4284 170.421 26.0116 170.615 25.6844C170.81 25.3572 171.073 25.0981 171.404 24.9073C171.735 24.7164 172.105 24.5723 172.514 24.4749C172.923 24.3775 173.34 24.3035 173.765 24.2528C174.302 24.1905 174.739 24.1399 175.074 24.1009C175.409 24.0581 175.652 23.9899 175.804 23.8964C175.956 23.8029 176.032 23.651 176.032 23.4406V23.3997C176.032 22.8894 175.888 22.494 175.6 22.2135C175.315 21.9331 174.891 21.7928 174.326 21.7928C173.738 21.7928 173.274 21.9233 172.935 22.1843C172.6 22.4414 172.368 22.7277 172.24 23.0433L170.598 22.6693C170.793 22.124 171.077 21.6838 171.451 21.3488C171.829 21.0098 172.263 20.7644 172.754 20.6125C173.245 20.4567 173.761 20.3788 174.302 20.3788C174.661 20.3788 175.041 20.4216 175.442 20.5073C175.847 20.5891 176.225 20.7411 176.575 20.9631C176.93 21.1851 177.22 21.5026 177.446 21.9155C177.672 22.3246 177.785 22.8563 177.785 23.5107V29.4708H176.079V28.2437H176.009C175.896 28.4697 175.726 28.6917 175.5 28.9099C175.274 29.128 174.984 29.3091 174.63 29.4533C174.275 29.5974 173.851 29.6695 173.356 29.6695ZM173.736 28.2671C174.219 28.2671 174.632 28.1717 174.974 27.9808C175.321 27.7899 175.584 27.5406 175.763 27.2329C175.946 26.9212 176.038 26.5882 176.038 26.2337V25.0767C175.976 25.139 175.855 25.1975 175.676 25.252C175.5 25.3027 175.3 25.3474 175.074 25.3864C174.848 25.4215 174.628 25.4546 174.413 25.4857C174.199 25.513 174.02 25.5364 173.876 25.5559C173.537 25.5987 173.227 25.6708 172.947 25.7721C172.67 25.8733 172.448 26.0194 172.281 26.2103C172.117 26.3973 172.035 26.6466 172.035 26.9582C172.035 27.3906 172.195 27.7178 172.514 27.9399C172.834 28.158 173.241 28.2671 173.736 28.2671Z" fill="#1A1A1A"></path><path d="M168.649 22.6868L167.065 22.9673C166.999 22.7648 166.894 22.5719 166.75 22.3888C166.61 22.2058 166.419 22.0558 166.177 21.9389C165.936 21.8221 165.634 21.7636 165.271 21.7636C164.777 21.7636 164.364 21.8746 164.033 22.0967C163.702 22.3148 163.536 22.5973 163.536 22.9439C163.536 23.2439 163.647 23.4854 163.869 23.6685C164.091 23.8516 164.45 24.0016 164.944 24.1184L166.37 24.4456C167.196 24.6365 167.811 24.9306 168.216 25.328C168.622 25.7253 168.824 26.2415 168.824 26.8764C168.824 27.414 168.668 27.8931 168.357 28.3138C168.049 28.7307 167.618 29.0579 167.065 29.2955C166.516 29.5331 165.879 29.6519 165.155 29.6519C164.15 29.6519 163.33 29.4377 162.695 29.0092C162.06 28.5768 161.67 27.9633 161.526 27.1686L163.215 26.9115C163.32 27.3517 163.536 27.6847 163.863 27.9107C164.19 28.1327 164.617 28.2437 165.143 28.2437C165.716 28.2437 166.173 28.1249 166.516 27.8873C166.859 27.6458 167.03 27.3517 167.03 27.005C167.03 26.7245 166.925 26.4888 166.715 26.2979C166.508 26.1071 166.191 25.9629 165.762 25.8655L164.243 25.5325C163.406 25.3416 162.786 25.0378 162.385 24.6209C161.988 24.2041 161.789 23.6763 161.789 23.0374C161.789 22.5077 161.937 22.0441 162.233 21.6468C162.529 21.2494 162.938 20.9397 163.46 20.7177C163.982 20.4918 164.58 20.3788 165.254 20.3788C166.224 20.3788 166.987 20.5891 167.544 21.0098C168.102 21.4267 168.47 21.9857 168.649 22.6868Z" fill="#1A1A1A"></path><path d="M156.133 29.6519C155.248 29.6519 154.487 29.463 153.848 29.0851C153.213 28.7034 152.722 28.1678 152.375 27.4783C152.033 26.7849 151.861 25.9727 151.861 25.0417C151.861 24.1223 152.033 23.3121 152.375 22.6109C152.722 21.9097 153.205 21.3624 153.825 20.9689C154.448 20.5755 155.176 20.3788 156.01 20.3788C156.516 20.3788 157.007 20.4625 157.482 20.63C157.958 20.7975 158.384 21.0605 158.762 21.4189C159.14 21.7773 159.438 22.2428 159.656 22.8154C159.874 23.3841 159.983 24.0756 159.983 24.8897V25.5091H152.849V24.2002H158.271C158.271 23.7406 158.178 23.3335 157.991 22.979C157.804 22.6206 157.541 22.3382 157.202 22.1317C156.867 21.9253 156.474 21.8221 156.022 21.8221C155.531 21.8221 155.102 21.9428 154.736 22.1843C154.374 22.422 154.093 22.7336 153.895 23.1192C153.7 23.501 153.603 23.9159 153.603 24.3638V25.3864C153.603 25.9863 153.708 26.4966 153.918 26.9173C154.132 27.338 154.43 27.6594 154.812 27.8814C155.194 28.0996 155.64 28.2087 156.15 28.2087C156.481 28.2087 156.783 28.1619 157.056 28.0684C157.329 27.971 157.564 27.8269 157.763 27.636C157.962 27.4452 158.114 27.2095 158.219 26.929L159.872 27.227C159.74 27.7139 159.502 28.1405 159.159 28.5067C158.821 28.8689 158.394 29.1514 157.88 29.3539C157.369 29.5526 156.787 29.6519 156.133 29.6519Z" fill="#1A1A1A"></path><path d="M146.272 29.4708V20.4957H147.961V21.9214H148.055C148.218 21.4384 148.507 21.0586 148.919 20.782C149.336 20.5015 149.808 20.3613 150.333 20.3613C150.443 20.3613 150.571 20.3652 150.719 20.373C150.871 20.3807 150.99 20.3905 151.076 20.4022V22.0733C151.005 22.0538 150.881 22.0324 150.702 22.009C150.522 21.9818 150.343 21.9681 150.164 21.9681C149.751 21.9681 149.383 22.0558 149.06 22.2311C148.74 22.4025 148.487 22.6421 148.3 22.9498C148.113 23.2536 148.02 23.6003 148.02 23.9899V29.4708H146.272Z" fill="#1A1A1A"></path><path d="M136.116 32.8365V20.4956H137.823V21.9506H137.969C138.07 21.7636 138.216 21.5474 138.407 21.302C138.598 21.0566 138.863 20.8423 139.202 20.6593C139.54 20.4723 139.988 20.3788 140.545 20.3788C141.27 20.3788 141.917 20.5619 142.485 20.928C143.054 21.2942 143.5 21.8221 143.824 22.5116C144.151 23.201 144.314 24.0308 144.314 25.0008C144.314 25.9707 144.153 26.8024 143.829 27.4958C143.506 28.1853 143.062 28.717 142.497 29.091C141.932 29.4611 141.288 29.6461 140.563 29.6461C140.018 29.6461 139.572 29.5546 139.225 29.3715C138.882 29.1884 138.613 28.9741 138.419 28.7287C138.224 28.4833 138.074 28.2652 137.969 28.0743H137.863V32.8365H136.116ZM137.828 24.9832C137.828 25.6143 137.92 26.1674 138.103 26.6427C138.286 27.1179 138.551 27.49 138.898 27.7587C139.244 28.0236 139.669 28.1561 140.172 28.1561C140.694 28.1561 141.13 28.0178 141.48 27.7412C141.831 27.4607 142.096 27.0809 142.275 26.6018C142.458 26.1226 142.55 25.5831 142.55 24.9832C142.55 24.3911 142.46 23.8594 142.281 23.388C142.106 22.9167 141.841 22.5447 141.486 22.272C141.136 21.9993 140.697 21.863 140.172 21.863C139.665 21.863 139.237 21.9935 138.886 22.2544C138.539 22.5154 138.276 22.8797 138.097 23.3471C137.918 23.8146 137.828 24.3599 137.828 24.9832Z" fill="#1A1A1A"></path><path d="M121.575 29.4708V20.4956H123.252V21.9564H123.363C123.55 21.4617 123.855 21.0761 124.28 20.7995C124.705 20.519 125.213 20.3788 125.805 20.3788C126.405 20.3788 126.907 20.519 127.313 20.7995C127.722 21.08 128.023 21.4656 128.218 21.9564H128.312C128.526 21.4773 128.867 21.0955 129.334 20.8112C129.802 20.5229 130.359 20.3788 131.005 20.3788C131.82 20.3788 132.484 20.6339 132.998 21.1442C133.516 21.6545 133.775 22.4239 133.775 23.4523V29.4708H132.028V23.6159C132.028 23.0082 131.862 22.568 131.531 22.2954C131.2 22.0227 130.805 21.8863 130.345 21.8863C129.776 21.8863 129.334 22.0616 129.019 22.4122C128.703 22.7589 128.545 23.2049 128.545 23.7503V29.4708H126.804V23.5049C126.804 23.018 126.652 22.6265 126.348 22.3304C126.045 22.0344 125.649 21.8863 125.162 21.8863C124.831 21.8863 124.525 21.974 124.245 22.1493C123.968 22.3207 123.744 22.5602 123.573 22.868C123.405 23.1757 123.322 23.5322 123.322 23.9373V29.4708H121.575Z" fill="#1A1A1A"></path><path d="M115.785 29.6519C114.901 29.6519 114.139 29.463 113.5 29.0851C112.865 28.7034 112.374 28.1678 112.028 27.4783C111.685 26.7849 111.514 25.9727 111.514 25.0417C111.514 24.1223 111.685 23.3121 112.028 22.6109C112.374 21.9097 112.857 21.3624 113.477 20.9689C114.1 20.5755 114.829 20.3788 115.662 20.3788C116.169 20.3788 116.659 20.4625 117.135 20.63C117.61 20.7975 118.036 21.0605 118.414 21.4189C118.792 21.7773 119.09 22.2428 119.308 22.8154C119.526 23.3841 119.636 24.0756 119.636 24.8897V25.5091H112.501V24.2002H117.924C117.924 23.7406 117.83 23.3335 117.643 22.979C117.456 22.6206 117.193 22.3382 116.854 22.1317C116.519 21.9253 116.126 21.8221 115.674 21.8221C115.183 21.8221 114.755 21.9428 114.388 22.1843C114.026 22.422 113.746 22.7336 113.547 23.1192C113.352 23.501 113.255 23.9159 113.255 24.3638V25.3864C113.255 25.9863 113.36 26.4966 113.57 26.9173C113.785 27.338 114.083 27.6594 114.464 27.8814C114.846 28.0996 115.292 28.2087 115.802 28.2087C116.134 28.2087 116.435 28.1619 116.708 28.0684C116.981 27.971 117.216 27.8269 117.415 27.636C117.614 27.4452 117.766 27.2095 117.871 26.929L119.525 27.227C119.392 27.7139 119.154 28.1405 118.812 28.5067C118.473 28.8689 118.046 29.1514 117.532 29.3539C117.022 29.5526 116.439 29.6519 115.785 29.6519Z" fill="#1A1A1A"></path><path d="M100.806 29.6695C100.237 29.6695 99.7227 29.5643 99.2631 29.3539C98.8034 29.1397 98.4392 28.83 98.1704 28.4249C97.9055 28.0197 97.773 27.5231 97.773 26.9349C97.773 26.4284 97.8704 26.0116 98.0652 25.6844C98.26 25.3572 98.5229 25.0981 98.854 24.9073C99.1851 24.7164 99.5552 24.5723 99.9642 24.4749C100.373 24.3775 100.79 24.3035 101.215 24.2528C101.752 24.1905 102.189 24.1399 102.524 24.1009C102.859 24.0581 103.102 23.9899 103.254 23.8964C103.406 23.8029 103.482 23.651 103.482 23.4406V23.3997C103.482 22.8894 103.338 22.494 103.049 22.2135C102.765 21.9331 102.34 21.7928 101.776 21.7928C101.187 21.7928 100.724 21.9233 100.385 22.1843C100.05 22.4414 99.8182 22.7277 99.6896 23.0433L98.0477 22.6693C98.2424 22.124 98.5268 21.6838 98.9008 21.3488C99.2786 21.0098 99.713 20.7644 100.204 20.6125C100.695 20.4567 101.211 20.3788 101.752 20.3788C102.111 20.3788 102.49 20.4216 102.892 20.5073C103.297 20.5891 103.675 20.7411 104.025 20.9631C104.38 21.1851 104.67 21.5026 104.896 21.9155C105.122 22.3246 105.235 22.8563 105.235 23.5107V29.4708H103.529V28.2437H103.458C103.346 28.4697 103.176 28.6917 102.95 28.9099C102.724 29.128 102.434 29.3091 102.079 29.4533C101.725 29.5974 101.3 29.6695 100.806 29.6695ZM101.185 28.2671C101.669 28.2671 102.081 28.1717 102.424 27.9808C102.771 27.7899 103.034 27.5406 103.213 27.2329C103.396 26.9212 103.488 26.5882 103.488 26.2337V25.0767C103.425 25.139 103.305 25.1975 103.125 25.252C102.95 25.3027 102.749 25.3474 102.524 25.3864C102.298 25.4215 102.078 25.4546 101.863 25.4857C101.649 25.513 101.47 25.5364 101.326 25.5559C100.987 25.5987 100.677 25.6708 100.397 25.7721C100.12 25.8733 99.898 26.0194 99.7305 26.2103C99.5669 26.3973 99.4851 26.6466 99.4851 26.9582C99.4851 27.3906 99.6448 27.7178 99.9642 27.9399C100.284 28.158 100.691 28.2671 101.185 28.2671Z" fill="#1A1A1A"></path><path d="M94.0934 25.7488V20.4957H95.8464V29.4709H94.1285V27.9166H94.035C93.8285 28.3957 93.4974 28.795 93.0416 29.1144C92.5898 29.43 92.0269 29.5877 91.353 29.5877C90.7764 29.5877 90.2661 29.4611 89.822 29.2079C89.3819 28.9508 89.0352 28.571 88.782 28.0685C88.5326 27.566 88.408 26.9447 88.408 26.2045V20.4957H90.1551V25.9942C90.1551 26.6058 90.3246 27.0927 90.6635 27.455C91.0024 27.8173 91.4426 27.9984 91.984 27.9984C92.3112 27.9984 92.6365 27.9166 92.9598 27.753C93.2871 27.5894 93.5578 27.342 93.772 27.0109C93.9902 26.6798 94.0973 26.2591 94.0934 25.7488Z" fill="#1A1A1A"></path><path d="M84.4853 20.6475C84.4229 20.0944 84.1658 19.6659 83.714 19.362C83.2621 19.0543 82.6933 18.9004 82.0077 18.9004C81.5169 18.9004 81.0923 18.9783 80.7339 19.1341C80.3755 19.2861 80.097 19.4964 79.8983 19.7652C79.7036 20.0301 79.6062 20.332 79.6062 20.6709C79.6062 20.9553 79.6724 21.2007 79.8049 21.4071C79.9412 21.6136 80.1184 21.7869 80.3366 21.9272C80.5586 22.0635 80.7963 22.1784 81.0495 22.2719C81.3027 22.3615 81.5461 22.4355 81.7799 22.494L82.9485 22.7978C83.3303 22.8913 83.7217 23.0179 84.123 23.1776C84.5242 23.3373 84.8962 23.5477 85.239 23.8087C85.5818 24.0697 85.8584 24.393 86.0688 24.7787C86.283 25.1643 86.3901 25.6259 86.3901 26.1635C86.3901 26.8413 86.2148 27.4432 85.8643 27.969C85.5176 28.4949 85.0131 28.9098 84.3509 29.2136C83.6925 29.5175 82.8959 29.6694 81.961 29.6694C81.065 29.6694 80.2898 29.5272 79.6354 29.2429C78.981 28.9585 78.4687 28.5553 78.0986 28.0333C77.7286 27.5074 77.5241 26.8842 77.4851 26.1635H79.2965C79.3316 26.5959 79.4718 26.9562 79.7172 27.2445C79.9665 27.5289 80.284 27.7412 80.6696 27.8814C81.0592 28.0177 81.4857 28.0859 81.9493 28.0859C82.4596 28.0859 82.9134 28.0061 83.3108 27.8463C83.712 27.6827 84.0275 27.4568 84.2574 27.1685C84.4872 26.8764 84.6021 26.5355 84.6021 26.146C84.6021 25.7915 84.5008 25.5013 84.2983 25.2753C84.0996 25.0494 83.8289 24.8624 83.4861 24.7144C83.1472 24.5664 82.7635 24.4359 82.335 24.3229L80.9209 23.9372C79.9626 23.6762 79.203 23.2925 78.6421 22.7861C78.085 22.2797 77.8065 21.6097 77.8065 20.7761C77.8065 20.0866 77.9935 19.4847 78.3674 18.9705C78.7414 18.4563 79.2478 18.057 79.8867 17.7727C80.5255 17.4844 81.2462 17.3403 82.0486 17.3403C82.8589 17.3403 83.5737 17.4825 84.1931 17.7668C84.8164 18.0512 85.3072 18.4427 85.6656 18.9413C86.024 19.436 86.2109 20.0048 86.2265 20.6475H84.4853Z" fill="#1A1A1A"></path><path d="M347.059 30.9406C346.591 30.9406 346.169 30.8542 345.792 30.6814C345.414 30.5055 345.115 30.2512 344.894 29.9184C344.677 29.5857 344.568 29.1778 344.568 28.6948C344.568 28.2789 344.648 27.9366 344.808 27.6678C344.968 27.3991 345.184 27.1863 345.456 27.0296C345.728 26.8728 346.032 26.7545 346.367 26.6745C346.703 26.5945 347.046 26.5337 347.394 26.4921C347.836 26.4409 348.194 26.3993 348.469 26.3674C348.744 26.3322 348.944 26.2762 349.069 26.1994C349.194 26.1226 349.256 25.9979 349.256 25.8251V25.7915C349.256 25.3724 349.138 25.0477 348.901 24.8174C348.668 24.587 348.319 24.4718 347.855 24.4718C347.372 24.4718 346.991 24.579 346.713 24.7934C346.438 25.0045 346.248 25.2396 346.142 25.4988L344.793 25.1917C344.953 24.7438 345.187 24.3823 345.494 24.1071C345.804 23.8288 346.161 23.6273 346.564 23.5025C346.967 23.3745 347.391 23.3105 347.836 23.3105C348.13 23.3105 348.442 23.3457 348.772 23.4161C349.104 23.4833 349.415 23.6081 349.703 23.7904C349.994 23.9728 350.232 24.2335 350.418 24.5726C350.603 24.9085 350.696 25.3452 350.696 25.8827V30.7774H349.295V29.7697H349.237C349.144 29.9552 349.005 30.1376 348.82 30.3167C348.634 30.4959 348.396 30.6447 348.105 30.763C347.814 30.8814 347.465 30.9406 347.059 30.9406ZM347.37 29.7889C347.767 29.7889 348.106 29.7105 348.388 29.5537C348.672 29.397 348.888 29.1922 349.036 28.9395C349.186 28.6836 349.261 28.41 349.261 28.1189V27.1687C349.21 27.2199 349.111 27.2679 348.964 27.3127C348.82 27.3543 348.655 27.3911 348.469 27.4231C348.284 27.4519 348.103 27.4791 347.927 27.5047C347.751 27.5271 347.604 27.5463 347.486 27.5622C347.207 27.5974 346.953 27.6566 346.723 27.7398C346.495 27.823 346.313 27.9429 346.176 28.0997C346.041 28.2533 345.974 28.458 345.974 28.714C345.974 29.0691 346.105 29.3378 346.367 29.5201C346.63 29.6993 346.964 29.7889 347.37 29.7889Z" fill="#EFE6DF"></path><path d="M341.548 30.7776V23.4067H342.983V30.7776H341.548ZM342.273 22.2694C342.023 22.2694 341.809 22.1863 341.63 22.0199C341.454 21.8503 341.366 21.6488 341.366 21.4153C341.366 21.1785 341.454 20.977 341.63 20.8106C341.809 20.6411 342.023 20.5563 342.273 20.5563C342.522 20.5563 342.735 20.6411 342.911 20.8106C343.09 20.977 343.18 21.1785 343.18 21.4153C343.18 21.6488 343.09 21.8503 342.911 22.0199C342.735 22.1863 342.522 22.2694 342.273 22.2694Z" fill="#EFE6DF"></path><path d="M336.983 30.9262C336.27 30.9262 335.656 30.7646 335.141 30.4415C334.629 30.1152 334.235 29.6657 333.96 29.0931C333.685 28.5204 333.548 27.8646 333.548 27.1256C333.548 26.377 333.688 25.7163 333.97 25.1437C334.251 24.5678 334.648 24.1183 335.16 23.7952C335.672 23.4721 336.275 23.3105 336.969 23.3105C337.529 23.3105 338.028 23.4145 338.466 23.6225C338.905 23.8272 339.258 24.1151 339.527 24.4862C339.799 24.8573 339.96 25.2908 340.011 25.7867H338.615C338.538 25.4412 338.362 25.1437 338.087 24.8941C337.815 24.6446 337.451 24.5198 336.993 24.5198C336.593 24.5198 336.243 24.6254 335.942 24.8366C335.645 25.0445 335.413 25.342 335.246 25.7291C335.08 26.113 334.997 26.5673 334.997 27.092C334.997 27.6294 335.078 28.0933 335.242 28.4836C335.405 28.8739 335.635 29.1762 335.933 29.3906C336.233 29.6049 336.587 29.7121 336.993 29.7121C337.265 29.7121 337.511 29.6625 337.732 29.5633C337.956 29.461 338.143 29.3154 338.294 29.1266C338.447 28.9379 338.554 28.7108 338.615 28.4452H340.011C339.96 28.9219 339.805 29.3474 339.546 29.7217C339.287 30.096 338.94 30.3903 338.505 30.6047C338.073 30.819 337.566 30.9262 336.983 30.9262Z" fill="#EFE6DF"></path><path d="M327.24 26.4009V30.7774H325.805V23.4065H327.182V24.6062H327.273C327.443 24.2159 327.708 23.9024 328.07 23.6657C328.435 23.4289 328.894 23.3105 329.447 23.3105C329.949 23.3105 330.389 23.4161 330.767 23.6273C331.144 23.8352 331.437 24.1455 331.645 24.5582C331.853 24.9709 331.957 25.4812 331.957 26.089V30.7774H330.522V26.2618C330.522 25.7275 330.383 25.31 330.105 25.0093C329.826 24.7054 329.444 24.5534 328.958 24.5534C328.625 24.5534 328.329 24.6254 328.07 24.7694C327.814 24.9133 327.611 25.1245 327.46 25.4028C327.313 25.6779 327.24 26.0106 327.24 26.4009Z" fill="#EFE6DF"></path><path d="M321.049 30.9263C320.323 30.9263 319.698 30.7712 319.173 30.4609C318.652 30.1473 318.249 29.7075 317.964 29.1412C317.682 28.5717 317.542 27.9047 317.542 27.1401C317.542 26.3851 317.682 25.7197 317.964 25.1438C318.249 24.568 318.645 24.1185 319.154 23.7954C319.666 23.4723 320.264 23.3107 320.949 23.3107C321.365 23.3107 321.768 23.3795 322.158 23.5171C322.548 23.6546 322.899 23.8706 323.209 24.1649C323.519 24.4592 323.764 24.8415 323.943 25.3118C324.122 25.7789 324.212 26.3467 324.212 27.0153V27.524H318.352V26.4491H322.806C322.806 26.0716 322.729 25.7373 322.575 25.4462C322.422 25.1518 322.206 24.9199 321.928 24.7503C321.652 24.5808 321.329 24.496 320.958 24.496C320.555 24.496 320.203 24.5952 319.902 24.7935C319.605 24.9887 319.375 25.2446 319.211 25.5613C319.052 25.8748 318.972 26.2156 318.972 26.5835V27.4232C318.972 27.9159 319.058 28.335 319.231 28.6805C319.407 29.026 319.651 29.29 319.965 29.4723C320.278 29.6515 320.645 29.741 321.064 29.741C321.336 29.741 321.584 29.7027 321.808 29.6259C322.032 29.5459 322.225 29.4275 322.388 29.2708C322.551 29.114 322.676 28.9205 322.763 28.6901L324.121 28.9349C324.012 29.3348 323.817 29.6851 323.535 29.9858C323.257 30.2833 322.907 30.5152 322.484 30.6816C322.065 30.8448 321.587 30.9263 321.049 30.9263ZM321.88 22.5237L320.896 21.2376L319.907 22.5237H318.612V22.4517L320.296 20.4171H321.491L323.18 22.4517V22.5237H321.88Z" fill="#EFE6DF"></path><path d="M312.952 30.7776V23.4067H314.339V24.5776H314.416C314.55 24.1809 314.787 23.869 315.126 23.6418C315.468 23.4115 315.855 23.2963 316.287 23.2963C316.377 23.2963 316.482 23.2995 316.604 23.3059C316.729 23.3123 316.826 23.3203 316.897 23.3299V24.7024C316.839 24.6864 316.737 24.6688 316.59 24.6496C316.442 24.6272 316.295 24.616 316.148 24.616C315.809 24.616 315.507 24.688 315.241 24.8319C314.979 24.9727 314.771 25.1694 314.617 25.4222C314.464 25.6717 314.387 25.9564 314.387 26.2764V30.7776H312.952Z" fill="#EFE6DF"></path><path d="M309.586 30.7776V23.4067H311.021V30.7776H309.586ZM310.311 22.2694C310.061 22.2694 309.847 22.1863 309.668 22.0199C309.492 21.8503 309.404 21.6488 309.404 21.4153C309.404 21.1785 309.492 20.977 309.668 20.8106C309.847 20.6411 310.061 20.5563 310.311 20.5563C310.56 20.5563 310.773 20.6411 310.949 20.8106C311.128 20.977 311.218 21.1785 311.218 21.4153C311.218 21.6488 311.128 21.8503 310.949 22.0199C310.773 22.1863 310.56 22.2694 310.311 22.2694Z" fill="#EFE6DF"></path><path d="M306.219 27.7208V23.4067H307.658V30.7776H306.248V29.5011H306.171C306.001 29.8946 305.729 30.2225 305.355 30.4848C304.984 30.744 304.522 30.8735 303.968 30.8735C303.495 30.8735 303.076 30.7696 302.711 30.5616C302.349 30.3505 302.065 30.0386 301.857 29.6259C301.652 29.2132 301.55 28.7029 301.55 28.0951V23.4067H302.984V27.9223C302.984 28.4246 303.124 28.8245 303.402 29.122C303.68 29.4195 304.042 29.5683 304.486 29.5683C304.755 29.5683 305.022 29.5011 305.288 29.3667C305.557 29.2324 305.779 29.0292 305.955 28.7573C306.134 28.4854 306.222 28.1399 306.219 27.7208Z" fill="#EFE6DF"></path><path d="M298.185 33.5415V29.6305H298.098C298.012 29.7873 297.887 29.9664 297.724 30.168C297.564 30.3695 297.343 30.5455 297.062 30.6958C296.78 30.8462 296.415 30.9214 295.968 30.9214C295.373 30.9214 294.841 30.7694 294.374 30.4655C293.911 30.1584 293.546 29.7217 293.28 29.1554C293.018 28.586 292.887 27.903 292.887 27.1064C292.887 26.3098 293.02 25.6283 293.285 25.0621C293.554 24.4958 293.922 24.0624 294.389 23.7616C294.856 23.4609 295.385 23.3105 295.977 23.3105C296.435 23.3105 296.803 23.3873 297.081 23.5409C297.362 23.6912 297.58 23.8672 297.734 24.0688C297.89 24.2703 298.012 24.4479 298.098 24.6014H298.218V23.4065H299.619V33.5415H298.185ZM296.284 29.6977C296.697 29.6977 297.046 29.5889 297.33 29.3714C297.618 29.1506 297.836 28.8451 297.983 28.4548C298.133 28.0645 298.209 27.6102 298.209 27.092C298.209 26.5801 298.135 26.1322 297.988 25.7483C297.841 25.3644 297.625 25.0653 297.34 24.8509C297.055 24.6366 296.703 24.5294 296.284 24.5294C295.852 24.5294 295.493 24.6414 295.205 24.8653C294.917 25.0893 294.699 25.3948 294.552 25.7819C294.408 26.169 294.336 26.6057 294.336 27.092C294.336 27.5846 294.41 28.0277 294.557 28.4212C294.704 28.8147 294.921 29.1266 295.209 29.357C295.501 29.5841 295.859 29.6977 296.284 29.6977Z" fill="#EFE6DF"></path><path d="M287.509 30.9218C286.914 30.9218 286.383 30.7698 285.916 30.4659C285.452 30.1588 285.087 29.7221 284.822 29.1558C284.56 28.5864 284.428 27.9034 284.428 27.1068C284.428 26.3102 284.561 25.6287 284.827 25.0625C285.095 24.4962 285.463 24.0627 285.93 23.762C286.398 23.4613 286.927 23.3109 287.519 23.3109C287.976 23.3109 288.344 23.3877 288.623 23.5413C288.904 23.6916 289.122 23.8676 289.275 24.0691C289.432 24.2707 289.554 24.4482 289.64 24.6018H289.726V20.95H291.161V30.7778H289.76V29.6309H289.64C289.554 29.7877 289.429 29.9668 289.266 30.1684C289.106 30.3699 288.885 30.5459 288.603 30.6962C288.322 30.8466 287.957 30.9218 287.509 30.9218ZM287.826 29.6981C288.239 29.6981 288.587 29.5893 288.872 29.3718C289.16 29.151 289.378 28.8455 289.525 28.4552C289.675 28.0649 289.75 27.6106 289.75 27.0924C289.75 26.5805 289.677 26.1326 289.53 25.7487C289.382 25.3648 289.166 25.0657 288.882 24.8513C288.597 24.637 288.245 24.5298 287.826 24.5298C287.394 24.5298 287.034 24.6418 286.746 24.8657C286.458 25.0897 286.241 25.3952 286.094 25.7823C285.95 26.1694 285.878 26.6061 285.878 27.0924C285.878 27.585 285.951 28.0281 286.098 28.4216C286.246 28.8151 286.463 29.127 286.751 29.3574C287.042 29.5845 287.4 29.6981 287.826 29.6981Z" fill="#EFE6DF"></path><path d="M279.201 30.9406C278.734 30.9406 278.312 30.8542 277.935 30.6814C277.557 30.5055 277.258 30.2512 277.037 29.9184C276.82 29.5857 276.711 29.1778 276.711 28.6948C276.711 28.2789 276.791 27.9366 276.951 27.6678C277.111 27.3991 277.327 27.1863 277.599 27.0296C277.871 26.8728 278.174 26.7545 278.51 26.6745C278.846 26.5945 279.189 26.5337 279.537 26.4921C279.979 26.4409 280.337 26.3993 280.612 26.3674C280.887 26.3322 281.087 26.2762 281.212 26.1994C281.337 26.1226 281.399 25.9979 281.399 25.8251V25.7915C281.399 25.3724 281.281 25.0477 281.044 24.8174C280.811 24.587 280.462 24.4718 279.998 24.4718C279.515 24.4718 279.134 24.579 278.856 24.7934C278.581 25.0045 278.39 25.2396 278.285 25.4988L276.936 25.1917C277.096 24.7438 277.33 24.3823 277.637 24.1071C277.947 23.8288 278.304 23.6273 278.707 23.5025C279.11 23.3745 279.534 23.3105 279.979 23.3105C280.273 23.3105 280.585 23.3457 280.915 23.4161C281.247 23.4833 281.558 23.6081 281.846 23.7904C282.137 23.9728 282.375 24.2335 282.561 24.5726C282.746 24.9085 282.839 25.3452 282.839 25.8827V30.7774H281.438V29.7697H281.38C281.287 29.9552 281.148 30.1376 280.963 30.3167C280.777 30.4959 280.539 30.6447 280.248 30.763C279.956 30.8814 279.608 30.9406 279.201 30.9406ZM279.513 29.7889C279.91 29.7889 280.249 29.7105 280.531 29.5537C280.815 29.397 281.031 29.1922 281.179 28.9395C281.329 28.6836 281.404 28.41 281.404 28.1189V27.1687C281.353 27.2199 281.254 27.2679 281.107 27.3127C280.963 27.3543 280.798 27.3911 280.612 27.4231C280.427 27.4519 280.246 27.4791 280.07 27.5047C279.894 27.5271 279.747 27.5463 279.629 27.5622C279.35 27.5974 279.096 27.6566 278.866 27.7398C278.638 27.823 278.456 27.9429 278.318 28.0997C278.184 28.2533 278.117 28.458 278.117 28.714C278.117 29.0691 278.248 29.3378 278.51 29.5201C278.773 29.6993 279.107 29.7889 279.513 29.7889Z" fill="#EFE6DF"></path><path d="M436.838 23.4067L434.165 30.7776H432.63L429.952 23.4067H431.492L433.359 29.0789H433.436L435.298 23.4067H436.838Z" fill="#EFE6DF"></path><path d="M422.444 33.5416V23.4066H423.845V24.6015H423.965C424.048 24.4479 424.168 24.2704 424.325 24.0688C424.481 23.8673 424.699 23.6913 424.977 23.5409C425.256 23.3874 425.624 23.3106 426.081 23.3106C426.676 23.3106 427.207 23.461 427.674 23.7617C428.141 24.0624 428.508 24.4959 428.773 25.0622C429.042 25.6284 429.176 26.3098 429.176 27.1064C429.176 27.903 429.043 28.586 428.778 29.1555C428.512 29.7218 428.148 30.1584 427.684 30.4656C427.22 30.7695 426.69 30.9214 426.095 30.9214C425.648 30.9214 425.281 30.8463 424.996 30.6959C424.715 30.5455 424.494 30.3696 424.334 30.168C424.174 29.9665 424.051 29.7873 423.965 29.6306H423.878V33.5416H422.444ZM423.85 27.092C423.85 27.6103 423.925 28.0646 424.075 28.4549C424.225 28.8452 424.443 29.1507 424.728 29.3714C425.012 29.589 425.361 29.6978 425.774 29.6978C426.203 29.6978 426.561 29.5842 426.849 29.357C427.137 29.1267 427.354 28.8148 427.501 28.4213C427.652 28.0278 427.727 27.5847 427.727 27.092C427.727 26.6058 427.653 26.1691 427.506 25.782C427.362 25.3949 427.145 25.0893 426.854 24.8654C426.566 24.6415 426.206 24.5295 425.774 24.5295C425.358 24.5295 425.006 24.6367 424.718 24.851C424.433 25.0654 424.217 25.3645 424.07 25.7484C423.923 26.1323 423.85 26.5802 423.85 27.092Z" fill="#EFE6DF"></path><path d="M410.5 30.7775V23.4066H411.877V24.6063H411.969C412.122 24.2 412.373 23.8833 412.722 23.6561C413.071 23.4258 413.488 23.3106 413.974 23.3106C414.467 23.3106 414.88 23.4258 415.213 23.6561C415.548 23.8865 415.796 24.2032 415.956 24.6063H416.033C416.209 24.2128 416.489 23.8993 416.873 23.6657C417.257 23.429 417.714 23.3106 418.245 23.3106C418.914 23.3106 419.459 23.5202 419.882 23.9392C420.307 24.3583 420.52 24.9902 420.52 25.8348V30.7775H419.085V25.9691C419.085 25.47 418.949 25.1085 418.677 24.8846C418.405 24.6607 418.081 24.5487 417.703 24.5487C417.236 24.5487 416.873 24.6927 416.614 24.9806C416.355 25.2653 416.225 25.6316 416.225 26.0795V30.7775H414.795V25.8779C414.795 25.478 414.67 25.1565 414.421 24.9134C414.171 24.6703 413.846 24.5487 413.447 24.5487C413.175 24.5487 412.924 24.6207 412.693 24.7646C412.466 24.9054 412.282 25.1021 412.141 25.3549C412.004 25.6076 411.935 25.9003 411.935 26.2331V30.7775H410.5Z" fill="#EFE6DF"></path><path d="M557.189 30.9406C556.722 30.9406 556.3 30.8542 555.922 30.6814C555.545 30.5055 555.245 30.2512 555.025 29.9184C554.807 29.5857 554.698 29.1778 554.698 28.6948C554.698 28.2789 554.778 27.9366 554.938 27.6678C555.098 27.3991 555.314 27.1863 555.586 27.0296C555.858 26.8728 556.162 26.7545 556.498 26.6745C556.834 26.5945 557.176 26.5337 557.525 26.4921C557.966 26.4409 558.325 26.3993 558.6 26.3674C558.875 26.3322 559.075 26.2762 559.2 26.1994C559.324 26.1226 559.387 25.9979 559.387 25.8251V25.7915C559.387 25.3724 559.268 25.0477 559.032 24.8174C558.798 24.587 558.449 24.4718 557.986 24.4718C557.502 24.4718 557.122 24.579 556.843 24.7934C556.568 25.0045 556.378 25.2396 556.272 25.4988L554.924 25.1917C555.084 24.7438 555.317 24.3823 555.625 24.1071C555.935 23.8288 556.292 23.6273 556.695 23.5025C557.098 23.3745 557.522 23.3105 557.966 23.3105C558.261 23.3105 558.573 23.3457 558.902 23.4161C559.235 23.4833 559.545 23.6081 559.833 23.7904C560.124 23.9728 560.363 24.2335 560.548 24.5726C560.734 24.9085 560.826 25.3452 560.826 25.8827V30.7774H559.425V29.7697H559.368C559.275 29.9552 559.136 30.1376 558.95 30.3167C558.765 30.4959 558.526 30.6447 558.235 30.763C557.944 30.8814 557.595 30.9406 557.189 30.9406ZM557.501 29.7889C557.898 29.7889 558.237 29.7105 558.518 29.5537C558.803 29.397 559.019 29.1922 559.166 28.9395C559.316 28.6836 559.392 28.41 559.392 28.1189V27.1687C559.34 27.2199 559.241 27.2679 559.094 27.3127C558.95 27.3543 558.785 27.3911 558.6 27.4231C558.414 27.4519 558.233 27.4791 558.058 27.5047C557.882 27.5271 557.734 27.5463 557.616 27.5622C557.338 27.5974 557.083 27.6566 556.853 27.7398C556.626 27.823 556.444 27.9429 556.306 28.0997C556.172 28.2533 556.104 28.458 556.104 28.714C556.104 29.0691 556.236 29.3378 556.498 29.5201C556.76 29.6993 557.095 29.7889 557.501 29.7889Z" fill="#EFE6DF"></path><path d="M549.923 30.7775V23.4066H551.31V24.5775H551.387C551.521 24.1808 551.758 23.8689 552.097 23.6417C552.44 23.4114 552.827 23.2962 553.259 23.2962C553.348 23.2962 553.454 23.2994 553.575 23.3058C553.7 23.3122 553.798 23.3202 553.868 23.3298V24.7022C553.81 24.6862 553.708 24.6686 553.561 24.6495C553.414 24.6271 553.267 24.6159 553.119 24.6159C552.78 24.6159 552.478 24.6878 552.212 24.8318C551.95 24.9726 551.742 25.1693 551.589 25.4221C551.435 25.6716 551.358 25.9563 551.358 26.2762V30.7775H549.923Z" fill="#EFE6DF"></path><path d="M546.558 30.7775V23.4066H547.992V30.7775H546.558ZM547.282 22.2693C547.033 22.2693 546.818 22.1861 546.639 22.0198C546.463 21.8502 546.375 21.6487 546.375 21.4151C546.375 21.1784 546.463 20.9768 546.639 20.8105C546.818 20.6409 547.033 20.5562 547.282 20.5562C547.532 20.5562 547.745 20.6409 547.921 20.8105C548.1 20.9768 548.189 21.1784 548.189 21.4151C548.189 21.6487 548.1 21.8502 547.921 22.0198C547.745 22.1861 547.532 22.2693 547.282 22.2693Z" fill="#EFE6DF"></path><path d="M541.804 30.9262C541.078 30.9262 540.452 30.771 539.928 30.4607C539.406 30.1472 539.003 29.7073 538.718 29.141C538.437 28.5716 538.296 27.9046 538.296 27.14C538.296 26.385 538.437 25.7195 538.718 25.1437C539.003 24.5678 539.4 24.1183 539.908 23.7952C540.42 23.4721 541.019 23.3105 541.703 23.3105C542.119 23.3105 542.522 23.3793 542.912 23.5169C543.303 23.6545 543.653 23.8704 543.963 24.1647C544.274 24.459 544.518 24.8414 544.698 25.3116C544.877 25.7787 544.966 26.3466 544.966 27.0152V27.5239H539.107V26.4489H543.56C543.56 26.0714 543.483 25.7371 543.33 25.446C543.176 25.1517 542.96 24.9197 542.682 24.7502C542.407 24.5806 542.084 24.4958 541.713 24.4958C541.31 24.4958 540.958 24.595 540.657 24.7934C540.359 24.9885 540.129 25.2444 539.966 25.5612C539.806 25.8747 539.726 26.2154 539.726 26.5833V27.4231C539.726 27.9158 539.812 28.3348 539.985 28.6804C540.161 29.0259 540.406 29.2898 540.719 29.4722C541.033 29.6513 541.399 29.7409 541.818 29.7409C542.09 29.7409 542.338 29.7025 542.562 29.6257C542.786 29.5457 542.98 29.4274 543.143 29.2706C543.306 29.1138 543.431 28.9203 543.517 28.69L544.875 28.9347C544.766 29.3346 544.571 29.6849 544.29 29.9856C544.011 30.2831 543.661 30.5151 543.239 30.6814C542.82 30.8446 542.341 30.9262 541.804 30.9262Z" fill="#EFE6DF"></path><path d="M532.928 30.9215C532.333 30.9215 531.802 30.7695 531.335 30.4656C530.871 30.1585 530.506 29.7218 530.241 29.1555C529.978 28.5861 529.847 27.903 529.847 27.1065C529.847 26.3099 529.98 25.6284 530.245 25.0622C530.514 24.4959 530.882 24.0624 531.349 23.7617C531.816 23.461 532.346 23.3106 532.937 23.3106C533.395 23.3106 533.763 23.3874 534.041 23.541C534.323 23.6913 534.54 23.8673 534.694 24.0688C534.851 24.2704 534.972 24.4479 535.059 24.6015H535.145V20.9496H536.58V30.7775H535.179V29.6306H535.059C534.972 29.7874 534.847 29.9665 534.684 30.1681C534.524 30.3696 534.304 30.5456 534.022 30.6959C533.74 30.8463 533.376 30.9215 532.928 30.9215ZM533.245 29.6978C533.657 29.6978 534.006 29.589 534.291 29.3715C534.579 29.1507 534.796 28.8452 534.943 28.4549C535.094 28.0646 535.169 27.6103 535.169 27.0921C535.169 26.5802 535.095 26.1323 534.948 25.7484C534.801 25.3645 534.585 25.0654 534.3 24.851C534.016 24.6367 533.664 24.5295 533.245 24.5295C532.813 24.5295 532.453 24.6415 532.165 24.8654C531.877 25.0894 531.659 25.3949 531.512 25.782C531.368 26.1691 531.296 26.6058 531.296 27.0921C531.296 27.5847 531.37 28.0278 531.517 28.4213C531.664 28.8148 531.882 29.1267 532.17 29.3571C532.461 29.5842 532.819 29.6978 533.245 29.6978Z" fill="#EFE6DF"></path><path d="M523.525 26.4009V30.7774H522.09V23.4065H523.467V24.6062H523.559C523.728 24.2159 523.994 23.9024 524.355 23.6657C524.72 23.4289 525.179 23.3105 525.732 23.3105C526.235 23.3105 526.675 23.4161 527.052 23.6273C527.43 23.8352 527.722 24.1455 527.93 24.5582C528.138 24.9709 528.242 25.4812 528.242 26.089V30.7774H526.807V26.2618C526.807 25.7275 526.668 25.31 526.39 25.0093C526.112 24.7054 525.729 24.5534 525.243 24.5534C524.91 24.5534 524.614 24.6254 524.355 24.7694C524.099 24.9133 523.896 25.1245 523.746 25.4028C523.599 25.6779 523.525 26.0106 523.525 26.4009Z" fill="#EFE6DF"></path><path d="M516.542 30.9406C516.075 30.9406 515.653 30.8542 515.275 30.6814C514.898 30.5055 514.599 30.2512 514.378 29.9184C514.161 29.5857 514.052 29.1778 514.052 28.6948C514.052 28.2789 514.132 27.9366 514.292 27.6678C514.452 27.3991 514.668 27.1863 514.94 27.0296C515.211 26.8728 515.515 26.7545 515.851 26.6745C516.187 26.5945 516.53 26.5337 516.878 26.4921C517.32 26.4409 517.678 26.3993 517.953 26.3674C518.228 26.3322 518.428 26.2762 518.553 26.1994C518.678 26.1226 518.74 25.9979 518.74 25.8251V25.7915C518.74 25.3724 518.622 25.0477 518.385 24.8174C518.152 24.587 517.803 24.4718 517.339 24.4718C516.856 24.4718 516.475 24.579 516.197 24.7934C515.922 25.0045 515.731 25.2396 515.626 25.4988L514.277 25.1917C514.437 24.7438 514.671 24.3823 514.978 24.1071C515.288 23.8288 515.645 23.6273 516.048 23.5025C516.451 23.3745 516.875 23.3105 517.32 23.3105C517.614 23.3105 517.926 23.3457 518.255 23.4161C518.588 23.4833 518.899 23.6081 519.186 23.7904C519.478 23.9728 519.716 24.2335 519.901 24.5726C520.087 24.9085 520.18 25.3452 520.18 25.8827V30.7774H518.779V29.7697H518.721C518.628 29.9552 518.489 30.1376 518.303 30.3167C518.118 30.4959 517.88 30.6447 517.588 30.763C517.297 30.8814 516.949 30.9406 516.542 30.9406ZM516.854 29.7889C517.251 29.7889 517.59 29.7105 517.872 29.5537C518.156 29.397 518.372 29.1922 518.519 28.9395C518.67 28.6836 518.745 28.41 518.745 28.1189V27.1687C518.694 27.2199 518.595 27.2679 518.447 27.3127C518.303 27.3543 518.139 27.3911 517.953 27.4231C517.768 27.4519 517.587 27.4791 517.411 27.5047C517.235 27.5271 517.088 27.5463 516.969 27.5622C516.691 27.5974 516.437 27.6566 516.206 27.7398C515.979 27.823 515.797 27.9429 515.659 28.0997C515.525 28.2533 515.458 28.458 515.458 28.714C515.458 29.0691 515.589 29.3378 515.851 29.5201C516.114 29.6993 516.448 29.7889 516.854 29.7889Z" fill="#EFE6DF"></path><path d="M506.054 30.7775V20.9496H507.489V24.6015H507.575C507.659 24.4479 507.779 24.2704 507.935 24.0688C508.092 23.8673 508.31 23.6913 508.588 23.541C508.866 23.3874 509.234 23.3106 509.692 23.3106C510.287 23.3106 510.818 23.461 511.285 23.7617C511.752 24.0624 512.118 24.4959 512.384 25.0622C512.653 25.6284 512.787 26.3099 512.787 27.1065C512.787 27.903 512.654 28.5861 512.389 29.1555C512.123 29.7218 511.758 30.1585 511.295 30.4656C510.831 30.7695 510.301 30.9215 509.706 30.9215C509.258 30.9215 508.892 30.8463 508.607 30.6959C508.326 30.5456 508.105 30.3696 507.945 30.1681C507.785 29.9665 507.662 29.7874 507.575 29.6306H507.455V30.7775H506.054ZM507.46 27.0921C507.46 27.6103 507.535 28.0646 507.686 28.4549C507.836 28.8452 508.054 29.1507 508.338 29.3715C508.623 29.589 508.972 29.6978 509.385 29.6978C509.813 29.6978 510.172 29.5842 510.46 29.3571C510.747 29.1267 510.965 28.8148 511.112 28.4213C511.263 28.0278 511.338 27.5847 511.338 27.0921C511.338 26.6058 511.264 26.1691 511.117 25.782C510.973 25.3949 510.755 25.0894 510.464 24.8654C510.176 24.6415 509.816 24.5295 509.385 24.5295C508.969 24.5295 508.617 24.6367 508.329 24.851C508.044 25.0654 507.828 25.3645 507.681 25.7484C507.534 26.1323 507.46 26.5802 507.46 27.0921Z" fill="#EFE6DF"></path><path d="M650.322 30.7776V23.4067H651.756V30.7776H650.322ZM651.046 22.2694C650.797 22.2694 650.582 22.1863 650.403 22.0199C650.227 21.8503 650.139 21.6488 650.139 21.4153C650.139 21.1785 650.227 20.977 650.403 20.8106C650.582 20.6411 650.797 20.5563 651.046 20.5563C651.296 20.5563 651.509 20.6411 651.684 20.8106C651.864 20.977 651.953 21.1785 651.953 21.4153C651.953 21.6488 651.864 21.8503 651.684 22.0199C651.509 22.1863 651.296 22.2694 651.046 22.2694Z" fill="#EFE6DF"></path><path d="M645.76 30.9264C645.047 30.9264 644.432 30.7649 643.917 30.4417C643.406 30.1154 643.012 29.6659 642.737 29.0933C642.462 28.5206 642.324 27.8648 642.324 27.1258C642.324 26.3772 642.465 25.7166 642.746 25.1439C643.028 24.5681 643.425 24.1186 643.937 23.7955C644.448 23.4723 645.051 23.3108 645.746 23.3108C646.306 23.3108 646.805 23.4148 647.243 23.6227C647.681 23.8275 648.035 24.1154 648.303 24.4865C648.575 24.8576 648.737 25.2911 648.788 25.787H647.392C647.315 25.4414 647.139 25.1439 646.864 24.8944C646.592 24.6448 646.227 24.5201 645.77 24.5201C645.37 24.5201 645.02 24.6257 644.719 24.8368C644.421 25.0447 644.189 25.3423 644.023 25.7294C643.857 26.1133 643.773 26.5676 643.773 27.0922C643.773 27.6297 643.855 28.0936 644.018 28.4839C644.181 28.8742 644.412 29.1765 644.709 29.3908C645.01 29.6052 645.363 29.7123 645.77 29.7123C646.042 29.7123 646.288 29.6628 646.509 29.5636C646.733 29.4612 646.92 29.3156 647.07 29.1269C647.224 28.9381 647.331 28.711 647.392 28.4455H648.788C648.737 28.9221 648.582 29.3476 648.323 29.7219C648.064 30.0962 647.716 30.3906 647.281 30.6049C646.849 30.8193 646.342 30.9264 645.76 30.9264Z" fill="#EFE6DF"></path><path d="M634.314 33.5417V23.4068H635.715V24.6017H635.835C635.918 24.4481 636.038 24.2705 636.195 24.069C636.352 23.8674 636.57 23.6915 636.848 23.5411C637.126 23.3876 637.494 23.3108 637.952 23.3108C638.547 23.3108 639.078 23.4612 639.545 23.7619C640.012 24.0626 640.378 24.4961 640.644 25.0623C640.912 25.6286 641.047 26.31 641.047 27.1066C641.047 27.9032 640.914 28.5862 640.648 29.1557C640.383 29.7219 640.018 30.1586 639.554 30.4657C639.09 30.7697 638.561 30.9216 637.966 30.9216C637.518 30.9216 637.152 30.8464 636.867 30.6961C636.586 30.5457 636.365 30.3698 636.205 30.1682C636.045 29.9667 635.922 29.7875 635.835 29.6308H635.749V33.5417H634.314ZM635.72 27.0922C635.72 27.6105 635.795 28.0648 635.946 28.4551C636.096 28.8454 636.314 29.1509 636.598 29.3716C636.883 29.5892 637.232 29.6979 637.644 29.6979C638.073 29.6979 638.431 29.5844 638.719 29.3572C639.007 29.1269 639.225 28.815 639.372 28.4215C639.522 28.028 639.598 27.5849 639.598 27.0922C639.598 26.6059 639.524 26.1693 639.377 25.7822C639.233 25.3951 639.015 25.0895 638.724 24.8656C638.436 24.6416 638.076 24.5297 637.644 24.5297C637.229 24.5297 636.877 24.6368 636.589 24.8512C636.304 25.0655 636.088 25.3647 635.941 25.7486C635.794 26.1325 635.72 26.5803 635.72 27.0922Z" fill="#EFE6DF"></path><path d="M783.984 30.9264C783.258 30.9264 782.633 30.7713 782.108 30.4609C781.587 30.1474 781.183 29.7075 780.899 29.1413C780.617 28.5718 780.476 27.9048 780.476 27.1402C780.476 26.3852 780.617 25.7198 780.899 25.1439C781.183 24.5681 781.58 24.1186 782.089 23.7955C782.601 23.4723 783.199 23.3108 783.884 23.3108C784.299 23.3108 784.703 23.3796 785.093 23.5171C785.483 23.6547 785.833 23.8706 786.144 24.165C786.454 24.4593 786.699 24.8416 786.878 25.3119C787.057 25.779 787.147 26.3468 787.147 27.0154V27.5241H781.287V26.4492H785.741C785.741 26.0717 785.664 25.7374 785.51 25.4462C785.357 25.1519 785.141 24.92 784.863 24.7504C784.587 24.5809 784.264 24.4961 783.893 24.4961C783.49 24.4961 783.138 24.5953 782.837 24.7936C782.54 24.9888 782.31 25.2447 782.146 25.5614C781.986 25.8749 781.907 26.2156 781.907 26.5835V27.4233C781.907 27.916 781.993 28.3351 782.166 28.6806C782.342 29.0261 782.586 29.29 782.9 29.4724C783.213 29.6516 783.58 29.7411 783.999 29.7411C784.271 29.7411 784.519 29.7027 784.743 29.626C784.967 29.546 785.16 29.4276 785.323 29.2709C785.486 29.1141 785.611 28.9205 785.698 28.6902L787.056 28.9349C786.947 29.3348 786.752 29.6851 786.47 29.9859C786.192 30.2834 785.841 30.5153 785.419 30.6817C785 30.8448 784.522 30.9264 783.984 30.9264Z" fill="#EFE6DF"></path><path d="M775.108 30.9215C774.513 30.9215 773.982 30.7695 773.515 30.4656C773.051 30.1585 772.687 29.7218 772.421 29.1555C772.159 28.5861 772.028 27.903 772.028 27.1065C772.028 26.3099 772.16 25.6284 772.426 25.0622C772.695 24.4959 773.062 24.0624 773.53 23.7617C773.997 23.461 774.526 23.3106 775.118 23.3106C775.575 23.3106 775.943 23.3874 776.222 23.541C776.503 23.6913 776.721 23.8673 776.874 24.0688C777.031 24.2704 777.153 24.4479 777.239 24.6015H777.325V20.9496H778.76V30.7775H777.359V29.6306H777.239C777.153 29.7874 777.028 29.9665 776.865 30.1681C776.705 30.3696 776.484 30.5456 776.202 30.6959C775.921 30.8463 775.556 30.9215 775.108 30.9215ZM775.425 29.6978C775.838 29.6978 776.186 29.589 776.471 29.3715C776.759 29.1507 776.977 28.8452 777.124 28.4549C777.274 28.0646 777.349 27.6103 777.349 27.0921C777.349 26.5802 777.276 26.1323 777.129 25.7484C776.981 25.3645 776.766 25.0654 776.481 24.851C776.196 24.6367 775.844 24.5295 775.425 24.5295C774.993 24.5295 774.633 24.6415 774.345 24.8654C774.057 25.0894 773.84 25.3949 773.693 25.782C773.549 26.1691 773.477 26.6058 773.477 27.0921C773.477 27.5847 773.55 28.0278 773.698 28.4213C773.845 28.8148 774.062 29.1267 774.35 29.3571C774.641 29.5842 775 29.6978 775.425 29.6978Z" fill="#EFE6DF"></path><path d="M768.982 27.7208V23.4067H770.422V30.7776H769.011V29.5011H768.934C768.765 29.8946 768.493 30.2225 768.119 30.4848C767.747 30.744 767.285 30.8735 766.732 30.8735C766.258 30.8735 765.839 30.7696 765.474 30.5616C765.113 30.3505 764.828 30.0386 764.62 29.6259C764.415 29.2132 764.313 28.7029 764.313 28.0951V23.4067H765.748V27.9223C765.748 28.4246 765.887 28.8245 766.165 29.122C766.444 29.4195 766.805 29.5683 767.25 29.5683C767.519 29.5683 767.786 29.5011 768.051 29.3667C768.32 29.2324 768.542 29.0292 768.718 28.7573C768.898 28.4854 768.986 28.1399 768.982 27.7208Z" fill="#EFE6DF"></path><path d="M758.765 30.9408C758.298 30.9408 757.876 30.8544 757.498 30.6817C757.121 30.5057 756.822 30.2514 756.601 29.9187C756.383 29.586 756.275 29.1781 756.275 28.695C756.275 28.2791 756.355 27.9368 756.515 27.6681C756.675 27.3993 756.891 27.1866 757.162 27.0298C757.434 26.8731 757.738 26.7547 758.074 26.6747C758.41 26.5947 758.752 26.534 759.101 26.4924C759.543 26.4412 759.901 26.3996 760.176 26.3676C760.451 26.3324 760.651 26.2764 760.776 26.1996C760.901 26.1229 760.963 25.9981 760.963 25.8253V25.7917C760.963 25.3727 760.845 25.0479 760.608 24.8176C760.374 24.5873 760.026 24.4721 759.562 24.4721C759.079 24.4721 758.698 24.5793 758.42 24.7936C758.145 25.0048 757.954 25.2399 757.849 25.499L756.5 25.1919C756.66 24.744 756.894 24.3825 757.201 24.1074C757.511 23.8291 757.868 23.6275 758.271 23.5027C758.674 23.3748 759.098 23.3108 759.543 23.3108C759.837 23.3108 760.149 23.346 760.478 23.4164C760.811 23.4835 761.121 23.6083 761.409 23.7907C761.701 23.973 761.939 24.2338 762.124 24.5729C762.31 24.9088 762.403 25.3455 762.403 25.8829V30.7777H761.001V29.7699H760.944C760.851 29.9555 760.712 30.1378 760.526 30.317C760.341 30.4961 760.103 30.6449 759.811 30.7633C759.52 30.8816 759.172 30.9408 758.765 30.9408ZM759.077 29.7891C759.474 29.7891 759.813 29.7107 760.095 29.554C760.379 29.3972 760.595 29.1925 760.742 28.9397C760.893 28.6838 760.968 28.4103 760.968 28.1191V27.169C760.917 27.2202 760.818 27.2682 760.67 27.313C760.526 27.3545 760.362 27.3913 760.176 27.4233C759.991 27.4521 759.81 27.4793 759.634 27.5049C759.458 27.5273 759.311 27.5465 759.192 27.5625C758.914 27.5977 758.66 27.6569 758.429 27.74C758.202 27.8232 758.02 27.9432 757.882 28.1C757.748 28.2535 757.681 28.4583 757.681 28.7142C757.681 29.0693 757.812 29.338 758.074 29.5204C758.337 29.6995 758.671 29.7891 759.077 29.7891Z" fill="#EFE6DF"></path><path d="M751.5 30.7776V23.4067H752.887V24.5776H752.963C753.098 24.1809 753.335 23.869 753.674 23.6418C754.016 23.4115 754.403 23.2963 754.835 23.2963C754.925 23.2963 755.03 23.2995 755.152 23.3059C755.276 23.3123 755.374 23.3203 755.444 23.3299V24.7024C755.387 24.6864 755.284 24.6688 755.137 24.6496C754.99 24.6272 754.843 24.616 754.696 24.616C754.357 24.616 754.054 24.688 753.789 24.8319C753.526 24.9727 753.319 25.1694 753.165 25.4222C753.011 25.6717 752.935 25.9564 752.935 26.2764V30.7776H751.5Z" fill="#EFE6DF"></path><path d="M750.017 23.4067V24.5584H745.852V23.4067H750.017ZM746.994 30.7776V22.5525C746.994 22.0918 747.095 21.7095 747.296 21.4056C747.498 21.0985 747.765 20.8697 748.098 20.7194C748.431 20.5658 748.792 20.489 749.182 20.489C749.47 20.489 749.717 20.513 749.921 20.561C750.126 20.6058 750.278 20.6474 750.377 20.6858L750.041 21.8471C749.974 21.8279 749.888 21.8055 749.782 21.7799C749.677 21.7511 749.549 21.7367 749.398 21.7367C749.05 21.7367 748.8 21.8231 748.65 21.9958C748.502 22.1686 748.429 22.4181 748.429 22.7444V30.7776H746.994Z" fill="#EFE6DF"></path><path d="M739.57 30.7776V23.4067H741.005V30.7776H739.57ZM740.295 22.2694C740.045 22.2694 739.831 22.1863 739.652 22.0199C739.476 21.8503 739.388 21.6488 739.388 21.4153C739.388 21.1785 739.476 20.977 739.652 20.8106C739.831 20.6411 740.045 20.5563 740.295 20.5563C740.544 20.5563 740.757 20.6411 740.933 20.8106C741.112 20.977 741.202 21.1785 741.202 21.4153C741.202 21.6488 741.112 21.8503 740.933 22.0199C740.757 22.1863 740.544 22.2694 740.295 22.2694Z" fill="#EFE6DF"></path><path d="M737.983 23.4066V24.5583H733.957V23.4066H737.983ZM735.037 21.6407H736.472V28.6133C736.472 28.8916 736.513 29.1012 736.596 29.2419C736.68 29.3795 736.787 29.4739 736.918 29.525C737.052 29.573 737.198 29.597 737.355 29.597C737.47 29.597 737.571 29.589 737.657 29.573C737.743 29.557 737.811 29.5442 737.859 29.5346L738.118 30.7199C738.034 30.7519 737.916 30.7839 737.763 30.8159C737.609 30.8511 737.417 30.8703 737.187 30.8735C736.809 30.8799 736.457 30.8127 736.131 30.672C735.805 30.5312 735.541 30.3136 735.339 30.0193C735.138 29.725 735.037 29.3555 735.037 28.9108V21.6407Z" fill="#EFE6DF"></path><path d="M727.899 26.4012V30.7777H726.464V23.4068H727.842V24.6065H727.933C728.102 24.2162 728.368 23.9026 728.729 23.6659C729.094 23.4292 729.553 23.3108 730.107 23.3108C730.609 23.3108 731.049 23.4164 731.426 23.6275C731.804 23.8355 732.097 24.1458 732.305 24.5585C732.513 24.9712 732.616 25.4814 732.616 26.0893V30.7777H731.182V26.262C731.182 25.7278 731.042 25.3103 730.764 25.0096C730.486 24.7056 730.104 24.5537 729.617 24.5537C729.285 24.5537 728.989 24.6257 728.729 24.7696C728.474 24.9136 728.27 25.1247 728.12 25.4031C727.973 25.6782 727.899 26.0109 727.899 26.4012Z" fill="#EFE6DF"></path><path d="M720.917 30.9408C720.45 30.9408 720.027 30.8544 719.65 30.6817C719.272 30.5057 718.973 30.2514 718.752 29.9187C718.535 29.586 718.426 29.1781 718.426 28.695C718.426 28.2791 718.506 27.9368 718.666 27.6681C718.826 27.3993 719.042 27.1866 719.314 27.0298C719.586 26.8731 719.89 26.7547 720.226 26.6747C720.562 26.5947 720.904 26.534 721.253 26.4924C721.694 26.4412 722.052 26.3996 722.327 26.3676C722.603 26.3324 722.803 26.2764 722.927 26.1996C723.052 26.1229 723.114 25.9981 723.114 25.8253V25.7917C723.114 25.3727 722.996 25.0479 722.759 24.8176C722.526 24.5873 722.177 24.4721 721.713 24.4721C721.23 24.4721 720.849 24.5793 720.571 24.7936C720.296 25.0048 720.106 25.2399 720 25.499L718.652 25.1919C718.812 24.744 719.045 24.3825 719.352 24.1074C719.663 23.8291 720.019 23.6275 720.422 23.5027C720.825 23.3748 721.249 23.3108 721.694 23.3108C721.988 23.3108 722.3 23.346 722.63 23.4164C722.962 23.4835 723.273 23.6083 723.561 23.7907C723.852 23.973 724.09 24.2338 724.276 24.5729C724.461 24.9088 724.554 25.3455 724.554 25.8829V30.7777H723.153V29.7699H723.095C723.002 29.9555 722.863 30.1378 722.678 30.317C722.492 30.4961 722.254 30.6449 721.963 30.7633C721.672 30.8816 721.323 30.9408 720.917 30.9408ZM721.229 29.7891C721.625 29.7891 721.964 29.7107 722.246 29.554C722.531 29.3972 722.747 29.1925 722.894 28.9397C723.044 28.6838 723.119 28.4103 723.119 28.1191V27.169C723.068 27.2202 722.969 27.2682 722.822 27.313C722.678 27.3545 722.513 27.3913 722.327 27.4233C722.142 27.4521 721.961 27.4793 721.785 27.5049C721.609 27.5273 721.462 27.5465 721.344 27.5625C721.065 27.5977 720.811 27.6569 720.581 27.74C720.354 27.8232 720.171 27.9432 720.034 28.1C719.899 28.2535 719.832 28.4583 719.832 28.7142C719.832 29.0693 719.963 29.338 720.226 29.5204C720.488 29.6995 720.822 29.7891 721.229 29.7891Z" fill="#EFE6DF"></path><path d="M974.799 34.0066C974.538 34.0066 974.301 33.9852 974.087 33.9423C973.872 33.9034 973.713 33.8605 973.607 33.8138L974.028 32.3822C974.348 32.4679 974.632 32.5049 974.881 32.4932C975.131 32.4815 975.351 32.388 975.542 32.2127C975.736 32.0374 975.908 31.7511 976.056 31.3538L976.272 30.7578L972.988 21.6658H974.858L977.131 28.6309H977.224L979.497 21.6658H981.373L977.674 31.8388C977.503 32.3062 977.285 32.7016 977.02 33.0249C976.755 33.3522 976.439 33.5976 976.073 33.7612C975.707 33.9248 975.282 34.0066 974.799 34.0066Z" fill="#1A1A1A"></path><path d="M966.752 30.8162C966.028 30.8162 965.381 30.6312 964.812 30.2611C964.248 29.8872 963.803 29.3554 963.48 28.6659C963.161 27.9725 963.001 27.1409 963.001 26.1709C963.001 25.2009 963.163 24.3712 963.486 23.6817C963.813 22.9922 964.261 22.4644 964.83 22.0982C965.399 21.732 966.043 21.5489 966.764 21.5489C967.321 21.5489 967.769 21.6424 968.108 21.8294C968.451 22.0125 968.716 22.2267 968.903 22.4722C969.093 22.7176 969.242 22.9338 969.347 23.1207H969.452V18.6741H971.199V30.6409H969.493V29.2444H969.347C969.242 29.4353 969.09 29.6534 968.891 29.8989C968.696 30.1443 968.427 30.3585 968.085 30.5416C967.742 30.7247 967.298 30.8162 966.752 30.8162ZM967.138 29.3262C967.64 29.3262 968.065 29.1938 968.412 28.9289C968.762 28.6601 969.027 28.2881 969.206 27.8128C969.39 27.3376 969.481 26.7844 969.481 26.1534C969.481 25.5301 969.391 24.9847 969.212 24.5173C969.033 24.0498 968.77 23.6856 968.423 23.4246C968.077 23.1636 967.648 23.0331 967.138 23.0331C966.612 23.0331 966.174 23.1694 965.823 23.4421C965.473 23.7148 965.208 24.0868 965.029 24.5582C964.853 25.0295 964.766 25.5613 964.766 26.1534C964.766 26.7533 964.855 27.2928 965.034 27.7719C965.214 28.2511 965.478 28.6309 965.829 28.9114C966.184 29.1879 966.62 29.3262 967.138 29.3262Z" fill="#1A1A1A"></path><path d="M956.638 30.8396C956.069 30.8396 955.555 30.7344 955.095 30.524C954.636 30.3098 954.271 30.0001 954.003 29.595C953.738 29.1898 953.605 28.6932 953.605 28.105C953.605 27.5985 953.703 27.1817 953.897 26.8545C954.092 26.5273 954.355 26.2682 954.686 26.0774C955.017 25.8865 955.387 25.7424 955.796 25.645C956.205 25.5476 956.622 25.4736 957.047 25.4229C957.584 25.3606 958.021 25.31 958.356 25.271C958.691 25.2282 958.934 25.16 959.086 25.0665C959.238 24.973 959.314 24.8211 959.314 24.6107V24.5698C959.314 24.0595 959.17 23.6641 958.882 23.3837C958.597 23.1032 958.173 22.9629 957.608 22.9629C957.02 22.9629 956.556 23.0934 956.217 23.3544C955.882 23.6115 955.65 23.8979 955.522 24.2134L953.88 23.8394C954.075 23.2941 954.359 22.8539 954.733 22.5189C955.111 22.18 955.545 21.9345 956.036 21.7826C956.527 21.6268 957.043 21.5489 957.584 21.5489C957.943 21.5489 958.323 21.5917 958.724 21.6774C959.129 21.7592 959.507 21.9112 959.857 22.1332C960.212 22.3552 960.502 22.6727 960.728 23.0856C960.954 23.4947 961.067 24.0264 961.067 24.6808V30.6409H959.361V29.4138H959.291C959.178 29.6398 959.008 29.8618 958.782 30.08C958.556 30.2981 958.266 30.4792 957.912 30.6234C957.557 30.7675 957.133 30.8396 956.638 30.8396ZM957.018 29.4372C957.501 29.4372 957.914 29.3418 958.256 29.1509C958.603 28.96 958.866 28.7107 959.045 28.403C959.228 28.0913 959.32 27.7583 959.32 27.4038V26.2468C959.258 26.3091 959.137 26.3676 958.958 26.4221C958.782 26.4728 958.582 26.5176 958.356 26.5565C958.13 26.5916 957.91 26.6247 957.695 26.6558C957.481 26.6831 957.302 26.7065 957.158 26.726C956.819 26.7688 956.509 26.8409 956.229 26.9422C955.952 27.0434 955.73 27.1895 955.563 27.3804C955.399 27.5674 955.317 27.8167 955.317 28.1283C955.317 28.5607 955.477 28.8879 955.796 29.11C956.116 29.3281 956.523 29.4372 957.018 29.4372Z" fill="#1A1A1A"></path><path d="M948.236 30.822C947.351 30.822 946.59 30.6331 945.951 30.2553C945.316 29.8735 944.825 29.3379 944.478 28.6484C944.136 27.955 943.964 27.1428 943.964 26.2118C943.964 25.2924 944.136 24.4822 944.478 23.781C944.825 23.0798 945.308 22.5325 945.927 22.1391C946.551 21.7456 947.279 21.5489 948.113 21.5489C948.619 21.5489 949.11 21.6326 949.585 21.8001C950.061 21.9677 950.487 22.2306 950.865 22.589C951.243 22.9474 951.541 23.4129 951.759 23.9855C951.977 24.5542 952.086 25.2457 952.086 26.0598V26.6792H944.952V25.3703H950.374C950.374 24.9107 950.281 24.5036 950.094 24.1491C949.907 23.7907 949.644 23.5083 949.305 23.3018C948.97 23.0954 948.576 22.9922 948.125 22.9922C947.634 22.9922 947.205 23.1129 946.839 23.3544C946.477 23.5921 946.196 23.9037 945.998 24.2893C945.803 24.6711 945.705 25.086 945.705 25.5339V26.5565C945.705 27.1564 945.811 27.6667 946.021 28.0874C946.235 28.5081 946.533 28.8295 946.915 29.0516C947.297 29.2697 947.743 29.3788 948.253 29.3788C948.584 29.3788 948.886 29.332 949.159 29.2385C949.431 29.1411 949.667 28.997 949.866 28.8061C950.064 28.6153 950.216 28.3796 950.322 28.0991L951.975 28.3971C951.843 28.884 951.605 29.3106 951.262 29.6768C950.923 30.0391 950.497 30.3215 949.983 30.524C949.472 30.7227 948.89 30.822 948.236 30.822Z" fill="#1A1A1A"></path><path d="M938.375 30.641V21.6659H940.063V23.0916H940.157C940.32 22.6086 940.609 22.2288 941.022 21.9522C941.438 21.6717 941.91 21.5315 942.436 21.5315C942.545 21.5315 942.673 21.5354 942.821 21.5432C942.973 21.551 943.092 21.5607 943.178 21.5724V23.2436C943.108 23.2241 942.983 23.2026 942.804 23.1793C942.625 23.152 942.445 23.1384 942.266 23.1384C941.853 23.1384 941.485 23.226 941.162 23.4013C940.842 23.5727 940.589 23.8123 940.402 24.12C940.215 24.4239 940.122 24.7706 940.122 25.1601V30.641H938.375Z" fill="#1A1A1A"></path><path d="M932.087 21.6659V23.0683H927.184V21.6659H932.087ZM928.499 19.5156H930.246V28.0058C930.246 28.3447 930.297 28.5998 930.398 28.7712C930.499 28.9388 930.63 29.0537 930.79 29.116C930.953 29.1744 931.13 29.2036 931.321 29.2036C931.462 29.2036 931.584 29.1939 931.689 29.1744C931.795 29.155 931.876 29.1394 931.935 29.1277L932.25 30.571C932.149 30.6099 932.005 30.6489 931.818 30.6878C931.631 30.7307 931.397 30.754 931.117 30.7579C930.657 30.7657 930.229 30.6839 929.831 30.5125C929.434 30.3411 929.113 30.0762 928.867 29.7178C928.622 29.3595 928.499 28.9095 928.499 28.3681V19.5156Z" fill="#1A1A1A"></path><path d="M922.107 30.822C921.223 30.822 920.461 30.6331 919.822 30.2553C919.188 29.8735 918.697 29.3379 918.35 28.6484C918.007 27.955 917.836 27.1428 917.836 26.2118C917.836 25.2924 918.007 24.4822 918.35 23.781C918.697 23.0798 919.18 22.5325 919.799 22.1391C920.422 21.7456 921.151 21.5489 921.984 21.5489C922.491 21.5489 922.982 21.6326 923.457 21.8001C923.932 21.9677 924.359 22.2306 924.737 22.589C925.114 22.9474 925.412 23.4129 925.631 23.9855C925.849 24.5542 925.958 25.2457 925.958 26.0598V26.6792H918.823V25.3703H924.246C924.246 24.9107 924.152 24.5036 923.965 24.1491C923.778 23.7907 923.515 23.5083 923.176 23.3018C922.841 23.0954 922.448 22.9922 921.996 22.9922C921.505 22.9922 921.077 23.1129 920.711 23.3544C920.348 23.5921 920.068 23.9037 919.869 24.2893C919.674 24.6711 919.577 25.086 919.577 25.5339V26.5565C919.577 27.1564 919.682 27.6667 919.893 28.0874C920.107 28.5081 920.405 28.8295 920.787 29.0516C921.168 29.2697 921.614 29.3788 922.125 29.3788C922.456 29.3788 922.758 29.332 923.03 29.2385C923.303 29.1411 923.539 28.997 923.737 28.8061C923.936 28.6153 924.088 28.3796 924.193 28.0991L925.847 28.3971C925.714 28.884 925.477 29.3106 925.134 29.6768C924.795 30.0391 924.368 30.3215 923.854 30.524C923.344 30.7227 922.762 30.822 922.107 30.822Z" fill="#1A1A1A"></path><path d="M911.058 27.5966L911.047 25.4639H911.35L914.926 21.6658H917.018L912.94 25.9898H912.665L911.058 27.5966ZM909.451 30.6409V18.6741H911.198V30.6409H909.451ZM915.119 30.6409L911.905 26.3754L913.109 25.1542L917.264 30.6409H915.119Z" fill="#1A1A1A"></path><path d="M903.137 30.641V21.6659H904.825V23.0916H904.919C905.082 22.6086 905.371 22.2288 905.784 21.9522C906.2 21.6717 906.672 21.5315 907.198 21.5315C907.307 21.5315 907.435 21.5354 907.583 21.5432C907.735 21.551 907.854 21.5607 907.94 21.5724V23.2436C907.87 23.2241 907.745 23.2026 907.566 23.1793C907.387 23.152 907.207 23.1384 907.028 23.1384C906.615 23.1384 906.247 23.226 905.924 23.4013C905.604 23.5727 905.351 23.8123 905.164 24.12C904.977 24.4239 904.884 24.7706 904.884 25.1601V30.641H903.137Z" fill="#1A1A1A"></path><path d="M896.379 30.8396C895.81 30.8396 895.296 30.7344 894.836 30.524C894.377 30.3098 894.012 30.0001 893.744 29.595C893.479 29.1898 893.346 28.6932 893.346 28.105C893.346 27.5985 893.444 27.1817 893.638 26.8545C893.833 26.5273 894.096 26.2682 894.427 26.0774C894.758 25.8865 895.128 25.7424 895.537 25.645C895.946 25.5476 896.363 25.4736 896.788 25.4229C897.325 25.3606 897.762 25.31 898.097 25.271C898.432 25.2282 898.675 25.16 898.827 25.0665C898.979 24.973 899.055 24.8211 899.055 24.6107V24.5698C899.055 24.0595 898.911 23.6641 898.623 23.3837C898.338 23.1032 897.914 22.9629 897.349 22.9629C896.761 22.9629 896.297 23.0934 895.958 23.3544C895.623 23.6115 895.391 23.8979 895.263 24.2134L893.621 23.8394C893.816 23.2941 894.1 22.8539 894.474 22.5189C894.852 22.18 895.286 21.9345 895.777 21.7826C896.268 21.6268 896.784 21.5489 897.325 21.5489C897.684 21.5489 898.064 21.5917 898.465 21.6774C898.87 21.7592 899.248 21.9112 899.598 22.1332C899.953 22.3552 900.243 22.6727 900.469 23.0856C900.695 23.4947 900.808 24.0264 900.808 24.6808V30.6409H899.102V29.4138H899.032C898.919 29.6398 898.749 29.8618 898.523 30.08C898.297 30.2981 898.007 30.4792 897.653 30.6234C897.298 30.7675 896.874 30.8396 896.379 30.8396ZM896.759 29.4372C897.242 29.4372 897.655 29.3418 897.997 29.1509C898.344 28.96 898.607 28.7107 898.786 28.403C898.969 28.0913 899.061 27.7583 899.061 27.4038V26.2468C898.999 26.3091 898.878 26.3676 898.699 26.4221C898.523 26.4728 898.323 26.5176 898.097 26.5565C897.871 26.5916 897.651 26.6247 897.436 26.6558C897.222 26.6831 897.043 26.7065 896.899 26.726C896.56 26.7688 896.25 26.8409 895.97 26.9422C895.693 27.0434 895.471 27.1895 895.304 27.3804C895.14 27.5674 895.058 27.8167 895.058 28.1283C895.058 28.5607 895.218 28.8879 895.537 29.11C895.857 29.3281 896.264 29.4372 896.759 29.4372Z" fill="#1A1A1A"></path><path d="M879.141 18.6741H881.332L885.142 27.9765H885.282L889.092 18.6741H891.283V30.641H889.565V21.9814H889.454L885.925 30.6235H884.499L880.97 21.9755H880.859V30.641H879.141V18.6741Z" fill="#1A1A1A"></path><path d="M46.807 92.0636C46.807 86.8922 50.9571 82.6999 56.0766 82.6999H200.269C205.389 82.6999 209.539 86.8922 209.539 92.0636V125.357C209.539 130.528 205.389 134.721 200.269 134.721H56.0765C50.9571 134.721 46.807 130.528 46.807 125.357V92.0636Z" fill="#FF7A01"></path><path d="M46.807 92.0636C46.807 86.8922 50.9571 82.6999 56.0766 82.6999H200.269C205.389 82.6999 209.539 86.8922 209.539 92.0636V125.357C209.539 130.528 205.389 134.721 200.269 134.721H56.0765C50.9571 134.721 46.807 130.528 46.807 125.357V92.0636Z" fill="black" fill-opacity="0.2"></path><path d="M448.302 92.0636C448.302 86.8922 452.452 82.6999 457.571 82.6999H601.764C606.884 82.6999 611.034 86.8922 611.034 92.0636V125.357C611.034 130.528 606.884 134.721 601.764 134.721H457.571C452.452 134.721 448.302 130.528 448.302 125.357V92.0636Z" fill="#FF7A01"></path><path d="M448.302 92.0636C448.302 86.8922 452.452 82.6999 457.571 82.6999H601.764C606.884 82.6999 611.034 86.8922 611.034 92.0636V125.357C611.034 130.528 606.884 134.721 601.764 134.721H457.571C452.452 134.721 448.302 130.528 448.302 125.357V92.0636Z" fill="black" fill-opacity="0.2"></path><path d="M848.461 92.0636C848.461 86.8922 852.611 82.6999 857.731 82.6999H1001.92C1007.04 82.6999 1011.19 86.8922 1011.19 92.0636V125.357C1011.19 130.528 1007.04 134.721 1001.92 134.721H857.731C852.611 134.721 848.461 130.528 848.461 125.357V92.0636Z" fill="#FF7A01"></path><path d="M848.461 92.0636C848.461 86.8922 852.611 82.6999 857.731 82.6999H1001.92C1007.04 82.6999 1011.19 86.8922 1011.19 92.0636V125.357C1011.19 130.528 1007.04 134.721 1001.92 134.721H857.731C852.611 134.721 848.461 130.528 848.461 125.357V92.0636Z" fill="black" fill-opacity="0.2"></path><path d="M173.356 113.703C172.787 113.703 172.273 113.598 171.813 113.388C171.354 113.173 170.989 112.864 170.721 112.458C170.456 112.053 170.323 111.557 170.323 110.968C170.323 110.462 170.421 110.045 170.615 109.718C170.81 109.391 171.073 109.132 171.404 108.941C171.735 108.75 172.105 108.606 172.514 108.508C172.923 108.411 173.34 108.337 173.765 108.286C174.302 108.224 174.739 108.173 175.074 108.135C175.409 108.092 175.652 108.024 175.804 107.93C175.956 107.837 176.032 107.685 176.032 107.474V107.433C176.032 106.923 175.888 106.528 175.6 106.247C175.315 105.967 174.891 105.826 174.326 105.826C173.738 105.826 173.274 105.957 172.935 106.218C172.6 106.475 172.368 106.761 172.24 107.077L170.598 106.703C170.793 106.158 171.077 105.717 171.451 105.382C171.829 105.043 172.263 104.798 172.754 104.646C173.245 104.49 173.761 104.412 174.302 104.412C174.661 104.412 175.041 104.455 175.442 104.541C175.847 104.623 176.225 104.775 176.575 104.997C176.93 105.219 177.22 105.536 177.446 105.949C177.672 106.358 177.785 106.89 177.785 107.544V113.504H176.079V112.277H176.009C175.896 112.503 175.726 112.725 175.5 112.943C175.274 113.162 174.984 113.343 174.63 113.487C174.275 113.631 173.851 113.703 173.356 113.703ZM173.736 112.301C174.219 112.301 174.632 112.205 174.974 112.014C175.321 111.824 175.584 111.574 175.763 111.266C175.946 110.955 176.038 110.622 176.038 110.267V109.11C175.976 109.173 175.855 109.231 175.676 109.286C175.5 109.336 175.3 109.381 175.074 109.42C174.848 109.455 174.628 109.488 174.413 109.519C174.199 109.547 174.02 109.57 173.876 109.589C173.537 109.632 173.227 109.704 172.947 109.806C172.67 109.907 172.448 110.053 172.281 110.244C172.117 110.431 172.035 110.68 172.035 110.992C172.035 111.424 172.195 111.751 172.514 111.974C172.834 112.192 173.241 112.301 173.736 112.301Z" fill="#1A1A1A"></path><path d="M168.649 106.72L167.065 107.001C166.999 106.798 166.894 106.606 166.75 106.422C166.61 106.239 166.419 106.089 166.177 105.973C165.936 105.856 165.634 105.797 165.271 105.797C164.777 105.797 164.364 105.908 164.033 106.13C163.702 106.348 163.536 106.631 163.536 106.978C163.536 107.278 163.647 107.519 163.869 107.702C164.091 107.885 164.45 108.035 164.944 108.152L166.37 108.479C167.196 108.67 167.811 108.964 168.216 109.362C168.622 109.759 168.824 110.275 168.824 110.91C168.824 111.448 168.668 111.927 168.357 112.347C168.049 112.764 167.618 113.092 167.065 113.329C166.516 113.567 165.879 113.686 165.155 113.686C164.15 113.686 163.33 113.471 162.695 113.043C162.06 112.61 161.67 111.997 161.526 111.202L163.215 110.945C163.32 111.385 163.536 111.718 163.863 111.944C164.19 112.166 164.617 112.277 165.143 112.277C165.716 112.277 166.173 112.159 166.516 111.921C166.859 111.679 167.03 111.385 167.03 111.039C167.03 110.758 166.925 110.522 166.715 110.332C166.508 110.141 166.191 109.997 165.762 109.899L164.243 109.566C163.406 109.375 162.786 109.071 162.385 108.655C161.988 108.238 161.789 107.71 161.789 107.071C161.789 106.541 161.937 106.078 162.233 105.68C162.529 105.283 162.938 104.973 163.46 104.751C163.982 104.525 164.58 104.412 165.254 104.412C166.224 104.412 166.987 104.623 167.544 105.043C168.102 105.46 168.47 106.019 168.649 106.72Z" fill="#1A1A1A"></path><path d="M156.133 113.686C155.248 113.686 154.487 113.497 153.848 113.119C153.213 112.737 152.722 112.201 152.375 111.512C152.033 110.819 151.861 110.006 151.861 109.075C151.861 108.156 152.033 107.346 152.375 106.645C152.722 105.943 153.205 105.396 153.825 105.003C154.448 104.609 155.176 104.412 156.01 104.412C156.516 104.412 157.007 104.496 157.482 104.664C157.958 104.831 158.384 105.094 158.762 105.453C159.14 105.811 159.438 106.276 159.656 106.849C159.874 107.418 159.983 108.109 159.983 108.923V109.543H152.849V108.234H158.271C158.271 107.774 158.178 107.367 157.991 107.013C157.804 106.654 157.541 106.372 157.202 106.165C156.867 105.959 156.474 105.856 156.022 105.856C155.531 105.856 155.102 105.976 154.736 106.218C154.374 106.456 154.093 106.767 153.895 107.153C153.7 107.535 153.603 107.949 153.603 108.397V109.42C153.603 110.02 153.708 110.53 153.918 110.951C154.132 111.372 154.43 111.693 154.812 111.915C155.194 112.133 155.64 112.242 156.15 112.242C156.481 112.242 156.783 112.196 157.056 112.102C157.329 112.005 157.564 111.861 157.763 111.67C157.962 111.479 158.114 111.243 158.219 110.963L159.872 111.261C159.74 111.748 159.502 112.174 159.159 112.54C158.821 112.903 158.394 113.185 157.88 113.388C157.369 113.586 156.787 113.686 156.133 113.686Z" fill="#1A1A1A"></path><path d="M146.27 113.505V104.529H147.959V105.955H148.052C148.216 105.472 148.504 105.092 148.917 104.816C149.334 104.535 149.805 104.395 150.331 104.395C150.44 104.395 150.569 104.399 150.717 104.407C150.869 104.414 150.988 104.424 151.073 104.436V106.107C151.003 106.088 150.878 106.066 150.699 106.043C150.52 106.016 150.341 106.002 150.162 106.002C149.749 106.002 149.381 106.09 149.057 106.265C148.738 106.436 148.485 106.676 148.298 106.984C148.111 107.287 148.017 107.634 148.017 108.024V113.505H146.27Z" fill="#1A1A1A"></path><path d="M136.116 116.87V104.529H137.822V105.984H137.968C138.069 105.797 138.215 105.581 138.406 105.336C138.597 105.09 138.862 104.876 139.201 104.693C139.54 104.506 139.988 104.412 140.545 104.412C141.269 104.412 141.916 104.596 142.485 104.962C143.053 105.328 143.499 105.856 143.823 106.545C144.15 107.235 144.314 108.064 144.314 109.034C144.314 110.004 144.152 110.836 143.829 111.529C143.505 112.219 143.061 112.751 142.496 113.125C141.931 113.495 141.287 113.68 140.562 113.68C140.017 113.68 139.571 113.588 139.224 113.405C138.881 113.222 138.613 113.008 138.418 112.762C138.223 112.517 138.073 112.299 137.968 112.108H137.863V116.87H136.116ZM137.828 109.017C137.828 109.648 137.919 110.201 138.102 110.676C138.285 111.152 138.55 111.524 138.897 111.792C139.244 112.057 139.668 112.19 140.171 112.19C140.693 112.19 141.129 112.051 141.48 111.775C141.83 111.494 142.095 111.115 142.274 110.635C142.457 110.156 142.549 109.617 142.549 109.017C142.549 108.425 142.459 107.893 142.28 107.422C142.105 106.95 141.84 106.578 141.485 106.306C141.135 106.033 140.697 105.897 140.171 105.897C139.664 105.897 139.236 106.027 138.885 106.288C138.539 106.549 138.276 106.913 138.096 107.381C137.917 107.848 137.828 108.394 137.828 109.017Z" fill="#1A1A1A"></path><path d="M121.574 113.504V104.529H123.251V105.99H123.362C123.549 105.495 123.855 105.11 124.279 104.833C124.704 104.553 125.212 104.412 125.804 104.412C126.404 104.412 126.907 104.553 127.312 104.833C127.721 105.114 128.023 105.499 128.217 105.99H128.311C128.525 105.511 128.866 105.129 129.333 104.845C129.801 104.557 130.358 104.412 131.005 104.412C131.819 104.412 132.483 104.668 132.997 105.178C133.515 105.688 133.774 106.458 133.774 107.486V113.504H132.027V107.65C132.027 107.042 131.862 106.602 131.531 106.329C131.199 106.056 130.804 105.92 130.344 105.92C129.776 105.92 129.333 106.095 129.018 106.446C128.702 106.793 128.545 107.239 128.545 107.784V113.504H126.803V107.539C126.803 107.052 126.651 106.66 126.348 106.364C126.044 106.068 125.648 105.92 125.161 105.92C124.83 105.92 124.525 106.008 124.244 106.183C123.967 106.354 123.744 106.594 123.572 106.902C123.405 107.209 123.321 107.566 123.321 107.971V113.504H121.574Z" fill="#1A1A1A"></path><path d="M115.785 113.686C114.901 113.686 114.139 113.497 113.5 113.119C112.865 112.737 112.374 112.201 112.028 111.512C111.685 110.819 111.514 110.006 111.514 109.075C111.514 108.156 111.685 107.346 112.028 106.645C112.374 105.943 112.857 105.396 113.477 105.003C114.1 104.609 114.829 104.412 115.662 104.412C116.169 104.412 116.659 104.496 117.135 104.664C117.61 104.831 118.036 105.094 118.414 105.453C118.792 105.811 119.09 106.276 119.308 106.849C119.526 107.418 119.636 108.109 119.636 108.923V109.543H112.501V108.234H117.924C117.924 107.774 117.83 107.367 117.643 107.013C117.456 106.654 117.193 106.372 116.854 106.165C116.519 105.959 116.126 105.856 115.674 105.856C115.183 105.856 114.755 105.976 114.388 106.218C114.026 106.456 113.746 106.767 113.547 107.153C113.352 107.535 113.255 107.949 113.255 108.397V109.42C113.255 110.02 113.36 110.53 113.57 110.951C113.785 111.372 114.083 111.693 114.464 111.915C114.846 112.133 115.292 112.242 115.802 112.242C116.134 112.242 116.435 112.196 116.708 112.102C116.981 112.005 117.216 111.861 117.415 111.67C117.614 111.479 117.766 111.243 117.871 110.963L119.525 111.261C119.392 111.748 119.154 112.174 118.812 112.54C118.473 112.903 118.046 113.185 117.532 113.388C117.022 113.586 116.439 113.686 115.785 113.686Z" fill="#1A1A1A"></path><path d="M100.806 113.703C100.237 113.703 99.7227 113.598 99.2631 113.388C98.8034 113.173 98.4392 112.864 98.1704 112.458C97.9055 112.053 97.773 111.557 97.773 110.968C97.773 110.462 97.8704 110.045 98.0652 109.718C98.26 109.391 98.5229 109.132 98.854 108.941C99.1851 108.75 99.5552 108.606 99.9642 108.508C100.373 108.411 100.79 108.337 101.215 108.286C101.752 108.224 102.189 108.173 102.524 108.135C102.859 108.092 103.102 108.024 103.254 107.93C103.406 107.837 103.482 107.685 103.482 107.474V107.433C103.482 106.923 103.338 106.528 103.049 106.247C102.765 105.967 102.34 105.826 101.776 105.826C101.187 105.826 100.724 105.957 100.385 106.218C100.05 106.475 99.8182 106.761 99.6896 107.077L98.0477 106.703C98.2424 106.158 98.5268 105.717 98.9008 105.382C99.2786 105.043 99.713 104.798 100.204 104.646C100.695 104.49 101.211 104.412 101.752 104.412C102.111 104.412 102.49 104.455 102.892 104.541C103.297 104.623 103.675 104.775 104.025 104.997C104.38 105.219 104.67 105.536 104.896 105.949C105.122 106.358 105.235 106.89 105.235 107.544V113.504H103.529V112.277H103.458C103.346 112.503 103.176 112.725 102.95 112.943C102.724 113.162 102.434 113.343 102.079 113.487C101.725 113.631 101.3 113.703 100.806 113.703ZM101.185 112.301C101.669 112.301 102.081 112.205 102.424 112.014C102.771 111.824 103.034 111.574 103.213 111.266C103.396 110.955 103.488 110.622 103.488 110.267V109.11C103.425 109.173 103.305 109.231 103.125 109.286C102.95 109.336 102.749 109.381 102.524 109.42C102.298 109.455 102.078 109.488 101.863 109.519C101.649 109.547 101.47 109.57 101.326 109.589C100.987 109.632 100.677 109.704 100.397 109.806C100.12 109.907 99.898 110.053 99.7305 110.244C99.5669 110.431 99.4851 110.68 99.4851 110.992C99.4851 111.424 99.6448 111.751 99.9642 111.974C100.284 112.192 100.691 112.301 101.185 112.301Z" fill="#1A1A1A"></path><path d="M94.0934 109.782V104.529H95.8464V113.504H94.1285V111.95H94.035C93.8285 112.429 93.4974 112.828 93.0416 113.148C92.5898 113.463 92.0269 113.621 91.353 113.621C90.7764 113.621 90.2661 113.495 89.822 113.241C89.3819 112.984 89.0352 112.604 88.782 112.102C88.5326 111.599 88.408 110.978 88.408 110.238V104.529H90.1551V110.028C90.1551 110.639 90.3246 111.126 90.6635 111.488C91.0024 111.851 91.4426 112.032 91.984 112.032C92.3112 112.032 92.6365 111.95 92.9598 111.786C93.2871 111.623 93.5578 111.375 93.772 111.044C93.9902 110.713 94.0973 110.293 94.0934 109.782Z" fill="#1A1A1A"></path><path d="M84.4853 104.681C84.4229 104.128 84.1658 103.7 83.714 103.396C83.2621 103.088 82.6933 102.934 82.0077 102.934C81.5169 102.934 81.0923 103.012 80.7339 103.168C80.3755 103.32 80.097 103.53 79.8983 103.799C79.7036 104.064 79.6062 104.366 79.6062 104.705C79.6062 104.989 79.6724 105.234 79.8049 105.441C79.9412 105.647 80.1184 105.821 80.3366 105.961C80.5586 106.097 80.7963 106.212 81.0495 106.306C81.3027 106.395 81.5461 106.469 81.7799 106.528L82.9485 106.832C83.3303 106.925 83.7217 107.052 84.123 107.211C84.5242 107.371 84.8962 107.581 85.239 107.842C85.5818 108.103 85.8584 108.427 86.0688 108.812C86.283 109.198 86.3901 109.66 86.3901 110.197C86.3901 110.875 86.2148 111.477 85.8643 112.003C85.5176 112.529 85.0131 112.944 84.3509 113.247C83.6925 113.551 82.8959 113.703 81.961 113.703C81.065 113.703 80.2898 113.561 79.6354 113.277C78.981 112.992 78.4687 112.589 78.0986 112.067C77.7286 111.541 77.5241 110.918 77.4851 110.197H79.2965C79.3316 110.63 79.4718 110.99 79.7172 111.278C79.9665 111.563 80.284 111.775 80.6696 111.915C81.0592 112.051 81.4857 112.12 81.9493 112.12C82.4596 112.12 82.9134 112.04 83.3108 111.88C83.712 111.716 84.0275 111.491 84.2574 111.202C84.4872 110.91 84.6021 110.569 84.6021 110.18C84.6021 109.825 84.5008 109.535 84.2983 109.309C84.0996 109.083 83.8289 108.896 83.4861 108.748C83.1472 108.6 82.7635 108.47 82.335 108.357L80.9209 107.971C79.9626 107.71 79.203 107.326 78.6421 106.82C78.085 106.313 77.8065 105.643 77.8065 104.81C77.8065 104.12 77.9935 103.518 78.3674 103.004C78.7414 102.49 79.2478 102.091 79.8867 101.806C80.5255 101.518 81.2462 101.374 82.0486 101.374C82.8589 101.374 83.5737 101.516 84.1931 101.801C84.8164 102.085 85.3072 102.476 85.6656 102.975C86.024 103.47 86.2109 104.039 86.2265 104.681H84.4853Z" fill="#1A1A1A"></path><path d="M603.909 103.214V115.181H602.162V103.214H603.909Z" fill="#1A1A1A"></path><path d="M596.372 115.362C595.488 115.362 594.726 115.173 594.087 114.796C593.452 114.414 592.962 113.878 592.615 113.189C592.272 112.495 592.101 111.683 592.101 110.752C592.101 109.833 592.272 109.023 592.615 108.321C592.962 107.62 593.445 107.073 594.064 106.679C594.687 106.286 595.416 106.089 596.249 106.089C596.756 106.089 597.247 106.173 597.722 106.34C598.197 106.508 598.624 106.771 599.001 107.129C599.379 107.488 599.677 107.953 599.895 108.526C600.114 109.095 600.223 109.786 600.223 110.6V111.22H593.088V109.911H598.511C598.511 109.451 598.417 109.044 598.23 108.689C598.043 108.331 597.78 108.049 597.441 107.842C597.106 107.636 596.713 107.533 596.261 107.533C595.77 107.533 595.342 107.653 594.975 107.895C594.613 108.132 594.333 108.444 594.134 108.83C593.939 109.211 593.842 109.626 593.842 110.074V111.097C593.842 111.697 593.947 112.207 594.157 112.628C594.372 113.048 594.67 113.37 595.051 113.592C595.433 113.81 595.879 113.919 596.39 113.919C596.721 113.919 597.023 113.872 597.295 113.779C597.568 113.681 597.804 113.537 598.002 113.346C598.201 113.156 598.353 112.92 598.458 112.639L600.112 112.937C599.979 113.424 599.742 113.851 599.399 114.217C599.06 114.579 598.633 114.862 598.119 115.064C597.609 115.263 597.026 115.362 596.372 115.362Z" fill="#1A1A1A"></path><path d="M582.345 115.181V103.214H584.092V107.661H584.197C584.298 107.474 584.444 107.258 584.635 107.012C584.826 106.767 585.091 106.553 585.43 106.37C585.769 106.183 586.217 106.089 586.774 106.089C587.498 106.089 588.145 106.272 588.714 106.639C589.283 107.005 589.729 107.533 590.052 108.222C590.379 108.912 590.543 109.741 590.543 110.711C590.543 111.681 590.381 112.513 590.058 113.206C589.734 113.896 589.29 114.428 588.726 114.801C588.161 115.172 587.516 115.357 586.791 115.357C586.246 115.357 585.8 115.265 585.453 115.082C585.111 114.899 584.842 114.685 584.647 114.439C584.452 114.194 584.302 113.976 584.197 113.785H584.051V115.181H582.345ZM584.057 110.694C584.057 111.325 584.148 111.878 584.331 112.353C584.515 112.828 584.779 113.2 585.126 113.469C585.473 113.734 585.897 113.867 586.4 113.867C586.922 113.867 587.358 113.728 587.709 113.452C588.059 113.171 588.324 112.791 588.503 112.312C588.687 111.833 588.778 111.294 588.778 110.694C588.778 110.102 588.688 109.57 588.509 109.099C588.334 108.627 588.069 108.255 587.715 107.982C587.364 107.71 586.926 107.573 586.4 107.573C585.894 107.573 585.465 107.704 585.114 107.965C584.768 108.226 584.505 108.59 584.326 109.058C584.146 109.525 584.057 110.07 584.057 110.694Z" fill="#1A1A1A"></path><path d="M575.448 115.38C574.88 115.38 574.366 115.275 573.906 115.064C573.446 114.85 573.082 114.54 572.813 114.135C572.548 113.73 572.416 113.234 572.416 112.645C572.416 112.139 572.513 111.722 572.708 111.395C572.903 111.068 573.166 110.809 573.497 110.618C573.828 110.427 574.198 110.283 574.607 110.185C575.016 110.088 575.433 110.014 575.857 109.963C576.395 109.901 576.831 109.85 577.166 109.811C577.501 109.768 577.745 109.7 577.897 109.607C578.049 109.513 578.125 109.361 578.125 109.151V109.11C578.125 108.6 577.981 108.204 577.692 107.924C577.408 107.644 576.983 107.503 576.418 107.503C575.83 107.503 575.367 107.634 575.028 107.895C574.693 108.152 574.461 108.438 574.332 108.754L572.69 108.38C572.885 107.834 573.17 107.394 573.544 107.059C573.921 106.72 574.356 106.475 574.847 106.323C575.337 106.167 575.854 106.089 576.395 106.089C576.753 106.089 577.133 106.132 577.534 106.218C577.94 106.3 578.317 106.452 578.668 106.674C579.023 106.896 579.313 107.213 579.539 107.626C579.765 108.035 579.878 108.567 579.878 109.221V115.181H578.171V113.954H578.101C577.988 114.18 577.819 114.402 577.593 114.62C577.367 114.838 577.077 115.02 576.722 115.164C576.368 115.308 575.943 115.38 575.448 115.38ZM575.828 113.978C576.311 113.978 576.724 113.882 577.067 113.691C577.414 113.5 577.677 113.251 577.856 112.943C578.039 112.632 578.13 112.299 578.13 111.944V110.787C578.068 110.849 577.947 110.908 577.768 110.962C577.593 111.013 577.392 111.058 577.166 111.097C576.94 111.132 576.72 111.165 576.506 111.196C576.292 111.223 576.113 111.247 575.969 111.266C575.63 111.309 575.32 111.381 575.039 111.483C574.763 111.584 574.541 111.73 574.373 111.921C574.21 112.108 574.128 112.357 574.128 112.669C574.128 113.101 574.288 113.428 574.607 113.65C574.926 113.868 575.334 113.978 575.828 113.978Z" fill="#1A1A1A"></path><path d="M563.689 115.181V103.214H565.494V113.627H570.917V115.181H563.689Z" fill="#1A1A1A"></path><path d="M553.404 115.362C552.52 115.362 551.758 115.173 551.119 114.796C550.484 114.414 549.993 113.878 549.647 113.189C549.304 112.495 549.133 111.683 549.133 110.752C549.133 109.833 549.304 109.023 549.647 108.321C549.993 107.62 550.477 107.073 551.096 106.679C551.719 106.286 552.448 106.089 553.281 106.089C553.788 106.089 554.279 106.173 554.754 106.34C555.229 106.508 555.656 106.771 556.033 107.129C556.411 107.488 556.709 107.953 556.927 108.526C557.146 109.095 557.255 109.786 557.255 110.6V111.22H550.12V109.911H555.543C555.543 109.451 555.449 109.044 555.262 108.689C555.075 108.331 554.812 108.049 554.473 107.842C554.138 107.636 553.745 107.533 553.293 107.533C552.802 107.533 552.374 107.653 552.007 107.895C551.645 108.132 551.365 108.444 551.166 108.83C550.971 109.211 550.874 109.626 550.874 110.074V111.097C550.874 111.697 550.979 112.207 551.189 112.628C551.404 113.048 551.702 113.37 552.083 113.592C552.465 113.81 552.911 113.919 553.422 113.919C553.753 113.919 554.055 113.872 554.327 113.779C554.6 113.681 554.836 113.537 555.034 113.346C555.233 113.156 555.385 112.92 555.49 112.639L557.144 112.937C557.011 113.424 556.774 113.851 556.431 114.217C556.092 114.579 555.665 114.862 555.151 115.064C554.641 115.263 554.058 115.362 553.404 115.362Z" fill="#1A1A1A"></path><path d="M547.7 106.206V107.608H542.797V106.206H547.7ZM544.112 104.056H545.859V112.546C545.859 112.885 545.91 113.14 546.011 113.311C546.113 113.479 546.243 113.594 546.403 113.656C546.566 113.715 546.744 113.744 546.934 113.744C547.075 113.744 547.197 113.734 547.303 113.715C547.408 113.695 547.49 113.68 547.548 113.668L547.864 115.111C547.762 115.15 547.618 115.189 547.431 115.228C547.244 115.271 547.01 115.294 546.73 115.298C546.27 115.306 545.842 115.224 545.444 115.053C545.047 114.881 544.726 114.616 544.48 114.258C544.235 113.9 544.112 113.45 544.112 112.908V104.056Z" fill="#1A1A1A"></path><path d="M539.412 115.181V106.206H541.159V115.181H539.412ZM540.294 104.821C539.99 104.821 539.729 104.72 539.511 104.517C539.297 104.311 539.19 104.066 539.19 103.781C539.19 103.493 539.297 103.247 539.511 103.045C539.729 102.838 539.99 102.735 540.294 102.735C540.598 102.735 540.857 102.838 541.071 103.045C541.289 103.247 541.398 103.493 541.398 103.781C541.398 104.066 541.289 104.311 541.071 104.517C540.857 104.72 540.598 104.821 540.294 104.821Z" fill="#1A1A1A"></path><path d="M531.261 109.852V115.181H529.514V103.214H531.238V107.667H531.349C531.559 107.184 531.88 106.8 532.313 106.516C532.745 106.231 533.31 106.089 534.007 106.089C534.623 106.089 535.16 106.216 535.62 106.469C536.084 106.722 536.442 107.1 536.695 107.603C536.952 108.101 537.081 108.725 537.081 109.472V115.181H535.334V109.683C535.334 109.025 535.164 108.514 534.825 108.152C534.486 107.786 534.015 107.603 533.411 107.603C532.998 107.603 532.628 107.69 532.301 107.866C531.978 108.041 531.723 108.298 531.536 108.637C531.353 108.972 531.261 109.377 531.261 109.852Z" fill="#1A1A1A"></path><path d="M515.913 115.181L512.594 103.214H514.493L516.825 112.482H516.936L519.36 103.214H521.242L523.667 112.488H523.778L526.104 103.214H528.008L524.684 115.181H522.866L520.348 106.218H520.254L517.736 115.181H515.913Z" fill="#1A1A1A"></path><path d="M501.391 106.206L503.372 109.7L505.37 106.206H507.281L504.482 110.694L507.304 115.181H505.394L503.372 111.827L501.356 115.181H499.439L502.232 110.694L499.474 106.206H501.391Z" fill="#1A1A1A"></path><path d="M494.431 115.362C493.547 115.362 492.786 115.173 492.147 114.796C491.512 114.414 491.021 113.878 490.674 113.189C490.331 112.495 490.16 111.683 490.16 110.752C490.16 109.833 490.331 109.023 490.674 108.321C491.021 107.62 491.504 107.073 492.123 106.679C492.747 106.286 493.475 106.089 494.309 106.089C494.815 106.089 495.306 106.173 495.781 106.34C496.256 106.508 496.683 106.771 497.061 107.129C497.439 107.488 497.737 107.953 497.955 108.526C498.173 109.095 498.282 109.786 498.282 110.6V111.22H491.148V109.911H496.57C496.57 109.451 496.477 109.044 496.29 108.689C496.103 108.331 495.84 108.049 495.501 107.842C495.166 107.636 494.772 107.533 494.32 107.533C493.83 107.533 493.401 107.653 493.035 107.895C492.673 108.132 492.392 108.444 492.194 108.83C491.999 109.211 491.901 109.626 491.901 110.074V111.097C491.901 111.697 492.007 112.207 492.217 112.628C492.431 113.048 492.729 113.37 493.111 113.592C493.493 113.81 493.939 113.919 494.449 113.919C494.78 113.919 495.082 113.872 495.355 113.779C495.627 113.681 495.863 113.537 496.062 113.346C496.26 113.156 496.412 112.92 496.517 112.639L498.171 112.937C498.039 113.424 497.801 113.851 497.458 114.217C497.119 114.579 496.693 114.862 496.179 115.064C495.668 115.263 495.086 115.362 494.431 115.362Z" fill="#1A1A1A"></path><path d="M476.021 115.181V106.206H477.698V107.667H477.809C477.996 107.172 478.302 106.787 478.726 106.51C479.151 106.229 479.659 106.089 480.251 106.089C480.851 106.089 481.354 106.229 481.759 106.51C482.168 106.79 482.47 107.176 482.665 107.667H482.758C482.972 107.188 483.313 106.806 483.781 106.522C484.248 106.233 484.805 106.089 485.452 106.089C486.266 106.089 486.93 106.344 487.444 106.855C487.962 107.365 488.222 108.134 488.222 109.163V115.181H486.474V109.326C486.474 108.719 486.309 108.278 485.978 108.006C485.647 107.733 485.251 107.597 484.792 107.597C484.223 107.597 483.781 107.772 483.465 108.123C483.15 108.469 482.992 108.915 482.992 109.461V115.181H481.251V109.215C481.251 108.728 481.099 108.337 480.795 108.041C480.491 107.745 480.096 107.597 479.609 107.597C479.278 107.597 478.972 107.684 478.691 107.86C478.415 108.031 478.191 108.271 478.019 108.578C477.852 108.886 477.768 109.243 477.768 109.648V115.181H476.021Z" fill="#1A1A1A"></path><path d="M465.861 115.181V103.214H467.608V107.661H467.713C467.814 107.474 467.96 107.258 468.151 107.012C468.342 106.767 468.607 106.553 468.946 106.37C469.285 106.183 469.733 106.089 470.29 106.089C471.015 106.089 471.661 106.272 472.23 106.639C472.799 107.005 473.245 107.533 473.568 108.222C473.895 108.912 474.059 109.741 474.059 110.711C474.059 111.681 473.897 112.513 473.574 113.206C473.251 113.896 472.806 114.428 472.242 114.801C471.677 115.172 471.032 115.357 470.307 115.357C469.762 115.357 469.316 115.265 468.969 115.082C468.627 114.899 468.358 114.685 468.163 114.439C467.968 114.194 467.818 113.976 467.713 113.785H467.567V115.181H465.861ZM467.573 110.694C467.573 111.325 467.664 111.878 467.848 112.353C468.031 112.828 468.295 113.2 468.642 113.469C468.989 113.734 469.413 113.867 469.916 113.867C470.438 113.867 470.874 113.728 471.225 113.452C471.575 113.171 471.84 112.791 472.02 112.312C472.203 111.833 472.294 111.294 472.294 110.694C472.294 110.102 472.205 109.57 472.025 109.099C471.85 108.627 471.585 108.255 471.231 107.982C470.88 107.71 470.442 107.573 469.916 107.573C469.41 107.573 468.981 107.704 468.631 107.965C468.284 108.226 468.021 108.59 467.842 109.058C467.662 109.525 467.573 110.07 467.573 110.694Z" fill="#1A1A1A"></path><path d="M455.351 115.181H453.434L457.741 103.214H459.827L464.133 115.181H462.217L458.834 105.388H458.74L455.351 115.181ZM455.672 110.495H461.889V112.014H455.672V110.495Z" fill="#1A1A1A"></path><path d="M974.799 116.707C974.538 116.707 974.301 116.685 974.087 116.642C973.872 116.604 973.713 116.561 973.607 116.514L974.028 115.082C974.348 115.168 974.632 115.205 974.881 115.193C975.131 115.182 975.351 115.088 975.542 114.913C975.736 114.738 975.908 114.451 976.056 114.054L976.272 113.458L972.988 104.366H974.858L977.131 111.331H977.224L979.497 104.366H981.373L977.674 114.539C977.503 115.006 977.285 115.402 977.02 115.725C976.755 116.052 976.439 116.298 976.073 116.461C975.707 116.625 975.282 116.707 974.799 116.707Z" fill="#1A1A1A"></path><path d="M966.752 113.516C966.028 113.516 965.381 113.331 964.812 112.961C964.248 112.587 963.803 112.055 963.48 111.366C963.161 110.672 963.001 109.841 963.001 108.871C963.001 107.901 963.163 107.071 963.486 106.382C963.813 105.692 964.261 105.164 964.83 104.798C965.399 104.432 966.043 104.249 966.764 104.249C967.321 104.249 967.769 104.342 968.108 104.529C968.451 104.712 968.716 104.927 968.903 105.172C969.093 105.417 969.242 105.634 969.347 105.821H969.452V101.374H971.199V113.341H969.493V111.944H969.347C969.242 112.135 969.09 112.353 968.891 112.599C968.696 112.844 968.427 113.058 968.085 113.241C967.742 113.425 967.298 113.516 966.752 113.516ZM967.138 112.026C967.64 112.026 968.065 111.894 968.412 111.629C968.762 111.36 969.027 110.988 969.206 110.513C969.39 110.037 969.481 109.484 969.481 108.853C969.481 108.23 969.391 107.685 969.212 107.217C969.033 106.75 968.77 106.385 968.423 106.124C968.077 105.863 967.648 105.733 967.138 105.733C966.612 105.733 966.174 105.869 965.823 106.142C965.473 106.415 965.208 106.787 965.029 107.258C964.853 107.729 964.766 108.261 964.766 108.853C964.766 109.453 964.855 109.993 965.034 110.472C965.214 110.951 965.478 111.331 965.829 111.611C966.184 111.888 966.62 112.026 967.138 112.026Z" fill="#1A1A1A"></path><path d="M956.635 113.54C956.066 113.54 955.552 113.434 955.092 113.224C954.632 113.01 954.268 112.7 953.999 112.295C953.735 111.89 953.602 111.393 953.602 110.805C953.602 110.299 953.699 109.882 953.894 109.555C954.089 109.227 954.352 108.968 954.683 108.777C955.014 108.587 955.384 108.442 955.793 108.345C956.202 108.248 956.619 108.174 957.044 108.123C957.581 108.061 958.018 108.01 958.353 107.971C958.688 107.928 958.931 107.86 959.083 107.767C959.235 107.673 959.311 107.521 959.311 107.311V107.27C959.311 106.76 959.167 106.364 958.879 106.084C958.594 105.803 958.17 105.663 957.605 105.663C957.016 105.663 956.553 105.793 956.214 106.054C955.879 106.312 955.647 106.598 955.519 106.913L953.877 106.539C954.072 105.994 954.356 105.554 954.73 105.219C955.108 104.88 955.542 104.635 956.033 104.483C956.524 104.327 957.04 104.249 957.581 104.249C957.94 104.249 958.32 104.292 958.721 104.377C959.126 104.459 959.504 104.611 959.854 104.833C960.209 105.055 960.499 105.373 960.725 105.786C960.951 106.195 961.064 106.726 961.064 107.381V113.341H959.358V112.114H959.288C959.175 112.34 959.005 112.562 958.779 112.78C958.553 112.998 958.263 113.179 957.909 113.323C957.554 113.468 957.129 113.54 956.635 113.54ZM957.015 112.137C957.498 112.137 957.91 112.042 958.253 111.851C958.6 111.66 958.863 111.411 959.042 111.103C959.225 110.791 959.317 110.458 959.317 110.104V108.947C959.254 109.009 959.134 109.068 958.954 109.122C958.779 109.173 958.579 109.218 958.353 109.257C958.127 109.292 957.907 109.325 957.692 109.356C957.478 109.383 957.299 109.406 957.155 109.426C956.816 109.469 956.506 109.541 956.226 109.642C955.949 109.743 955.727 109.89 955.56 110.08C955.396 110.267 955.314 110.517 955.314 110.828C955.314 111.261 955.474 111.588 955.793 111.81C956.113 112.028 956.52 112.137 957.015 112.137Z" fill="#1A1A1A"></path><path d="M948.236 113.522C947.351 113.522 946.59 113.333 945.951 112.955C945.316 112.574 944.825 112.038 944.478 111.348C944.136 110.655 943.964 109.843 943.964 108.912C943.964 107.992 944.136 107.182 944.478 106.481C944.825 105.78 945.308 105.233 945.927 104.839C946.551 104.446 947.279 104.249 948.113 104.249C948.619 104.249 949.11 104.333 949.585 104.5C950.061 104.668 950.487 104.931 950.865 105.289C951.243 105.647 951.541 106.113 951.759 106.686C951.977 107.254 952.086 107.946 952.086 108.76V109.379H944.952V108.07H950.374C950.374 107.611 950.281 107.204 950.094 106.849C949.907 106.491 949.644 106.208 949.305 106.002C948.97 105.795 948.576 105.692 948.125 105.692C947.634 105.692 947.205 105.813 946.839 106.054C946.477 106.292 946.196 106.604 945.998 106.989C945.803 107.371 945.705 107.786 945.705 108.234V109.257C945.705 109.856 945.811 110.367 946.021 110.787C946.235 111.208 946.533 111.53 946.915 111.752C947.297 111.97 947.743 112.079 948.253 112.079C948.584 112.079 948.886 112.032 949.159 111.939C949.431 111.841 949.667 111.697 949.866 111.506C950.064 111.315 950.216 111.08 950.322 110.799L951.975 111.097C951.843 111.584 951.605 112.011 951.262 112.377C950.923 112.739 950.497 113.021 949.983 113.224C949.472 113.423 948.89 113.522 948.236 113.522Z" fill="#1A1A1A"></path><path d="M938.375 113.341V104.366H940.063V105.792H940.157C940.32 105.309 940.609 104.929 941.022 104.652C941.438 104.372 941.91 104.232 942.436 104.232C942.545 104.232 942.673 104.235 942.821 104.243C942.973 104.251 943.092 104.261 943.178 104.272V105.944C943.108 105.924 942.983 105.903 942.804 105.879C942.625 105.852 942.445 105.838 942.266 105.838C941.853 105.838 941.485 105.926 941.162 106.101C940.842 106.273 940.589 106.512 940.402 106.82C940.215 107.124 940.122 107.471 940.122 107.86V113.341H938.375Z" fill="#1A1A1A"></path><path d="M932.087 104.366V105.768H927.184V104.366H932.087ZM928.499 102.215H930.246V110.706C930.246 111.044 930.297 111.3 930.398 111.471C930.499 111.639 930.63 111.753 930.79 111.816C930.953 111.874 931.13 111.903 931.321 111.903C931.462 111.903 931.584 111.894 931.689 111.874C931.795 111.855 931.876 111.839 931.935 111.827L932.25 113.271C932.149 113.31 932.005 113.349 931.818 113.388C931.631 113.43 931.397 113.454 931.117 113.458C930.657 113.465 930.229 113.384 929.831 113.212C929.434 113.041 929.113 112.776 928.867 112.418C928.622 112.059 928.499 111.609 928.499 111.068V102.215Z" fill="#1A1A1A"></path><path d="M922.107 113.522C921.223 113.522 920.461 113.333 919.822 112.955C919.188 112.574 918.697 112.038 918.35 111.348C918.007 110.655 917.836 109.843 917.836 108.912C917.836 107.992 918.007 107.182 918.35 106.481C918.697 105.78 919.18 105.233 919.799 104.839C920.422 104.446 921.151 104.249 921.984 104.249C922.491 104.249 922.982 104.333 923.457 104.5C923.932 104.668 924.359 104.931 924.737 105.289C925.114 105.647 925.412 106.113 925.631 106.686C925.849 107.254 925.958 107.946 925.958 108.76V109.379H918.823V108.07H924.246C924.246 107.611 924.152 107.204 923.965 106.849C923.778 106.491 923.515 106.208 923.176 106.002C922.841 105.795 922.448 105.692 921.996 105.692C921.505 105.692 921.077 105.813 920.711 106.054C920.348 106.292 920.068 106.604 919.869 106.989C919.674 107.371 919.577 107.786 919.577 108.234V109.257C919.577 109.856 919.682 110.367 919.893 110.787C920.107 111.208 920.405 111.53 920.787 111.752C921.168 111.97 921.614 112.079 922.125 112.079C922.456 112.079 922.758 112.032 923.03 111.939C923.303 111.841 923.539 111.697 923.737 111.506C923.936 111.315 924.088 111.08 924.193 110.799L925.847 111.097C925.714 111.584 925.477 112.011 925.134 112.377C924.795 112.739 924.368 113.021 923.854 113.224C923.344 113.423 922.762 113.522 922.107 113.522Z" fill="#1A1A1A"></path><path d="M911.058 110.297L911.047 108.164H911.35L914.926 104.366H917.018L912.94 108.69H912.665L911.058 110.297ZM909.451 113.341V101.374H911.198V113.341H909.451ZM915.119 113.341L911.905 109.075L913.109 107.854L917.264 113.341H915.119Z" fill="#1A1A1A"></path><path d="M903.137 113.341V104.366H904.825V105.792H904.919C905.082 105.309 905.371 104.929 905.784 104.652C906.2 104.372 906.672 104.232 907.198 104.232C907.307 104.232 907.435 104.235 907.583 104.243C907.735 104.251 907.854 104.261 907.94 104.272V105.944C907.87 105.924 907.745 105.903 907.566 105.879C907.387 105.852 907.207 105.838 907.028 105.838C906.615 105.838 906.247 105.926 905.924 106.101C905.604 106.273 905.351 106.512 905.164 106.82C904.977 107.124 904.884 107.471 904.884 107.86V113.341H903.137Z" fill="#1A1A1A"></path><path d="M896.379 113.54C895.81 113.54 895.296 113.434 894.836 113.224C894.377 113.01 894.012 112.7 893.744 112.295C893.479 111.89 893.346 111.393 893.346 110.805C893.346 110.299 893.444 109.882 893.638 109.555C893.833 109.227 894.096 108.968 894.427 108.777C894.758 108.587 895.128 108.442 895.537 108.345C895.946 108.248 896.363 108.174 896.788 108.123C897.325 108.061 897.762 108.01 898.097 107.971C898.432 107.928 898.675 107.86 898.827 107.767C898.979 107.673 899.055 107.521 899.055 107.311V107.27C899.055 106.76 898.911 106.364 898.623 106.084C898.338 105.803 897.914 105.663 897.349 105.663C896.761 105.663 896.297 105.793 895.958 106.054C895.623 106.312 895.391 106.598 895.263 106.913L893.621 106.539C893.816 105.994 894.1 105.554 894.474 105.219C894.852 104.88 895.286 104.635 895.777 104.483C896.268 104.327 896.784 104.249 897.325 104.249C897.684 104.249 898.064 104.292 898.465 104.377C898.87 104.459 899.248 104.611 899.598 104.833C899.953 105.055 900.243 105.373 900.469 105.786C900.695 106.195 900.808 106.726 900.808 107.381V113.341H899.102V112.114H899.032C898.919 112.34 898.749 112.562 898.523 112.78C898.297 112.998 898.007 113.179 897.653 113.323C897.298 113.468 896.874 113.54 896.379 113.54ZM896.759 112.137C897.242 112.137 897.655 112.042 897.997 111.851C898.344 111.66 898.607 111.411 898.786 111.103C898.969 110.791 899.061 110.458 899.061 110.104V108.947C898.999 109.009 898.878 109.068 898.699 109.122C898.523 109.173 898.323 109.218 898.097 109.257C897.871 109.292 897.651 109.325 897.436 109.356C897.222 109.383 897.043 109.406 896.899 109.426C896.56 109.469 896.25 109.541 895.97 109.642C895.693 109.743 895.471 109.89 895.304 110.08C895.14 110.267 895.058 110.517 895.058 110.828C895.058 111.261 895.218 111.588 895.537 111.81C895.857 112.028 896.264 112.137 896.759 112.137Z" fill="#1A1A1A"></path><path d="M879.141 101.374H881.332L885.142 110.676H885.282L889.092 101.374H891.283V113.341H889.565V104.681H889.454L885.925 113.323H884.499L880.97 104.675H880.859V113.341H879.141V101.374Z" fill="#1A1A1A"></path><path fill-rule="evenodd" clip-rule="evenodd" d="M448.301 109.377H209.539V108.043H448.301V109.377Z" fill="#FF7A01"></path><path fill-rule="evenodd" clip-rule="evenodd" d="M448.301 109.377H209.539V108.043H448.301V109.377Z" fill="black" fill-opacity="0.2"></path><path fill-rule="evenodd" clip-rule="evenodd" d="M264.228 26.6774H209.539V25.3435H264.228V26.6774Z" fill="#EFE6DF"></path><path fill-rule="evenodd" clip-rule="evenodd" d="M373.606 26.6774H364.269V25.3435H373.606V26.6774Z" fill="#EFE6DF"></path><path fill-rule="evenodd" clip-rule="evenodd" d="M484.316 26.6774H473.645V25.3435H484.316V26.6774Z" fill="#EFE6DF"></path><path fill-rule="evenodd" clip-rule="evenodd" d="M593.694 26.6774H583.023V25.3435H593.694V26.6774Z" fill="#EFE6DF"></path><path fill-rule="evenodd" clip-rule="evenodd" d="M703.071 26.6774H693.734V25.3435H703.071V26.6774Z" fill="#EFE6DF"></path><path fill-rule="evenodd" clip-rule="evenodd" d="M857.799 26.6774H803.11V25.3435H857.799V26.6774Z" fill="#EFE6DF"></path><path fill-rule="evenodd" clip-rule="evenodd" d="M848.463 109.377L611.034 109.377L611.034 108.043L848.463 108.043L848.463 109.377Z" fill="#FF7A01"></path><path fill-rule="evenodd" clip-rule="evenodd" d="M848.463 109.377L611.034 109.377L611.034 108.043L848.463 108.043L848.463 109.377Z" fill="black" fill-opacity="0.2"></path></svg>