<svg xmlns="http://www.w3.org/2000/svg" width="65" height="65" viewBox="0 0 65 65" fill="none"><path d="M1 12.7998C1 6.44853 6.14873 1.2998 12.5 1.2998H52.6396C58.9909 1.2998 64.1396 6.44853 64.1396 12.7998V52.9395C64.1396 59.2907 58.9909 64.4395 52.6396 64.4395H1V12.7998Z" stroke="#FF7A01"></path><path d="M1 12.7998C1 6.44853 6.14873 1.2998 12.5 1.2998H52.6396C58.9909 1.2998 64.1396 6.44853 64.1396 12.7998V52.9395C64.1396 59.2907 58.9909 64.4395 52.6396 64.4395H1V12.7998Z" stroke="black" stroke-opacity="0.2"></path><g clip-path="url(#clip0_343_3428)"><path d="M47.5 42.7998H19.5V25.7998C19.5 25.5346 19.6054 25.2802 19.7929 25.0927C19.9804 24.9052 20.2348 24.7998 20.5 24.7998H24.02C24.2852 24.7998 24.5396 24.6944 24.7271 24.5069C24.9146 24.3194 25.02 24.065 25.02 23.7998C25.02 23.5346 24.9146 23.2802 24.7271 23.0927C24.5396 22.9052 24.2852 22.7998 24.02 22.7998H20.5C19.7044 22.7998 18.9413 23.1159 18.3787 23.6785C17.8161 24.2411 17.5 25.0042 17.5 25.7998V42.7998C17.2348 42.7998 16.9804 42.9052 16.7929 43.0927C16.6054 43.2802 16.5 43.5346 16.5 43.7998V45.7998C16.5 46.5955 16.8161 47.3585 17.3787 47.9211C17.9413 48.4837 18.7044 48.7998 19.5 48.7998H45.5C46.2956 48.7998 47.0587 48.4837 47.6213 47.9211C48.1839 47.3585 48.5 46.5955 48.5 45.7998V43.7998C48.5 43.5346 48.3946 43.2802 48.2071 43.0927C48.0196 42.9052 47.7652 42.7998 47.5 42.7998ZM46.5 45.7998C46.5 46.065 46.3946 46.3194 46.2071 46.5069C46.0196 46.6944 45.7652 46.7998 45.5 46.7998H19.5C19.2348 46.7998 18.9804 46.6944 18.7929 46.5069C18.6054 46.3194 18.5 46.065 18.5 45.7998V44.7998H46.5V45.7998Z" fill="#FF7A01"></path><path d="M47.5 42.7998H19.5V25.7998C19.5 25.5346 19.6054 25.2802 19.7929 25.0927C19.9804 24.9052 20.2348 24.7998 20.5 24.7998H24.02C24.2852 24.7998 24.5396 24.6944 24.7271 24.5069C24.9146 24.3194 25.02 24.065 25.02 23.7998C25.02 23.5346 24.9146 23.2802 24.7271 23.0927C24.5396 22.9052 24.2852 22.7998 24.02 22.7998H20.5C19.7044 22.7998 18.9413 23.1159 18.3787 23.6785C17.8161 24.2411 17.5 25.0042 17.5 25.7998V42.7998C17.2348 42.7998 16.9804 42.9052 16.7929 43.0927C16.6054 43.2802 16.5 43.5346 16.5 43.7998V45.7998C16.5 46.5955 16.8161 47.3585 17.3787 47.9211C17.9413 48.4837 18.7044 48.7998 19.5 48.7998H45.5C46.2956 48.7998 47.0587 48.4837 47.6213 47.9211C48.1839 47.3585 48.5 46.5955 48.5 45.7998V43.7998C48.5 43.5346 48.3946 43.2802 48.2071 43.0927C48.0196 42.9052 47.7652 42.7998 47.5 42.7998ZM46.5 45.7998C46.5 46.065 46.3946 46.3194 46.2071 46.5069C46.0196 46.6944 45.7652 46.7998 45.5 46.7998H19.5C19.2348 46.7998 18.9804 46.6944 18.7929 46.5069C18.6054 46.3194 18.5 46.065 18.5 45.7998V44.7998H46.5V45.7998Z" fill="black" fill-opacity="0.2"></path><path d="M46.5 40.7998C46.2348 40.7998 45.9804 40.6944 45.7929 40.5069C45.6054 40.3194 45.5 40.065 45.5 39.7998V25.7998C45.5 25.5346 45.3947 25.2802 45.2071 25.0927C45.0196 24.9052 44.7652 24.7998 44.5 24.7998H40.98C40.7148 24.7998 40.4604 24.6944 40.2729 24.5069C40.0854 24.3194 39.98 24.065 39.98 23.7998C39.98 23.5346 40.0854 23.2802 40.2729 23.0927C40.4604 22.9052 40.7148 22.7998 40.98 22.7998H44.5C45.2957 22.7998 46.0587 23.1159 46.6213 23.6785C47.1839 24.2411 47.5 25.0042 47.5 25.7998V39.7998C47.5 40.065 47.3947 40.3194 47.2071 40.5069C47.0196 40.6944 46.7652 40.7998 46.5 40.7998Z" fill="#FF7A01"></path><path d="M46.5 40.7998C46.2348 40.7998 45.9804 40.6944 45.7929 40.5069C45.6054 40.3194 45.5 40.065 45.5 39.7998V25.7998C45.5 25.5346 45.3947 25.2802 45.2071 25.0927C45.0196 24.9052 44.7652 24.7998 44.5 24.7998H40.98C40.7148 24.7998 40.4604 24.6944 40.2729 24.5069C40.0854 24.3194 39.98 24.065 39.98 23.7998C39.98 23.5346 40.0854 23.2802 40.2729 23.0927C40.4604 22.9052 40.7148 22.7998 40.98 22.7998H44.5C45.2957 22.7998 46.0587 23.1159 46.6213 23.6785C47.1839 24.2411 47.5 25.0042 47.5 25.7998V39.7998C47.5 40.065 47.3947 40.3194 47.2071 40.5069C47.0196 40.6944 46.7652 40.7998 46.5 40.7998Z" fill="black" fill-opacity="0.2"></path><path d="M32.5 25.7998C32.2348 25.7998 31.9804 25.6944 31.7929 25.5069C31.6054 25.3194 31.5 25.065 31.5 24.7998C31.5 24.5346 31.6054 24.2802 31.7929 24.0927C31.9804 23.9052 32.2348 23.7998 32.5 23.7998H34.5C34.7652 23.7998 35.0196 23.6944 35.2071 23.5069C35.3946 23.3194 35.5 23.065 35.5 22.7998C35.5 22.5346 35.3946 22.2802 35.2071 22.0927C35.0196 21.9052 34.7652 21.7998 34.5 21.7998H33.5C33.5 21.5346 33.3946 21.2802 33.2071 21.0927C33.0196 20.9052 32.7652 20.7998 32.5 20.7998C32.2348 20.7998 31.9804 20.9052 31.7929 21.0927C31.6054 21.2802 31.5 21.5346 31.5 21.7998V21.9798C30.8386 22.2198 30.2826 22.6846 29.9292 23.2929C29.5758 23.9013 29.4475 24.6145 29.5666 25.3079C29.6857 26.0013 30.0448 26.6308 30.581 27.0863C31.1172 27.5418 31.7965 27.7943 32.5 27.7998C32.7652 27.7998 33.0196 27.9052 33.2071 28.0927C33.3946 28.2802 33.5 28.5346 33.5 28.7998C33.5 29.065 33.3946 29.3194 33.2071 29.5069C33.0196 29.6944 32.7652 29.7998 32.5 29.7998H30.5C30.2348 29.7998 29.9804 29.9052 29.7929 30.0927C29.6054 30.2802 29.5 30.5346 29.5 30.7998C29.5 31.065 29.6054 31.3194 29.7929 31.5069C29.9804 31.6944 30.2348 31.7998 30.5 31.7998H31.5C31.5 32.065 31.6054 32.3194 31.7929 32.5069C31.9804 32.6944 32.2348 32.7998 32.5 32.7998C32.7652 32.7998 33.0196 32.6944 33.2071 32.5069C33.3946 32.3194 33.5 32.065 33.5 31.7998V31.6198C34.1614 31.3798 34.7174 30.915 35.0708 30.3067C35.4242 29.6983 35.5525 28.9851 35.4334 28.2917C35.3143 27.5983 34.9552 26.9688 34.419 26.5133C33.8828 26.0578 33.2035 25.8053 32.5 25.7998Z" fill="#FF7A01"></path><path d="M32.5 25.7998C32.2348 25.7998 31.9804 25.6944 31.7929 25.5069C31.6054 25.3194 31.5 25.065 31.5 24.7998C31.5 24.5346 31.6054 24.2802 31.7929 24.0927C31.9804 23.9052 32.2348 23.7998 32.5 23.7998H34.5C34.7652 23.7998 35.0196 23.6944 35.2071 23.5069C35.3946 23.3194 35.5 23.065 35.5 22.7998C35.5 22.5346 35.3946 22.2802 35.2071 22.0927C35.0196 21.9052 34.7652 21.7998 34.5 21.7998H33.5C33.5 21.5346 33.3946 21.2802 33.2071 21.0927C33.0196 20.9052 32.7652 20.7998 32.5 20.7998C32.2348 20.7998 31.9804 20.9052 31.7929 21.0927C31.6054 21.2802 31.5 21.5346 31.5 21.7998V21.9798C30.8386 22.2198 30.2826 22.6846 29.9292 23.2929C29.5758 23.9013 29.4475 24.6145 29.5666 25.3079C29.6857 26.0013 30.0448 26.6308 30.581 27.0863C31.1172 27.5418 31.7965 27.7943 32.5 27.7998C32.7652 27.7998 33.0196 27.9052 33.2071 28.0927C33.3946 28.2802 33.5 28.5346 33.5 28.7998C33.5 29.065 33.3946 29.3194 33.2071 29.5069C33.0196 29.6944 32.7652 29.7998 32.5 29.7998H30.5C30.2348 29.7998 29.9804 29.9052 29.7929 30.0927C29.6054 30.2802 29.5 30.5346 29.5 30.7998C29.5 31.065 29.6054 31.3194 29.7929 31.5069C29.9804 31.6944 30.2348 31.7998 30.5 31.7998H31.5C31.5 32.065 31.6054 32.3194 31.7929 32.5069C31.9804 32.6944 32.2348 32.7998 32.5 32.7998C32.7652 32.7998 33.0196 32.6944 33.2071 32.5069C33.3946 32.3194 33.5 32.065 33.5 31.7998V31.6198C34.1614 31.3798 34.7174 30.915 35.0708 30.3067C35.4242 29.6983 35.5525 28.9851 35.4334 28.2917C35.3143 27.5983 34.9552 26.9688 34.419 26.5133C33.8828 26.0578 33.2035 25.8053 32.5 25.7998Z" fill="black" fill-opacity="0.2"></path><path d="M32.5 36.7998C30.5222 36.7998 28.5888 36.2133 26.9443 35.1145C25.2998 34.0157 24.0181 32.4539 23.2612 30.6266C22.5043 28.7994 22.3063 26.7887 22.6922 24.8489C23.078 22.9091 24.0304 21.1273 25.4289 19.7287C26.8275 18.3302 28.6093 17.3778 30.5491 16.992C32.4889 16.6061 34.4996 16.8041 36.3268 17.561C38.1541 18.3179 39.7159 19.5996 40.8147 21.2441C41.9135 22.8886 42.5 24.822 42.5 26.7998C42.5 29.452 41.4464 31.9955 39.5711 33.8709C37.6957 35.7462 35.1522 36.7998 32.5 36.7998ZM32.5 18.7998C30.9178 18.7998 29.371 19.269 28.0554 20.1481C26.7398 21.0271 25.7145 22.2765 25.109 23.7383C24.5035 25.2002 24.345 26.8087 24.6537 28.3605C24.9624 29.9124 25.7243 31.3378 26.8431 32.4567C27.962 33.5755 29.3874 34.3374 30.9393 34.6461C32.4911 34.9548 34.0997 34.7963 35.5615 34.1908C37.0233 33.5853 38.2727 32.56 39.1518 31.2444C40.0308 29.9288 40.5 28.3821 40.5 26.7998C40.5 24.6781 39.6572 22.6432 38.1569 21.143C36.6566 19.6427 34.6217 18.7998 32.5 18.7998Z" fill="#FF7A01"></path><path d="M32.5 36.7998C30.5222 36.7998 28.5888 36.2133 26.9443 35.1145C25.2998 34.0157 24.0181 32.4539 23.2612 30.6266C22.5043 28.7994 22.3063 26.7887 22.6922 24.8489C23.078 22.9091 24.0304 21.1273 25.4289 19.7287C26.8275 18.3302 28.6093 17.3778 30.5491 16.992C32.4889 16.6061 34.4996 16.8041 36.3268 17.561C38.1541 18.3179 39.7159 19.5996 40.8147 21.2441C41.9135 22.8886 42.5 24.822 42.5 26.7998C42.5 29.452 41.4464 31.9955 39.5711 33.8709C37.6957 35.7462 35.1522 36.7998 32.5 36.7998ZM32.5 18.7998C30.9178 18.7998 29.371 19.269 28.0554 20.1481C26.7398 21.0271 25.7145 22.2765 25.109 23.7383C24.5035 25.2002 24.345 26.8087 24.6537 28.3605C24.9624 29.9124 25.7243 31.3378 26.8431 32.4567C27.962 33.5755 29.3874 34.3374 30.9393 34.6461C32.4911 34.9548 34.0997 34.7963 35.5615 34.1908C37.0233 33.5853 38.2727 32.56 39.1518 31.2444C40.0308 29.9288 40.5 28.3821 40.5 26.7998C40.5 24.6781 39.6572 22.6432 38.1569 21.143C36.6566 19.6427 34.6217 18.7998 32.5 18.7998Z" fill="black" fill-opacity="0.2"></path></g><defs><clipPath id="clip0_343_3428"><rect width="32" height="32" fill="white" transform="translate(16.5 16.7998)"></rect></clipPath></defs></svg>