<svg xmlns="http://www.w3.org/2000/svg" width="65" height="65" viewBox="0 0 65 65" fill="none"><path d="M1 12.7998C1 6.44853 6.14873 1.2998 12.5 1.2998H52.6396C58.9909 1.2998 64.1396 6.44853 64.1396 12.7998V52.9395C64.1396 59.2907 58.9909 64.4395 52.6396 64.4395H1V12.7998Z" stroke="#FF7A01"></path><path d="M1 12.7998C1 6.44853 6.14873 1.2998 12.5 1.2998H52.6396C58.9909 1.2998 64.1396 6.44853 64.1396 12.7998V52.9395C64.1396 59.2907 58.9909 64.4395 52.6396 64.4395H1V12.7998Z" stroke="black" stroke-opacity="0.2"></path><g clip-path="url(#clip0_343_3462)"><path d="M32.5 31.7998C32.2348 31.7998 31.9804 31.6944 31.7929 31.5069C31.6054 31.3194 31.5 31.065 31.5 30.7998C31.5 30.5346 31.6054 30.2802 31.7929 30.0927C31.9804 29.9052 32.2348 29.7998 32.5 29.7998H34.5C34.7652 29.7998 35.0196 29.6944 35.2071 29.5069C35.3946 29.3194 35.5 29.065 35.5 28.7998C35.5 28.5346 35.3946 28.2802 35.2071 28.0927C35.0196 27.9052 34.7652 27.7998 34.5 27.7998H33.5C33.5 27.5346 33.3946 27.2802 33.2071 27.0927C33.0196 26.9052 32.7652 26.7998 32.5 26.7998C32.2348 26.7998 31.9804 26.9052 31.7929 27.0927C31.6054 27.2802 31.5 27.5346 31.5 27.7998V27.9798C30.8386 28.2198 30.2826 28.6846 29.9292 29.2929C29.5758 29.9013 29.4475 30.6145 29.5666 31.3079C29.6857 32.0013 30.0448 32.6308 30.581 33.0863C31.1172 33.5418 31.7965 33.7943 32.5 33.7998C32.7652 33.7998 33.0196 33.9052 33.2071 34.0927C33.3946 34.2802 33.5 34.5346 33.5 34.7998C33.5 35.065 33.3946 35.3194 33.2071 35.5069C33.0196 35.6944 32.7652 35.7998 32.5 35.7998H30.5C30.2348 35.7998 29.9804 35.9052 29.7929 36.0927C29.6054 36.2802 29.5 36.5346 29.5 36.7998C29.5 37.065 29.6054 37.3194 29.7929 37.5069C29.9804 37.6944 30.2348 37.7998 30.5 37.7998H31.5C31.5 38.065 31.6054 38.3194 31.7929 38.5069C31.9804 38.6944 32.2348 38.7998 32.5 38.7998C32.7652 38.7998 33.0196 38.6944 33.2071 38.5069C33.3946 38.3194 33.5 38.065 33.5 37.7998V37.6198C34.1614 37.3798 34.7174 36.915 35.0708 36.3067C35.4242 35.6983 35.5525 34.9851 35.4334 34.2917C35.3143 33.5983 34.9552 32.9688 34.419 32.5133C33.8828 32.0578 33.2035 31.8053 32.5 31.7998Z" fill="#FF7A01"></path><path d="M32.5 31.7998C32.2348 31.7998 31.9804 31.6944 31.7929 31.5069C31.6054 31.3194 31.5 31.065 31.5 30.7998C31.5 30.5346 31.6054 30.2802 31.7929 30.0927C31.9804 29.9052 32.2348 29.7998 32.5 29.7998H34.5C34.7652 29.7998 35.0196 29.6944 35.2071 29.5069C35.3946 29.3194 35.5 29.065 35.5 28.7998C35.5 28.5346 35.3946 28.2802 35.2071 28.0927C35.0196 27.9052 34.7652 27.7998 34.5 27.7998H33.5C33.5 27.5346 33.3946 27.2802 33.2071 27.0927C33.0196 26.9052 32.7652 26.7998 32.5 26.7998C32.2348 26.7998 31.9804 26.9052 31.7929 27.0927C31.6054 27.2802 31.5 27.5346 31.5 27.7998V27.9798C30.8386 28.2198 30.2826 28.6846 29.9292 29.2929C29.5758 29.9013 29.4475 30.6145 29.5666 31.3079C29.6857 32.0013 30.0448 32.6308 30.581 33.0863C31.1172 33.5418 31.7965 33.7943 32.5 33.7998C32.7652 33.7998 33.0196 33.9052 33.2071 34.0927C33.3946 34.2802 33.5 34.5346 33.5 34.7998C33.5 35.065 33.3946 35.3194 33.2071 35.5069C33.0196 35.6944 32.7652 35.7998 32.5 35.7998H30.5C30.2348 35.7998 29.9804 35.9052 29.7929 36.0927C29.6054 36.2802 29.5 36.5346 29.5 36.7998C29.5 37.065 29.6054 37.3194 29.7929 37.5069C29.9804 37.6944 30.2348 37.7998 30.5 37.7998H31.5C31.5 38.065 31.6054 38.3194 31.7929 38.5069C31.9804 38.6944 32.2348 38.7998 32.5 38.7998C32.7652 38.7998 33.0196 38.6944 33.2071 38.5069C33.3946 38.3194 33.5 38.065 33.5 37.7998V37.6198C34.1614 37.3798 34.7174 36.915 35.0708 36.3067C35.4242 35.6983 35.5525 34.9851 35.4334 34.2917C35.3143 33.5983 34.9552 32.9688 34.419 32.5133C33.8828 32.0578 33.2035 31.8053 32.5 31.7998Z" fill="black" fill-opacity="0.2"></path><path d="M44.5 33.7998H46.5C46.7652 33.7998 47.0196 33.6944 47.2071 33.5069C47.3946 33.3194 47.5 33.065 47.5 32.7998C47.5 32.5346 47.3946 32.2802 47.2071 32.0927C47.0196 31.9052 46.7652 31.7998 46.5 31.7998H44.5C44.2603 28.9675 43.0231 26.3123 41.0087 24.307C38.9942 22.3017 36.3333 21.0766 33.5 20.8498V18.7998C33.5 18.5346 33.3946 18.2802 33.2071 18.0927C33.0196 17.9052 32.7652 17.7998 32.5 17.7998C32.2348 17.7998 31.9804 17.9052 31.7929 18.0927C31.6054 18.2802 31.5 18.5346 31.5 18.7998V20.8498C28.6756 21.0878 26.0266 22.3179 24.0223 24.3221C22.0181 26.3264 20.788 28.9754 20.55 31.7998H18.5C18.2348 31.7998 17.9804 31.9052 17.7929 32.0927C17.6054 32.2802 17.5 32.5346 17.5 32.7998C17.5 33.065 17.6054 33.3194 17.7929 33.5069C17.9804 33.6944 18.2348 33.7998 18.5 33.7998H20.55C20.8017 36.7429 22.1213 39.4924 24.26 41.5298C24.3559 41.6204 24.4686 41.6913 24.5919 41.7383C24.7151 41.7853 24.8464 41.8076 24.9783 41.8039C25.1101 41.8002 25.24 41.7705 25.3604 41.7166C25.4808 41.6627 25.5894 41.5857 25.68 41.4898C25.7706 41.3939 25.8415 41.2812 25.8885 41.1579C25.9355 41.0347 25.9578 40.9034 25.9541 40.7715C25.9504 40.6397 25.9207 40.5098 25.8668 40.3894C25.8129 40.269 25.7359 40.1604 25.64 40.0698C23.8804 38.4262 22.7816 36.1965 22.55 33.7998C22.8152 33.7998 23.0696 33.6944 23.2571 33.5069C23.4446 33.3194 23.55 33.065 23.55 32.7998C23.55 32.5346 23.4446 32.2802 23.2571 32.0927C23.0696 31.9052 22.8152 31.7998 22.55 31.7998C22.7716 29.4879 23.7911 27.3253 25.4333 25.6831C27.0755 24.0409 29.2381 23.0215 31.55 22.7998C31.55 23.065 31.6554 23.3194 31.8429 23.5069C32.0304 23.6944 32.2848 23.7998 32.55 23.7998C32.8152 23.7998 33.0696 23.6944 33.2571 23.5069C33.4446 23.3194 33.55 23.065 33.55 22.7998C35.8619 23.0215 38.0245 24.0409 39.6667 25.6831C41.3089 27.3253 42.3284 29.4879 42.55 31.7998C42.2848 31.7998 42.0304 31.9052 41.8429 32.0927C41.6554 32.2802 41.55 32.5346 41.55 32.7998C41.55 33.065 41.6554 33.3194 41.8429 33.5069C42.0304 33.6944 42.2848 33.7998 42.55 33.7998C42.3284 36.1117 41.3089 38.2743 39.6667 39.9165C38.0245 41.5587 35.8619 42.5782 33.55 42.7998C33.55 42.5346 33.4446 42.2802 33.2571 42.0927C33.0696 41.9052 32.8152 41.7998 32.55 41.7998C32.2848 41.7998 32.0304 41.9052 31.8429 42.0927C31.6554 42.2802 31.55 42.5346 31.55 42.7998C30.6421 42.7117 29.7505 42.4997 28.9 42.1698C28.6585 42.0964 28.3982 42.117 28.1713 42.2275C27.9444 42.338 27.7677 42.5302 27.6766 42.7656C27.5855 43.0009 27.5867 43.262 27.6801 43.4965C27.7735 43.731 27.952 43.9215 28.18 44.0298C29.2433 44.4467 30.3617 44.7061 31.5 44.7998V46.7998C31.5 47.065 31.6054 47.3194 31.7929 47.5069C31.9804 47.6944 32.2348 47.7998 32.5 47.7998C32.7652 47.7998 33.0196 47.6944 33.2071 47.5069C33.3946 47.3194 33.5 47.065 33.5 46.7998V44.7998C36.3412 44.5714 39.0083 43.3392 41.0239 41.3237C43.0394 39.3081 44.2716 36.641 44.5 33.7998Z" fill="#FF7A01"></path><path d="M44.5 33.7998H46.5C46.7652 33.7998 47.0196 33.6944 47.2071 33.5069C47.3946 33.3194 47.5 33.065 47.5 32.7998C47.5 32.5346 47.3946 32.2802 47.2071 32.0927C47.0196 31.9052 46.7652 31.7998 46.5 31.7998H44.5C44.2603 28.9675 43.0231 26.3123 41.0087 24.307C38.9942 22.3017 36.3333 21.0766 33.5 20.8498V18.7998C33.5 18.5346 33.3946 18.2802 33.2071 18.0927C33.0196 17.9052 32.7652 17.7998 32.5 17.7998C32.2348 17.7998 31.9804 17.9052 31.7929 18.0927C31.6054 18.2802 31.5 18.5346 31.5 18.7998V20.8498C28.6756 21.0878 26.0266 22.3179 24.0223 24.3221C22.0181 26.3264 20.788 28.9754 20.55 31.7998H18.5C18.2348 31.7998 17.9804 31.9052 17.7929 32.0927C17.6054 32.2802 17.5 32.5346 17.5 32.7998C17.5 33.065 17.6054 33.3194 17.7929 33.5069C17.9804 33.6944 18.2348 33.7998 18.5 33.7998H20.55C20.8017 36.7429 22.1213 39.4924 24.26 41.5298C24.3559 41.6204 24.4686 41.6913 24.5919 41.7383C24.7151 41.7853 24.8464 41.8076 24.9783 41.8039C25.1101 41.8002 25.24 41.7705 25.3604 41.7166C25.4808 41.6627 25.5894 41.5857 25.68 41.4898C25.7706 41.3939 25.8415 41.2812 25.8885 41.1579C25.9355 41.0347 25.9578 40.9034 25.9541 40.7715C25.9504 40.6397 25.9207 40.5098 25.8668 40.3894C25.8129 40.269 25.7359 40.1604 25.64 40.0698C23.8804 38.4262 22.7816 36.1965 22.55 33.7998C22.8152 33.7998 23.0696 33.6944 23.2571 33.5069C23.4446 33.3194 23.55 33.065 23.55 32.7998C23.55 32.5346 23.4446 32.2802 23.2571 32.0927C23.0696 31.9052 22.8152 31.7998 22.55 31.7998C22.7716 29.4879 23.7911 27.3253 25.4333 25.6831C27.0755 24.0409 29.2381 23.0215 31.55 22.7998C31.55 23.065 31.6554 23.3194 31.8429 23.5069C32.0304 23.6944 32.2848 23.7998 32.55 23.7998C32.8152 23.7998 33.0696 23.6944 33.2571 23.5069C33.4446 23.3194 33.55 23.065 33.55 22.7998C35.8619 23.0215 38.0245 24.0409 39.6667 25.6831C41.3089 27.3253 42.3284 29.4879 42.55 31.7998C42.2848 31.7998 42.0304 31.9052 41.8429 32.0927C41.6554 32.2802 41.55 32.5346 41.55 32.7998C41.55 33.065 41.6554 33.3194 41.8429 33.5069C42.0304 33.6944 42.2848 33.7998 42.55 33.7998C42.3284 36.1117 41.3089 38.2743 39.6667 39.9165C38.0245 41.5587 35.8619 42.5782 33.55 42.7998C33.55 42.5346 33.4446 42.2802 33.2571 42.0927C33.0696 41.9052 32.8152 41.7998 32.55 41.7998C32.2848 41.7998 32.0304 41.9052 31.8429 42.0927C31.6554 42.2802 31.55 42.5346 31.55 42.7998C30.6421 42.7117 29.7505 42.4997 28.9 42.1698C28.6585 42.0964 28.3982 42.117 28.1713 42.2275C27.9444 42.338 27.7677 42.5302 27.6766 42.7656C27.5855 43.0009 27.5867 43.262 27.6801 43.4965C27.7735 43.731 27.952 43.9215 28.18 44.0298C29.2433 44.4467 30.3617 44.7061 31.5 44.7998V46.7998C31.5 47.065 31.6054 47.3194 31.7929 47.5069C31.9804 47.6944 32.2348 47.7998 32.5 47.7998C32.7652 47.7998 33.0196 47.6944 33.2071 47.5069C33.3946 47.3194 33.5 47.065 33.5 46.7998V44.7998C36.3412 44.5714 39.0083 43.3392 41.0239 41.3237C43.0394 39.3081 44.2716 36.641 44.5 33.7998Z" fill="black" fill-opacity="0.2"></path><path d="M17.5 23.7998C17.7652 23.7998 18.0196 23.6944 18.2071 23.5069C18.3946 23.3194 18.5 23.065 18.5 22.7998V19.7998C18.5 19.5346 18.6054 19.2802 18.7929 19.0927C18.9804 18.9052 19.2348 18.7998 19.5 18.7998H22.5C22.7652 18.7998 23.0196 18.6944 23.2071 18.5069C23.3946 18.3194 23.5 18.065 23.5 17.7998C23.5 17.5346 23.3946 17.2802 23.2071 17.0927C23.0196 16.9052 22.7652 16.7998 22.5 16.7998H19.5C18.7044 16.7998 17.9413 17.1159 17.3787 17.6785C16.8161 18.2411 16.5 19.0042 16.5 19.7998V22.7998C16.5 23.065 16.6054 23.3194 16.7929 23.5069C16.9804 23.6944 17.2348 23.7998 17.5 23.7998Z" fill="#FF7A01"></path><path d="M17.5 23.7998C17.7652 23.7998 18.0196 23.6944 18.2071 23.5069C18.3946 23.3194 18.5 23.065 18.5 22.7998V19.7998C18.5 19.5346 18.6054 19.2802 18.7929 19.0927C18.9804 18.9052 19.2348 18.7998 19.5 18.7998H22.5C22.7652 18.7998 23.0196 18.6944 23.2071 18.5069C23.3946 18.3194 23.5 18.065 23.5 17.7998C23.5 17.5346 23.3946 17.2802 23.2071 17.0927C23.0196 16.9052 22.7652 16.7998 22.5 16.7998H19.5C18.7044 16.7998 17.9413 17.1159 17.3787 17.6785C16.8161 18.2411 16.5 19.0042 16.5 19.7998V22.7998C16.5 23.065 16.6054 23.3194 16.7929 23.5069C16.9804 23.6944 17.2348 23.7998 17.5 23.7998Z" fill="black" fill-opacity="0.2"></path><path d="M45.5 16.7998H42.5C42.2348 16.7998 41.9804 16.9052 41.7929 17.0927C41.6054 17.2802 41.5 17.5346 41.5 17.7998C41.5 18.065 41.6054 18.3194 41.7929 18.5069C41.9804 18.6944 42.2348 18.7998 42.5 18.7998H45.5C45.7652 18.7998 46.0196 18.9052 46.2071 19.0927C46.3946 19.2802 46.5 19.5346 46.5 19.7998V22.7998C46.5 23.065 46.6054 23.3194 46.7929 23.5069C46.9804 23.6944 47.2348 23.7998 47.5 23.7998C47.7652 23.7998 48.0196 23.6944 48.2071 23.5069C48.3946 23.3194 48.5 23.065 48.5 22.7998V19.7998C48.5 19.0042 48.1839 18.2411 47.6213 17.6785C47.0587 17.1159 46.2956 16.7998 45.5 16.7998V16.7998Z" fill="#FF7A01"></path><path d="M45.5 16.7998H42.5C42.2348 16.7998 41.9804 16.9052 41.7929 17.0927C41.6054 17.2802 41.5 17.5346 41.5 17.7998C41.5 18.065 41.6054 18.3194 41.7929 18.5069C41.9804 18.6944 42.2348 18.7998 42.5 18.7998H45.5C45.7652 18.7998 46.0196 18.9052 46.2071 19.0927C46.3946 19.2802 46.5 19.5346 46.5 19.7998V22.7998C46.5 23.065 46.6054 23.3194 46.7929 23.5069C46.9804 23.6944 47.2348 23.7998 47.5 23.7998C47.7652 23.7998 48.0196 23.6944 48.2071 23.5069C48.3946 23.3194 48.5 23.065 48.5 22.7998V19.7998C48.5 19.0042 48.1839 18.2411 47.6213 17.6785C47.0587 17.1159 46.2956 16.7998 45.5 16.7998V16.7998Z" fill="black" fill-opacity="0.2"></path><path d="M47.5 41.7998C47.2348 41.7998 46.9804 41.9052 46.7929 42.0927C46.6054 42.2802 46.5 42.5346 46.5 42.7998V45.7998C46.5 46.065 46.3946 46.3194 46.2071 46.5069C46.0196 46.6944 45.7652 46.7998 45.5 46.7998H42.5C42.2348 46.7998 41.9804 46.9052 41.7929 47.0927C41.6054 47.2802 41.5 47.5346 41.5 47.7998C41.5 48.065 41.6054 48.3194 41.7929 48.5069C41.9804 48.6944 42.2348 48.7998 42.5 48.7998H45.5C46.2956 48.7998 47.0587 48.4837 47.6213 47.9211C48.1839 47.3585 48.5 46.5955 48.5 45.7998V42.7998C48.5 42.5346 48.3946 42.2802 48.2071 42.0927C48.0196 41.9052 47.7652 41.7998 47.5 41.7998Z" fill="#FF7A01"></path><path d="M47.5 41.7998C47.2348 41.7998 46.9804 41.9052 46.7929 42.0927C46.6054 42.2802 46.5 42.5346 46.5 42.7998V45.7998C46.5 46.065 46.3946 46.3194 46.2071 46.5069C46.0196 46.6944 45.7652 46.7998 45.5 46.7998H42.5C42.2348 46.7998 41.9804 46.9052 41.7929 47.0927C41.6054 47.2802 41.5 47.5346 41.5 47.7998C41.5 48.065 41.6054 48.3194 41.7929 48.5069C41.9804 48.6944 42.2348 48.7998 42.5 48.7998H45.5C46.2956 48.7998 47.0587 48.4837 47.6213 47.9211C48.1839 47.3585 48.5 46.5955 48.5 45.7998V42.7998C48.5 42.5346 48.3946 42.2802 48.2071 42.0927C48.0196 41.9052 47.7652 41.7998 47.5 41.7998Z" fill="black" fill-opacity="0.2"></path><path d="M22.5 46.7998H19.5C19.2348 46.7998 18.9804 46.6944 18.7929 46.5069C18.6054 46.3194 18.5 46.065 18.5 45.7998V42.7998C18.5 42.5346 18.3946 42.2802 18.2071 42.0927C18.0196 41.9052 17.7652 41.7998 17.5 41.7998C17.2348 41.7998 16.9804 41.9052 16.7929 42.0927C16.6054 42.2802 16.5 42.5346 16.5 42.7998V45.7998C16.5 46.5955 16.8161 47.3585 17.3787 47.9211C17.9413 48.4837 18.7044 48.7998 19.5 48.7998H22.5C22.7652 48.7998 23.0196 48.6944 23.2071 48.5069C23.3946 48.3194 23.5 48.065 23.5 47.7998C23.5 47.5346 23.3946 47.2802 23.2071 47.0927C23.0196 46.9052 22.7652 46.7998 22.5 46.7998Z" fill="#FF7A01"></path><path d="M22.5 46.7998H19.5C19.2348 46.7998 18.9804 46.6944 18.7929 46.5069C18.6054 46.3194 18.5 46.065 18.5 45.7998V42.7998C18.5 42.5346 18.3946 42.2802 18.2071 42.0927C18.0196 41.9052 17.7652 41.7998 17.5 41.7998C17.2348 41.7998 16.9804 41.9052 16.7929 42.0927C16.6054 42.2802 16.5 42.5346 16.5 42.7998V45.7998C16.5 46.5955 16.8161 47.3585 17.3787 47.9211C17.9413 48.4837 18.7044 48.7998 19.5 48.7998H22.5C22.7652 48.7998 23.0196 48.6944 23.2071 48.5069C23.3946 48.3194 23.5 48.065 23.5 47.7998C23.5 47.5346 23.3946 47.2802 23.2071 47.0927C23.0196 46.9052 22.7652 46.7998 22.5 46.7998Z" fill="black" fill-opacity="0.2"></path></g><defs><clipPath id="clip0_343_3462"><rect width="32" height="32" fill="white" transform="translate(16.5 16.7998)"></rect></clipPath></defs></svg>