<svg xmlns="http://www.w3.org/2000/svg" width="65" height="65" viewBox="0 0 65 65" fill="none"><path d="M1 12.7998C1 6.44853 6.14873 1.2998 12.5 1.2998H52.6396C58.9909 1.2998 64.1396 6.44853 64.1396 12.7998V52.9395C64.1396 59.2907 58.9909 64.4395 52.6396 64.4395H1V12.7998Z" stroke="#FF7A01"></path><path d="M1 12.7998C1 6.44853 6.14873 1.2998 12.5 1.2998H52.6396C58.9909 1.2998 64.1396 6.44853 64.1396 12.7998V52.9395C64.1396 59.2907 58.9909 64.4395 52.6396 64.4395H1V12.7998Z" stroke="black" stroke-opacity="0.2"></path><g clip-path="url(#clip0_343_3411)"><path d="M48.5 28.6398C48.5 28.4298 48.64 28.8498 45.5 21.6398V19.7998C45.5 19.0042 45.1839 18.2411 44.6213 17.6785C44.0587 17.1159 43.2957 16.7998 42.5 16.7998H22.5C21.7044 16.7998 20.9413 17.1159 20.3787 17.6785C19.8161 18.2411 19.5 19.0042 19.5 19.7998V21.5998C16.08 29.5998 16.5 28.1298 16.5 29.7998C16.5029 30.6844 16.7989 31.543 17.3417 32.2414C17.8845 32.9399 18.6435 33.4387 19.5 33.6598V45.7998C19.5 46.5955 19.8161 47.3585 20.3787 47.9211C20.9413 48.4837 21.7044 48.7998 22.5 48.7998H42.5C43.2957 48.7998 44.0587 48.4837 44.6213 47.9211C45.1839 47.3585 45.5 46.5955 45.5 45.7998V36.7998C45.5 36.5346 45.3946 36.2802 45.2071 36.0927C45.0196 35.9052 44.7652 35.7998 44.5 35.7998C44.2348 35.7998 43.9804 35.9052 43.7929 36.0927C43.6054 36.2802 43.5 36.5346 43.5 36.7998V45.7998C43.5 46.065 43.3946 46.3194 43.2071 46.5069C43.0196 46.6944 42.7652 46.7998 42.5 46.7998H30.5V36.7998C30.5 36.5346 30.3946 36.2802 30.2071 36.0927C30.0196 35.9052 29.7652 35.7998 29.5 35.7998H24.5C24.2348 35.7998 23.9804 35.9052 23.7929 36.0927C23.6054 36.2802 23.5 36.5346 23.5 36.7998V46.7998H22.5C22.2348 46.7998 21.9804 46.6944 21.7929 46.5069C21.6054 46.3194 21.5 46.065 21.5 45.7998V33.6598C22.2747 33.4535 22.9708 33.022 23.5 32.4198C23.8754 32.8454 24.337 33.1863 24.8543 33.4198C25.3715 33.6533 25.9325 33.7741 26.5 33.7741C27.0675 33.7741 27.6285 33.6533 28.1458 33.4198C28.663 33.1863 29.1246 32.8454 29.5 32.4198C29.8754 32.8454 30.337 33.1863 30.8543 33.4198C31.3715 33.6533 31.9325 33.7741 32.5 33.7741C33.0675 33.7741 33.6285 33.6533 34.1458 33.4198C34.663 33.1863 35.1246 32.8454 35.5 32.4198C35.8754 32.8454 36.337 33.1863 36.8543 33.4198C37.3715 33.6533 37.9325 33.7741 38.5 33.7741C39.0675 33.7741 39.6285 33.6533 40.1458 33.4198C40.663 33.1863 41.1246 32.8454 41.5 32.4198C44.1 35.3998 49.25 33.2998 48.5 28.6398ZM25.5 37.7998H28.5V46.7998H25.5V37.7998ZM19.02 27.7998L21.16 22.7998H43.84L45.98 27.7998H19.02ZM21.5 19.7998C21.5 19.5346 21.6054 19.2802 21.7929 19.0927C21.9804 18.9052 22.2348 18.7998 22.5 18.7998H42.5C42.7652 18.7998 43.0196 18.9052 43.2071 19.0927C43.3946 19.2802 43.5 19.5346 43.5 19.7998V20.7998H21.5V19.7998ZM20.5 31.7998C19.9696 31.7998 19.4609 31.5891 19.0858 31.214C18.7107 30.8389 18.5 30.3302 18.5 29.7998H22.5C22.5 30.3302 22.2893 30.8389 21.9142 31.214C21.5391 31.5891 21.0304 31.7998 20.5 31.7998ZM26.5 31.7998C25.9696 31.7998 25.4609 31.5891 25.0858 31.214C24.7107 30.8389 24.5 30.3302 24.5 29.7998H28.5C28.5 30.3302 28.2893 30.8389 27.9142 31.214C27.5391 31.5891 27.0304 31.7998 26.5 31.7998ZM32.5 31.7998C31.9696 31.7998 31.4609 31.5891 31.0858 31.214C30.7107 30.8389 30.5 30.3302 30.5 29.7998H34.5C34.5 30.3302 34.2893 30.8389 33.9142 31.214C33.5391 31.5891 33.0304 31.7998 32.5 31.7998ZM38.5 31.7998C37.9696 31.7998 37.4609 31.5891 37.0858 31.214C36.7107 30.8389 36.5 30.3302 36.5 29.7998H40.5C40.5 30.3302 40.2893 30.8389 39.9142 31.214C39.5391 31.5891 39.0304 31.7998 38.5 31.7998ZM44.5 31.7998C43.9696 31.7998 43.4609 31.5891 43.0858 31.214C42.7107 30.8389 42.5 30.3302 42.5 29.7998H46.5C46.5 30.3302 46.2893 30.8389 45.9142 31.214C45.5391 31.5891 45.0304 31.7998 44.5 31.7998Z" fill="#FF7A01"></path><path d="M48.5 28.6398C48.5 28.4298 48.64 28.8498 45.5 21.6398V19.7998C45.5 19.0042 45.1839 18.2411 44.6213 17.6785C44.0587 17.1159 43.2957 16.7998 42.5 16.7998H22.5C21.7044 16.7998 20.9413 17.1159 20.3787 17.6785C19.8161 18.2411 19.5 19.0042 19.5 19.7998V21.5998C16.08 29.5998 16.5 28.1298 16.5 29.7998C16.5029 30.6844 16.7989 31.543 17.3417 32.2414C17.8845 32.9399 18.6435 33.4387 19.5 33.6598V45.7998C19.5 46.5955 19.8161 47.3585 20.3787 47.9211C20.9413 48.4837 21.7044 48.7998 22.5 48.7998H42.5C43.2957 48.7998 44.0587 48.4837 44.6213 47.9211C45.1839 47.3585 45.5 46.5955 45.5 45.7998V36.7998C45.5 36.5346 45.3946 36.2802 45.2071 36.0927C45.0196 35.9052 44.7652 35.7998 44.5 35.7998C44.2348 35.7998 43.9804 35.9052 43.7929 36.0927C43.6054 36.2802 43.5 36.5346 43.5 36.7998V45.7998C43.5 46.065 43.3946 46.3194 43.2071 46.5069C43.0196 46.6944 42.7652 46.7998 42.5 46.7998H30.5V36.7998C30.5 36.5346 30.3946 36.2802 30.2071 36.0927C30.0196 35.9052 29.7652 35.7998 29.5 35.7998H24.5C24.2348 35.7998 23.9804 35.9052 23.7929 36.0927C23.6054 36.2802 23.5 36.5346 23.5 36.7998V46.7998H22.5C22.2348 46.7998 21.9804 46.6944 21.7929 46.5069C21.6054 46.3194 21.5 46.065 21.5 45.7998V33.6598C22.2747 33.4535 22.9708 33.022 23.5 32.4198C23.8754 32.8454 24.337 33.1863 24.8543 33.4198C25.3715 33.6533 25.9325 33.7741 26.5 33.7741C27.0675 33.7741 27.6285 33.6533 28.1458 33.4198C28.663 33.1863 29.1246 32.8454 29.5 32.4198C29.8754 32.8454 30.337 33.1863 30.8543 33.4198C31.3715 33.6533 31.9325 33.7741 32.5 33.7741C33.0675 33.7741 33.6285 33.6533 34.1458 33.4198C34.663 33.1863 35.1246 32.8454 35.5 32.4198C35.8754 32.8454 36.337 33.1863 36.8543 33.4198C37.3715 33.6533 37.9325 33.7741 38.5 33.7741C39.0675 33.7741 39.6285 33.6533 40.1458 33.4198C40.663 33.1863 41.1246 32.8454 41.5 32.4198C44.1 35.3998 49.25 33.2998 48.5 28.6398ZM25.5 37.7998H28.5V46.7998H25.5V37.7998ZM19.02 27.7998L21.16 22.7998H43.84L45.98 27.7998H19.02ZM21.5 19.7998C21.5 19.5346 21.6054 19.2802 21.7929 19.0927C21.9804 18.9052 22.2348 18.7998 22.5 18.7998H42.5C42.7652 18.7998 43.0196 18.9052 43.2071 19.0927C43.3946 19.2802 43.5 19.5346 43.5 19.7998V20.7998H21.5V19.7998ZM20.5 31.7998C19.9696 31.7998 19.4609 31.5891 19.0858 31.214C18.7107 30.8389 18.5 30.3302 18.5 29.7998H22.5C22.5 30.3302 22.2893 30.8389 21.9142 31.214C21.5391 31.5891 21.0304 31.7998 20.5 31.7998ZM26.5 31.7998C25.9696 31.7998 25.4609 31.5891 25.0858 31.214C24.7107 30.8389 24.5 30.3302 24.5 29.7998H28.5C28.5 30.3302 28.2893 30.8389 27.9142 31.214C27.5391 31.5891 27.0304 31.7998 26.5 31.7998ZM32.5 31.7998C31.9696 31.7998 31.4609 31.5891 31.0858 31.214C30.7107 30.8389 30.5 30.3302 30.5 29.7998H34.5C34.5 30.3302 34.2893 30.8389 33.9142 31.214C33.5391 31.5891 33.0304 31.7998 32.5 31.7998ZM38.5 31.7998C37.9696 31.7998 37.4609 31.5891 37.0858 31.214C36.7107 30.8389 36.5 30.3302 36.5 29.7998H40.5C40.5 30.3302 40.2893 30.8389 39.9142 31.214C39.5391 31.5891 39.0304 31.7998 38.5 31.7998ZM44.5 31.7998C43.9696 31.7998 43.4609 31.5891 43.0858 31.214C42.7107 30.8389 42.5 30.3302 42.5 29.7998H46.5C46.5 30.3302 46.2893 30.8389 45.9142 31.214C45.5391 31.5891 45.0304 31.7998 44.5 31.7998Z" fill="black" fill-opacity="0.2"></path><path d="M40.5 42.7998H33.5C33.2348 42.7998 32.9804 42.6944 32.7929 42.5069C32.6054 42.3194 32.5 42.065 32.5 41.7998V36.7998C32.5 36.5346 32.6054 36.2802 32.7929 36.0927C32.9804 35.9052 33.2348 35.7998 33.5 35.7998H40.5C40.7652 35.7998 41.0196 35.9052 41.2071 36.0927C41.3946 36.2802 41.5 36.5346 41.5 36.7998V41.7998C41.5 42.065 41.3946 42.3194 41.2071 42.5069C41.0196 42.6944 40.7652 42.7998 40.5 42.7998ZM34.5 40.7998H39.5V37.7998H34.5V40.7998Z" fill="#FF7A01"></path><path d="M40.5 42.7998H33.5C33.2348 42.7998 32.9804 42.6944 32.7929 42.5069C32.6054 42.3194 32.5 42.065 32.5 41.7998V36.7998C32.5 36.5346 32.6054 36.2802 32.7929 36.0927C32.9804 35.9052 33.2348 35.7998 33.5 35.7998H40.5C40.7652 35.7998 41.0196 35.9052 41.2071 36.0927C41.3946 36.2802 41.5 36.5346 41.5 36.7998V41.7998C41.5 42.065 41.3946 42.3194 41.2071 42.5069C41.0196 42.6944 40.7652 42.7998 40.5 42.7998ZM34.5 40.7998H39.5V37.7998H34.5V40.7998Z" fill="black" fill-opacity="0.2"></path></g><defs><clipPath id="clip0_343_3411"><rect width="32" height="32" fill="white" transform="translate(16.5 16.7998)"></rect></clipPath></defs></svg>