<svg xmlns="http://www.w3.org/2000/svg" width="65" height="65" viewBox="0 0 65 65" fill="none"><path d="M1 12.7998C1 6.44853 6.14873 1.2998 12.5 1.2998H52.6396C58.9909 1.2998 64.1396 6.44853 64.1396 12.7998V52.9395C64.1396 59.2907 58.9909 64.4395 52.6396 64.4395H1V12.7998Z" stroke="#FF7A01"></path><path d="M1 12.7998C1 6.44853 6.14873 1.2998 12.5 1.2998H52.6396C58.9909 1.2998 64.1396 6.44853 64.1396 12.7998V52.9395C64.1396 59.2907 58.9909 64.4395 52.6396 64.4395H1V12.7998Z" stroke="black" stroke-opacity="0.2"></path><g clip-path="url(#clip0_343_3394)"><path d="M44.5 30.7998C44.2348 30.7998 43.9804 30.9052 43.7929 31.0927C43.6054 31.2802 43.5 31.5346 43.5 31.7998V36.7998H21.5V27.7998C21.5 27.5346 21.3946 27.2802 21.2071 27.0927C21.0196 26.9052 20.7652 26.7998 20.5 26.7998C20.2348 26.7998 19.9804 26.9052 19.7929 27.0927C19.6054 27.2802 19.5 27.5346 19.5 27.7998V39.7998C19.5 40.5955 19.8161 41.3585 20.3787 41.9211C20.9413 42.4837 21.7044 42.7998 22.5 42.7998H28.43C28.2769 44.209 27.7863 45.5605 27 46.7398C26.94 46.8398 27.24 46.7998 24.5 46.7998C24.2348 46.7998 23.9804 46.9052 23.7929 47.0927C23.6054 47.2802 23.5 47.5346 23.5 47.7998C23.5 48.065 23.6054 48.3194 23.7929 48.5069C23.9804 48.6944 24.2348 48.7998 24.5 48.7998H40.5C40.7652 48.7998 41.0196 48.6944 41.2071 48.5069C41.3946 48.3194 41.5 48.065 41.5 47.7998C41.5 47.5346 41.3946 47.2802 41.2071 47.0927C41.0196 46.9052 40.7652 46.7998 40.5 46.7998H38.04C37.2304 45.6067 36.7257 44.2332 36.57 42.7998H42.5C43.2956 42.7998 44.0587 42.4837 44.6213 41.9211C45.1839 41.3585 45.5 40.5955 45.5 39.7998V31.7998C45.5 31.5346 45.3946 31.2802 45.2071 31.0927C45.0196 30.9052 44.7652 30.7998 44.5 30.7998ZM35.71 46.7998H29.29C29.9504 45.5582 30.3614 44.1993 30.5 42.7998H34.6C34.7074 44.1925 35.0843 45.551 35.71 46.7998ZM42.5 40.7998H22.5C22.2348 40.7998 21.9804 40.6944 21.7929 40.5069C21.6054 40.3194 21.5 40.065 21.5 39.7998V38.7998H43.5V39.7998C43.5 40.065 43.3946 40.3194 43.2071 40.5069C43.0196 40.6944 42.7652 40.7998 42.5 40.7998Z" fill="#FF7A01"></path><path d="M44.5 30.7998C44.2348 30.7998 43.9804 30.9052 43.7929 31.0927C43.6054 31.2802 43.5 31.5346 43.5 31.7998V36.7998H21.5V27.7998C21.5 27.5346 21.3946 27.2802 21.2071 27.0927C21.0196 26.9052 20.7652 26.7998 20.5 26.7998C20.2348 26.7998 19.9804 26.9052 19.7929 27.0927C19.6054 27.2802 19.5 27.5346 19.5 27.7998V39.7998C19.5 40.5955 19.8161 41.3585 20.3787 41.9211C20.9413 42.4837 21.7044 42.7998 22.5 42.7998H28.43C28.2769 44.209 27.7863 45.5605 27 46.7398C26.94 46.8398 27.24 46.7998 24.5 46.7998C24.2348 46.7998 23.9804 46.9052 23.7929 47.0927C23.6054 47.2802 23.5 47.5346 23.5 47.7998C23.5 48.065 23.6054 48.3194 23.7929 48.5069C23.9804 48.6944 24.2348 48.7998 24.5 48.7998H40.5C40.7652 48.7998 41.0196 48.6944 41.2071 48.5069C41.3946 48.3194 41.5 48.065 41.5 47.7998C41.5 47.5346 41.3946 47.2802 41.2071 47.0927C41.0196 46.9052 40.7652 46.7998 40.5 46.7998H38.04C37.2304 45.6067 36.7257 44.2332 36.57 42.7998H42.5C43.2956 42.7998 44.0587 42.4837 44.6213 41.9211C45.1839 41.3585 45.5 40.5955 45.5 39.7998V31.7998C45.5 31.5346 45.3946 31.2802 45.2071 31.0927C45.0196 30.9052 44.7652 30.7998 44.5 30.7998ZM35.71 46.7998H29.29C29.9504 45.5582 30.3614 44.1993 30.5 42.7998H34.6C34.7074 44.1925 35.0843 45.551 35.71 46.7998ZM42.5 40.7998H22.5C22.2348 40.7998 21.9804 40.6944 21.7929 40.5069C21.6054 40.3194 21.5 40.065 21.5 39.7998V38.7998H43.5V39.7998C43.5 40.065 43.3946 40.3194 43.2071 40.5069C43.0196 40.6944 42.7652 40.7998 42.5 40.7998Z" fill="black" fill-opacity="0.2"></path><path d="M48.5 23.7998C48.5 23.4698 48.5 23.4698 45.4 17.3798C45.3204 17.2078 45.1935 17.0619 45.0342 16.9592C44.8748 16.8565 44.6896 16.8012 44.5 16.7998H20.5C20.3153 16.8004 20.1344 16.852 19.9773 16.9491C19.8202 17.0462 19.6931 17.1849 19.61 17.3498C16.06 24.4398 16.5 23.1798 16.5 24.7998C16.5052 25.6101 16.7564 26.3997 17.2203 27.0641C17.6841 27.7285 18.3389 28.2363 19.0978 28.5203C19.8567 28.8044 20.6839 28.8512 21.47 28.6547C22.2562 28.4582 22.9641 28.0276 23.5 27.4198C23.8754 27.8454 24.337 28.1863 24.8542 28.4198C25.3715 28.6533 25.9325 28.7741 26.5 28.7741C27.0675 28.7741 27.6285 28.6533 28.1458 28.4198C28.663 28.1863 29.1246 27.8454 29.5 27.4198C29.8754 27.8454 30.337 28.1863 30.8542 28.4198C31.3715 28.6533 31.9325 28.7741 32.5 28.7741C33.0675 28.7741 33.6285 28.6533 34.1458 28.4198C34.663 28.1863 35.1246 27.8454 35.5 27.4198C35.8754 27.8454 36.337 28.1863 36.8542 28.4198C37.3715 28.6533 37.9325 28.7741 38.5 28.7741C39.0675 28.7741 39.6285 28.6533 40.1458 28.4198C40.663 28.1863 41.1246 27.8454 41.5 27.4198C42.0359 28.0276 42.7438 28.4582 43.53 28.6547C44.3161 28.8512 45.1433 28.8044 45.9022 28.5203C46.6611 28.2363 47.3159 27.7285 47.7797 27.0641C48.2436 26.3997 48.4948 25.6101 48.5 24.7998C48.5 24.5398 48.5 23.7998 48.5 23.7998ZM21.12 18.7998H43.88L45.88 22.7998H19.12L21.12 18.7998ZM20.5 26.7998C19.9696 26.7998 19.4609 26.5891 19.0858 26.214C18.7107 25.8389 18.5 25.3302 18.5 24.7998H22.5C22.5 25.3302 22.2893 25.8389 21.9142 26.214C21.5391 26.5891 21.0304 26.7998 20.5 26.7998ZM26.5 26.7998C25.9696 26.7998 25.4609 26.5891 25.0858 26.214C24.7107 25.8389 24.5 25.3302 24.5 24.7998H28.5C28.5 25.3302 28.2893 25.8389 27.9142 26.214C27.5391 26.5891 27.0304 26.7998 26.5 26.7998ZM32.5 26.7998C31.9696 26.7998 31.4609 26.5891 31.0858 26.214C30.7107 25.8389 30.5 25.3302 30.5 24.7998H34.5C34.5 25.3302 34.2893 25.8389 33.9142 26.214C33.5391 26.5891 33.0304 26.7998 32.5 26.7998ZM38.5 26.7998C37.9696 26.7998 37.4609 26.5891 37.0858 26.214C36.7107 25.8389 36.5 25.3302 36.5 24.7998H40.5C40.5 25.3302 40.2893 25.8389 39.9142 26.214C39.5391 26.5891 39.0304 26.7998 38.5 26.7998ZM44.5 26.7998C43.9696 26.7998 43.4609 26.5891 43.0858 26.214C42.7107 25.8389 42.5 25.3302 42.5 24.7998H46.5C46.5 25.3302 46.2893 25.8389 45.9142 26.214C45.5391 26.5891 45.0304 26.7998 44.5 26.7998Z" fill="#FF7A01"></path><path d="M48.5 23.7998C48.5 23.4698 48.5 23.4698 45.4 17.3798C45.3204 17.2078 45.1935 17.0619 45.0342 16.9592C44.8748 16.8565 44.6896 16.8012 44.5 16.7998H20.5C20.3153 16.8004 20.1344 16.852 19.9773 16.9491C19.8202 17.0462 19.6931 17.1849 19.61 17.3498C16.06 24.4398 16.5 23.1798 16.5 24.7998C16.5052 25.6101 16.7564 26.3997 17.2203 27.0641C17.6841 27.7285 18.3389 28.2363 19.0978 28.5203C19.8567 28.8044 20.6839 28.8512 21.47 28.6547C22.2562 28.4582 22.9641 28.0276 23.5 27.4198C23.8754 27.8454 24.337 28.1863 24.8542 28.4198C25.3715 28.6533 25.9325 28.7741 26.5 28.7741C27.0675 28.7741 27.6285 28.6533 28.1458 28.4198C28.663 28.1863 29.1246 27.8454 29.5 27.4198C29.8754 27.8454 30.337 28.1863 30.8542 28.4198C31.3715 28.6533 31.9325 28.7741 32.5 28.7741C33.0675 28.7741 33.6285 28.6533 34.1458 28.4198C34.663 28.1863 35.1246 27.8454 35.5 27.4198C35.8754 27.8454 36.337 28.1863 36.8542 28.4198C37.3715 28.6533 37.9325 28.7741 38.5 28.7741C39.0675 28.7741 39.6285 28.6533 40.1458 28.4198C40.663 28.1863 41.1246 27.8454 41.5 27.4198C42.0359 28.0276 42.7438 28.4582 43.53 28.6547C44.3161 28.8512 45.1433 28.8044 45.9022 28.5203C46.6611 28.2363 47.3159 27.7285 47.7797 27.0641C48.2436 26.3997 48.4948 25.6101 48.5 24.7998C48.5 24.5398 48.5 23.7998 48.5 23.7998ZM21.12 18.7998H43.88L45.88 22.7998H19.12L21.12 18.7998ZM20.5 26.7998C19.9696 26.7998 19.4609 26.5891 19.0858 26.214C18.7107 25.8389 18.5 25.3302 18.5 24.7998H22.5C22.5 25.3302 22.2893 25.8389 21.9142 26.214C21.5391 26.5891 21.0304 26.7998 20.5 26.7998ZM26.5 26.7998C25.9696 26.7998 25.4609 26.5891 25.0858 26.214C24.7107 25.8389 24.5 25.3302 24.5 24.7998H28.5C28.5 25.3302 28.2893 25.8389 27.9142 26.214C27.5391 26.5891 27.0304 26.7998 26.5 26.7998ZM32.5 26.7998C31.9696 26.7998 31.4609 26.5891 31.0858 26.214C30.7107 25.8389 30.5 25.3302 30.5 24.7998H34.5C34.5 25.3302 34.2893 25.8389 33.9142 26.214C33.5391 26.5891 33.0304 26.7998 32.5 26.7998ZM38.5 26.7998C37.9696 26.7998 37.4609 26.5891 37.0858 26.214C36.7107 25.8389 36.5 25.3302 36.5 24.7998H40.5C40.5 25.3302 40.2893 25.8389 39.9142 26.214C39.5391 26.5891 39.0304 26.7998 38.5 26.7998ZM44.5 26.7998C43.9696 26.7998 43.4609 26.5891 43.0858 26.214C42.7107 25.8389 42.5 25.3302 42.5 24.7998H46.5C46.5 25.3302 46.2893 25.8389 45.9142 26.214C45.5391 26.5891 45.0304 26.7998 44.5 26.7998Z" fill="black" fill-opacity="0.2"></path></g><defs><clipPath id="clip0_343_3394"><rect width="32" height="32" fill="white" transform="translate(16.5 16.7998)"></rect></clipPath></defs></svg>