<svg xmlns="http://www.w3.org/2000/svg" width="65" height="65" viewBox="0 0 65 65" fill="none"><path d="M1 12.7998C1 6.44853 6.14873 1.2998 12.5 1.2998H52.6396C58.9909 1.2998 64.1396 6.44853 64.1396 12.7998V52.9395C64.1396 59.2907 58.9909 64.4395 52.6396 64.4395H1V12.7998Z" stroke="#FF7A01"></path><path d="M1 12.7998C1 6.44853 6.14873 1.2998 12.5 1.2998H52.6396C58.9909 1.2998 64.1396 6.44853 64.1396 12.7998V52.9395C64.1396 59.2907 58.9909 64.4395 52.6396 64.4395H1V12.7998Z" stroke="black" stroke-opacity="0.2"></path><g clip-path="url(#clip0_729_3502)"><path d="M37.5 29.6798C37.4705 29.4359 37.3523 29.2114 37.1678 29.0491C36.9834 28.8868 36.7457 28.798 36.5 28.7998H35.5V27.7998C35.5 27.0042 35.1839 26.2411 34.6213 25.6785C34.0587 25.1159 33.2956 24.7998 32.5 24.7998C31.7043 24.7998 30.9413 25.1159 30.3787 25.6785C29.8161 26.2411 29.5 27.0042 29.5 27.7998V28.7998H28.5C28.2543 28.798 28.0166 28.8868 27.8321 29.0491C27.6477 29.2114 27.5295 29.4359 27.5 29.6798L26.5 37.6798C26.4829 37.8208 26.4961 37.9639 26.5387 38.0994C26.5813 38.235 26.6522 38.3599 26.7468 38.4658C26.8414 38.5718 26.9576 38.6564 27.0874 38.714C27.2173 38.7716 27.3579 38.8008 27.5 38.7998H37.5C37.6421 38.8008 37.7827 38.7716 37.9126 38.714C38.0424 38.6564 38.1585 38.5718 38.2532 38.4658C38.3478 38.3599 38.4187 38.235 38.4613 38.0994C38.5039 37.9639 38.517 37.8208 38.5 37.6798L37.5 29.6798ZM31.5 27.7998C31.5 27.5346 31.6054 27.2802 31.7929 27.0927C31.9804 26.9052 32.2348 26.7998 32.5 26.7998C32.7652 26.7998 33.0196 26.9052 33.2071 27.0927C33.3946 27.2802 33.5 27.5346 33.5 27.7998V28.7998H31.5V27.7998ZM28.63 36.7998L29.38 30.7998H35.62L36.37 36.7998H28.63Z" fill="#FF7A01"></path><path d="M37.5 29.6798C37.4705 29.4359 37.3523 29.2114 37.1678 29.0491C36.9834 28.8868 36.7457 28.798 36.5 28.7998H35.5V27.7998C35.5 27.0042 35.1839 26.2411 34.6213 25.6785C34.0587 25.1159 33.2956 24.7998 32.5 24.7998C31.7043 24.7998 30.9413 25.1159 30.3787 25.6785C29.8161 26.2411 29.5 27.0042 29.5 27.7998V28.7998H28.5C28.2543 28.798 28.0166 28.8868 27.8321 29.0491C27.6477 29.2114 27.5295 29.4359 27.5 29.6798L26.5 37.6798C26.4829 37.8208 26.4961 37.9639 26.5387 38.0994C26.5813 38.235 26.6522 38.3599 26.7468 38.4658C26.8414 38.5718 26.9576 38.6564 27.0874 38.714C27.2173 38.7716 27.3579 38.8008 27.5 38.7998H37.5C37.6421 38.8008 37.7827 38.7716 37.9126 38.714C38.0424 38.6564 38.1585 38.5718 38.2532 38.4658C38.3478 38.3599 38.4187 38.235 38.4613 38.0994C38.5039 37.9639 38.517 37.8208 38.5 37.6798L37.5 29.6798ZM31.5 27.7998C31.5 27.5346 31.6054 27.2802 31.7929 27.0927C31.9804 26.9052 32.2348 26.7998 32.5 26.7998C32.7652 26.7998 33.0196 26.9052 33.2071 27.0927C33.3946 27.2802 33.5 27.5346 33.5 27.7998V28.7998H31.5V27.7998ZM28.63 36.7998L29.38 30.7998H35.62L36.37 36.7998H28.63Z" fill="black" fill-opacity="0.2"></path><path d="M37.5 43.7998H27.5C27.2348 43.7998 26.9804 43.6944 26.7929 43.5069C26.6054 43.3194 26.5 43.065 26.5 42.7998C26.5 42.5346 26.6054 42.2802 26.7929 42.0927C26.9804 41.9052 27.2348 41.7998 27.5 41.7998H37.5C37.7652 41.7998 38.0196 41.9052 38.2071 42.0927C38.3946 42.2802 38.5 42.5346 38.5 42.7998C38.5 43.065 38.3946 43.3194 38.2071 43.5069C38.0196 43.6944 37.7652 43.7998 37.5 43.7998Z" fill="#FF7A01"></path><path d="M37.5 43.7998H27.5C27.2348 43.7998 26.9804 43.6944 26.7929 43.5069C26.6054 43.3194 26.5 43.065 26.5 42.7998C26.5 42.5346 26.6054 42.2802 26.7929 42.0927C26.9804 41.9052 27.2348 41.7998 27.5 41.7998H37.5C37.7652 41.7998 38.0196 41.9052 38.2071 42.0927C38.3946 42.2802 38.5 42.5346 38.5 42.7998C38.5 43.065 38.3946 43.3194 38.2071 43.5069C38.0196 43.6944 37.7652 43.7998 37.5 43.7998Z" fill="black" fill-opacity="0.2"></path><path d="M37.5 16.7998H27.5C26.1739 16.7998 24.9021 17.3266 23.9645 18.2643C23.0268 19.202 22.5 20.4737 22.5 21.7998V36.7998C22.5 37.065 22.6054 37.3194 22.7929 37.5069C22.9804 37.6944 23.2348 37.7998 23.5 37.7998C23.7652 37.7998 24.0196 37.6944 24.2071 37.5069C24.3946 37.3194 24.5 37.065 24.5 36.7998V21.7998C24.5017 21.1809 24.6949 20.5776 25.0529 20.0727C25.411 19.5679 25.9165 19.1861 26.5 18.9798V19.7998C26.5 20.5955 26.8161 21.3585 27.3787 21.9211C27.9413 22.4837 28.7044 22.7998 29.5 22.7998H35.5C36.2956 22.7998 37.0587 22.4837 37.6213 21.9211C38.1839 21.3585 38.5 20.5955 38.5 19.7998V18.9798C39.0835 19.1861 39.589 19.5679 39.9471 20.0727C40.3051 20.5776 40.4983 21.1809 40.5 21.7998V43.7998C40.5 44.5955 40.1839 45.3585 39.6213 45.9211C39.0587 46.4837 38.2956 46.7998 37.5 46.7998H27.5C26.7044 46.7998 25.9413 46.4837 25.3787 45.9211C24.8161 45.3585 24.5 44.5955 24.5 43.7998V40.7998C24.5 40.5346 24.3946 40.2802 24.2071 40.0927C24.0196 39.9052 23.7652 39.7998 23.5 39.7998C23.2348 39.7998 22.9804 39.9052 22.7929 40.0927C22.6054 40.2802 22.5 40.5346 22.5 40.7998V43.7998C22.5 45.1259 23.0268 46.3977 23.9645 47.3353C24.9021 48.273 26.1739 48.7998 27.5 48.7998H37.5C38.8261 48.7998 40.0979 48.273 41.0355 47.3353C41.9732 46.3977 42.5 45.1259 42.5 43.7998V21.7998C42.5 20.4737 41.9732 19.202 41.0355 18.2643C40.0979 17.3266 38.8261 16.7998 37.5 16.7998V16.7998ZM36.5 19.7998C36.5 20.065 36.3946 20.3194 36.2071 20.5069C36.0196 20.6944 35.7652 20.7998 35.5 20.7998H29.5C29.2348 20.7998 28.9804 20.6944 28.7929 20.5069C28.6054 20.3194 28.5 20.065 28.5 19.7998V18.7998H36.5V19.7998Z" fill="#FF7A01"></path><path d="M37.5 16.7998H27.5C26.1739 16.7998 24.9021 17.3266 23.9645 18.2643C23.0268 19.202 22.5 20.4737 22.5 21.7998V36.7998C22.5 37.065 22.6054 37.3194 22.7929 37.5069C22.9804 37.6944 23.2348 37.7998 23.5 37.7998C23.7652 37.7998 24.0196 37.6944 24.2071 37.5069C24.3946 37.3194 24.5 37.065 24.5 36.7998V21.7998C24.5017 21.1809 24.6949 20.5776 25.0529 20.0727C25.411 19.5679 25.9165 19.1861 26.5 18.9798V19.7998C26.5 20.5955 26.8161 21.3585 27.3787 21.9211C27.9413 22.4837 28.7044 22.7998 29.5 22.7998H35.5C36.2956 22.7998 37.0587 22.4837 37.6213 21.9211C38.1839 21.3585 38.5 20.5955 38.5 19.7998V18.9798C39.0835 19.1861 39.589 19.5679 39.9471 20.0727C40.3051 20.5776 40.4983 21.1809 40.5 21.7998V43.7998C40.5 44.5955 40.1839 45.3585 39.6213 45.9211C39.0587 46.4837 38.2956 46.7998 37.5 46.7998H27.5C26.7044 46.7998 25.9413 46.4837 25.3787 45.9211C24.8161 45.3585 24.5 44.5955 24.5 43.7998V40.7998C24.5 40.5346 24.3946 40.2802 24.2071 40.0927C24.0196 39.9052 23.7652 39.7998 23.5 39.7998C23.2348 39.7998 22.9804 39.9052 22.7929 40.0927C22.6054 40.2802 22.5 40.5346 22.5 40.7998V43.7998C22.5 45.1259 23.0268 46.3977 23.9645 47.3353C24.9021 48.273 26.1739 48.7998 27.5 48.7998H37.5C38.8261 48.7998 40.0979 48.273 41.0355 47.3353C41.9732 46.3977 42.5 45.1259 42.5 43.7998V21.7998C42.5 20.4737 41.9732 19.202 41.0355 18.2643C40.0979 17.3266 38.8261 16.7998 37.5 16.7998V16.7998ZM36.5 19.7998C36.5 20.065 36.3946 20.3194 36.2071 20.5069C36.0196 20.6944 35.7652 20.7998 35.5 20.7998H29.5C29.2348 20.7998 28.9804 20.6944 28.7929 20.5069C28.6054 20.3194 28.5 20.065 28.5 19.7998V18.7998H36.5V19.7998Z" fill="black" fill-opacity="0.2"></path></g><defs><clipPath id="clip0_729_3502"><rect width="32" height="32" fill="white" transform="translate(16.5 16.7998)"></rect></clipPath></defs></svg>