<svg xmlns="http://www.w3.org/2000/svg" width="65" height="65" viewBox="0 0 65 65" fill="none"><path d="M1 12.7998C1 6.44853 6.14873 1.2998 12.5 1.2998H52.6396C58.9909 1.2998 64.1396 6.44853 64.1396 12.7998V52.9395C64.1396 59.2907 58.9909 64.4395 52.6396 64.4395H1V12.7998Z" stroke="#FF7A01"></path><path d="M1 12.7998C1 6.44853 6.14873 1.2998 12.5 1.2998H52.6396C58.9909 1.2998 64.1396 6.44853 64.1396 12.7998V52.9395C64.1396 59.2907 58.9909 64.4395 52.6396 64.4395H1V12.7998Z" stroke="black" stroke-opacity="0.2"></path><g clip-path="url(#clip0_343_3445)"><path d="M47.5 33.7998H17.5C17.2348 33.7998 16.9804 33.6944 16.7929 33.5069C16.6054 33.3194 16.5 33.065 16.5 32.7998C16.5 32.5346 16.6054 32.2802 16.7929 32.0927C16.9804 31.9052 17.2348 31.7998 17.5 31.7998H47.5C47.7652 31.7998 48.0196 31.9052 48.2071 32.0927C48.3946 32.2802 48.5 32.5346 48.5 32.7998C48.5 33.065 48.3946 33.3194 48.2071 33.5069C48.0196 33.6944 47.7652 33.7998 47.5 33.7998Z" fill="#FF7A01"></path><path d="M47.5 33.7998H17.5C17.2348 33.7998 16.9804 33.6944 16.7929 33.5069C16.6054 33.3194 16.5 33.065 16.5 32.7998C16.5 32.5346 16.6054 32.2802 16.7929 32.0927C16.9804 31.9052 17.2348 31.7998 17.5 31.7998H47.5C47.7652 31.7998 48.0196 31.9052 48.2071 32.0927C48.3946 32.2802 48.5 32.5346 48.5 32.7998C48.5 33.065 48.3946 33.3194 48.2071 33.5069C48.0196 33.6944 47.7652 33.7998 47.5 33.7998Z" fill="black" fill-opacity="0.2"></path><path d="M25.5 29.7998H19.5C19.2348 29.7998 18.9804 29.6944 18.7929 29.5069C18.6054 29.3194 18.5 29.065 18.5 28.7998V21.7998C18.5 21.2694 18.7107 20.7607 19.0858 20.3856C19.4609 20.0105 19.9696 19.7998 20.5 19.7998H24.5C25.0304 19.7998 25.5391 20.0105 25.9142 20.3856C26.2893 20.7607 26.5 21.2694 26.5 21.7998V28.7998C26.5 29.065 26.3946 29.3194 26.2071 29.5069C26.0196 29.6944 25.7652 29.7998 25.5 29.7998ZM20.5 27.7998H24.5V21.7998H20.5V27.7998Z" fill="#FF7A01"></path><path d="M25.5 29.7998H19.5C19.2348 29.7998 18.9804 29.6944 18.7929 29.5069C18.6054 29.3194 18.5 29.065 18.5 28.7998V21.7998C18.5 21.2694 18.7107 20.7607 19.0858 20.3856C19.4609 20.0105 19.9696 19.7998 20.5 19.7998H24.5C25.0304 19.7998 25.5391 20.0105 25.9142 20.3856C26.2893 20.7607 26.5 21.2694 26.5 21.7998V28.7998C26.5 29.065 26.3946 29.3194 26.2071 29.5069C26.0196 29.6944 25.7652 29.7998 25.5 29.7998ZM20.5 27.7998H24.5V21.7998H20.5V27.7998Z" fill="black" fill-opacity="0.2"></path><path d="M35.5 29.7998H29.5C29.2348 29.7998 28.9804 29.6944 28.7929 29.5069C28.6054 29.3194 28.5 29.065 28.5 28.7998V24.7998C28.5 24.2694 28.7107 23.7607 29.0858 23.3856C29.4609 23.0105 29.9696 22.7998 30.5 22.7998H34.5C35.0304 22.7998 35.5391 23.0105 35.9142 23.3856C36.2893 23.7607 36.5 24.2694 36.5 24.7998V28.7998C36.5 29.065 36.3946 29.3194 36.2071 29.5069C36.0196 29.6944 35.7652 29.7998 35.5 29.7998ZM30.5 27.7998H34.5V24.7998H30.5V27.7998Z" fill="#FF7A01"></path><path d="M35.5 29.7998H29.5C29.2348 29.7998 28.9804 29.6944 28.7929 29.5069C28.6054 29.3194 28.5 29.065 28.5 28.7998V24.7998C28.5 24.2694 28.7107 23.7607 29.0858 23.3856C29.4609 23.0105 29.9696 22.7998 30.5 22.7998H34.5C35.0304 22.7998 35.5391 23.0105 35.9142 23.3856C36.2893 23.7607 36.5 24.2694 36.5 24.7998V28.7998C36.5 29.065 36.3946 29.3194 36.2071 29.5069C36.0196 29.6944 35.7652 29.7998 35.5 29.7998ZM30.5 27.7998H34.5V24.7998H30.5V27.7998Z" fill="black" fill-opacity="0.2"></path><path d="M45.5 29.7998H39.5C39.2348 29.7998 38.9804 29.6944 38.7929 29.5069C38.6054 29.3194 38.5 29.065 38.5 28.7998V18.7998C38.5 18.2694 38.7107 17.7607 39.0858 17.3856C39.4609 17.0105 39.9696 16.7998 40.5 16.7998H44.5C45.0304 16.7998 45.5391 17.0105 45.9142 17.3856C46.2893 17.7607 46.5 18.2694 46.5 18.7998V28.7998C46.5 29.065 46.3946 29.3194 46.2071 29.5069C46.0196 29.6944 45.7652 29.7998 45.5 29.7998ZM40.5 27.7998H44.5V18.7998H40.5V27.7998Z" fill="#FF7A01"></path><path d="M45.5 29.7998H39.5C39.2348 29.7998 38.9804 29.6944 38.7929 29.5069C38.6054 29.3194 38.5 29.065 38.5 28.7998V18.7998C38.5 18.2694 38.7107 17.7607 39.0858 17.3856C39.4609 17.0105 39.9696 16.7998 40.5 16.7998H44.5C45.0304 16.7998 45.5391 17.0105 45.9142 17.3856C46.2893 17.7607 46.5 18.2694 46.5 18.7998V28.7998C46.5 29.065 46.3946 29.3194 46.2071 29.5069C46.0196 29.6944 45.7652 29.7998 45.5 29.7998ZM40.5 27.7998H44.5V18.7998H40.5V27.7998Z" fill="black" fill-opacity="0.2"></path><path d="M24.5 41.7998H20.5C19.9696 41.7998 19.4609 41.5891 19.0858 41.214C18.7107 40.8389 18.5 40.3302 18.5 39.7998V36.7998C18.5 36.5346 18.6054 36.2802 18.7929 36.0927C18.9804 35.9052 19.2348 35.7998 19.5 35.7998H25.5C25.7652 35.7998 26.0196 35.9052 26.2071 36.0927C26.3946 36.2802 26.5 36.5346 26.5 36.7998V39.7998C26.5 40.3302 26.2893 40.8389 25.9142 41.214C25.5391 41.5891 25.0304 41.7998 24.5 41.7998ZM20.5 37.7998V39.7998H24.5V37.7998H20.5Z" fill="#FF7A01"></path><path d="M24.5 41.7998H20.5C19.9696 41.7998 19.4609 41.5891 19.0858 41.214C18.7107 40.8389 18.5 40.3302 18.5 39.7998V36.7998C18.5 36.5346 18.6054 36.2802 18.7929 36.0927C18.9804 35.9052 19.2348 35.7998 19.5 35.7998H25.5C25.7652 35.7998 26.0196 35.9052 26.2071 36.0927C26.3946 36.2802 26.5 36.5346 26.5 36.7998V39.7998C26.5 40.3302 26.2893 40.8389 25.9142 41.214C25.5391 41.5891 25.0304 41.7998 24.5 41.7998ZM20.5 37.7998V39.7998H24.5V37.7998H20.5Z" fill="black" fill-opacity="0.2"></path><path d="M34.5 48.7998H30.5C29.9696 48.7998 29.4609 48.5891 29.0858 48.214C28.7107 47.8389 28.5 47.3302 28.5 46.7998V36.7998C28.5 36.5346 28.6054 36.2802 28.7929 36.0927C28.9804 35.9052 29.2348 35.7998 29.5 35.7998H35.5C35.7652 35.7998 36.0196 35.9052 36.2071 36.0927C36.3946 36.2802 36.5 36.5346 36.5 36.7998V39.7998C36.5 40.065 36.3946 40.3194 36.2071 40.5069C36.0196 40.6944 35.7652 40.7998 35.5 40.7998C35.2348 40.7998 34.9804 40.6944 34.7929 40.5069C34.6054 40.3194 34.5 40.065 34.5 39.7998V37.7998H30.5V46.7998H34.5V43.7998C34.5 43.5346 34.6054 43.2802 34.7929 43.0927C34.9804 42.9052 35.2348 42.7998 35.5 42.7998C35.7652 42.7998 36.0196 42.9052 36.2071 43.0927C36.3946 43.2802 36.5 43.5346 36.5 43.7998V46.7998C36.5 47.3302 36.2893 47.8389 35.9142 48.214C35.5391 48.5891 35.0304 48.7998 34.5 48.7998Z" fill="#FF7A01"></path><path d="M34.5 48.7998H30.5C29.9696 48.7998 29.4609 48.5891 29.0858 48.214C28.7107 47.8389 28.5 47.3302 28.5 46.7998V36.7998C28.5 36.5346 28.6054 36.2802 28.7929 36.0927C28.9804 35.9052 29.2348 35.7998 29.5 35.7998H35.5C35.7652 35.7998 36.0196 35.9052 36.2071 36.0927C36.3946 36.2802 36.5 36.5346 36.5 36.7998V39.7998C36.5 40.065 36.3946 40.3194 36.2071 40.5069C36.0196 40.6944 35.7652 40.7998 35.5 40.7998C35.2348 40.7998 34.9804 40.6944 34.7929 40.5069C34.6054 40.3194 34.5 40.065 34.5 39.7998V37.7998H30.5V46.7998H34.5V43.7998C34.5 43.5346 34.6054 43.2802 34.7929 43.0927C34.9804 42.9052 35.2348 42.7998 35.5 42.7998C35.7652 42.7998 36.0196 42.9052 36.2071 43.0927C36.3946 43.2802 36.5 43.5346 36.5 43.7998V46.7998C36.5 47.3302 36.2893 47.8389 35.9142 48.214C35.5391 48.5891 35.0304 48.7998 34.5 48.7998Z" fill="black" fill-opacity="0.2"></path><path d="M44.5 43.7998H40.5C39.9696 43.7998 39.4609 43.5891 39.0858 43.214C38.7107 42.8389 38.5 42.3302 38.5 41.7998V36.7998C38.5 36.5346 38.6054 36.2802 38.7929 36.0927C38.9804 35.9052 39.2348 35.7998 39.5 35.7998H45.5C45.7652 35.7998 46.0196 35.9052 46.2071 36.0927C46.3946 36.2802 46.5 36.5346 46.5 36.7998V41.7998C46.5 42.3302 46.2893 42.8389 45.9142 43.214C45.5391 43.5891 45.0304 43.7998 44.5 43.7998ZM40.5 37.7998V41.7998H44.5V37.7998H40.5Z" fill="#FF7A01"></path><path d="M44.5 43.7998H40.5C39.9696 43.7998 39.4609 43.5891 39.0858 43.214C38.7107 42.8389 38.5 42.3302 38.5 41.7998V36.7998C38.5 36.5346 38.6054 36.2802 38.7929 36.0927C38.9804 35.9052 39.2348 35.7998 39.5 35.7998H45.5C45.7652 35.7998 46.0196 35.9052 46.2071 36.0927C46.3946 36.2802 46.5 36.5346 46.5 36.7998V41.7998C46.5 42.3302 46.2893 42.8389 45.9142 43.214C45.5391 43.5891 45.0304 43.7998 44.5 43.7998ZM40.5 37.7998V41.7998H44.5V37.7998H40.5Z" fill="black" fill-opacity="0.2"></path></g><defs><clipPath id="clip0_343_3445"><rect width="32" height="32" fill="white" transform="translate(16.5 16.7998)"></rect></clipPath></defs></svg>