<svg xmlns="http://www.w3.org/2000/svg" width="106" height="48" viewBox="0 0 106 48" fill="none"><path d="M37.7766 26.0955C37.8053 30.402 35.2336 34.3898 30.2619 34.3898C28.854 34.3898 27.396 34.0097 26.3385 32.8695C26.2639 32.7888 26.1291 32.8398 26.1291 32.9502V34.0679C26.1291 34.1343 26.0749 34.1885 26.0085 34.1885H21.7408C21.6744 34.1885 21.6202 34.1343 21.6202 34.0679V13.7307C21.6202 13.6643 21.6744 13.6101 21.7408 13.6101H26.0085C26.0749 13.6101 26.1291 13.6643 26.1291 13.7307V19.6648C26.1291 19.7731 26.2588 19.8252 26.3355 19.7486C27.3633 18.7228 28.7712 18.2926 30.2047 18.2926C35.2622 18.2916 37.7184 21.8176 37.7766 26.0955ZM33.2096 26.2109C33.181 24.3034 32.0244 22.4827 29.7122 22.4827C27.7464 22.4827 26.1281 24.1879 26.1281 26.2692C26.1281 28.3504 27.7464 30.026 29.7122 30.026C32.054 30.026 33.2392 28.0899 33.2096 26.2109Z" fill="#FF7A01"></path><path d="M37.7766 26.0955C37.8053 30.402 35.2336 34.3898 30.2619 34.3898C28.854 34.3898 27.396 34.0097 26.3385 32.8695C26.2639 32.7888 26.1291 32.8398 26.1291 32.9502V34.0679C26.1291 34.1343 26.0749 34.1885 26.0085 34.1885H21.7408C21.6744 34.1885 21.6202 34.1343 21.6202 34.0679V13.7307C21.6202 13.6643 21.6744 13.6101 21.7408 13.6101H26.0085C26.0749 13.6101 26.1291 13.6643 26.1291 13.7307V19.6648C26.1291 19.7731 26.2588 19.8252 26.3355 19.7486C27.3633 18.7228 28.7712 18.2926 30.2047 18.2926C35.2622 18.2916 37.7184 21.8176 37.7766 26.0955ZM33.2096 26.2109C33.181 24.3034 32.0244 22.4827 29.7122 22.4827C27.7464 22.4827 26.1281 24.1879 26.1281 26.2692C26.1281 28.3504 27.7464 30.026 29.7122 30.026C32.054 30.026 33.2392 28.0899 33.2096 26.2109Z" fill="black" fill-opacity="0.2"></path><path d="M44.2368 18.9423V19.823C44.2368 19.9916 44.4401 20.0733 44.5597 19.9538C45.6754 18.8503 47.3398 18.4958 48.8611 18.5224C50.5418 18.6041 51.6627 19.3203 52.3911 20.386C52.4616 20.4892 52.6098 20.4953 52.6905 20.4003C53.8144 19.068 55.9702 18.4682 57.7051 18.551C60.6527 18.6664 63.0231 20.6322 62.9649 25.5743V34.2006C62.9649 34.3048 62.8811 34.3886 62.7769 34.3886H58.5582C58.454 34.3886 58.3702 34.3048 58.3702 34.2006V25.6029C58.3702 23.7239 57.4742 23.0302 56.4341 23.0016C55.3071 22.973 53.6305 23.7525 53.6019 25.4874V34.2006C53.6019 34.3048 53.5181 34.3886 53.4139 34.3886H53.3996H49.1952C49.091 34.3886 49.0072 34.3048 49.0072 34.2006V25.6029C49.0072 23.7239 48.1112 23.0302 47.0711 23.0016C45.9441 22.973 44.4698 23.7822 44.4698 25.5446V34.2006C44.4698 34.3048 44.386 34.3886 44.2818 34.3886H39.8301C39.7259 34.3886 39.6422 34.3048 39.6422 34.2006V18.9423C39.6422 18.8381 39.7259 18.7543 39.8301 18.7543H44.0488C44.152 18.7543 44.2368 18.8381 44.2368 18.9423Z" fill="#FF7A01"></path><path d="M44.2368 18.9423V19.823C44.2368 19.9916 44.4401 20.0733 44.5597 19.9538C45.6754 18.8503 47.3398 18.4958 48.8611 18.5224C50.5418 18.6041 51.6627 19.3203 52.3911 20.386C52.4616 20.4892 52.6098 20.4953 52.6905 20.4003C53.8144 19.068 55.9702 18.4682 57.7051 18.551C60.6527 18.6664 63.0231 20.6322 62.9649 25.5743V34.2006C62.9649 34.3048 62.8811 34.3886 62.7769 34.3886H58.5582C58.454 34.3886 58.3702 34.3048 58.3702 34.2006V25.6029C58.3702 23.7239 57.4742 23.0302 56.4341 23.0016C55.3071 22.973 53.6305 23.7525 53.6019 25.4874V34.2006C53.6019 34.3048 53.5181 34.3886 53.4139 34.3886H53.3996H49.1952C49.091 34.3886 49.0072 34.3048 49.0072 34.2006V25.6029C49.0072 23.7239 48.1112 23.0302 47.0711 23.0016C45.9441 22.973 44.4698 23.7822 44.4698 25.5446V34.2006C44.4698 34.3048 44.386 34.3886 44.2818 34.3886H39.8301C39.7259 34.3886 39.6422 34.3048 39.6422 34.2006V18.9423C39.6422 18.8381 39.7259 18.7543 39.8301 18.7543H44.0488C44.152 18.7543 44.2368 18.8381 44.2368 18.9423Z" fill="black" fill-opacity="0.2"></path><path d="M81.2098 28.1461H70.4378C70.2979 28.1461 70.209 28.2932 70.2703 28.4199C70.8854 29.6828 72.2075 30.3162 73.504 30.3428C74.4879 30.3428 75.4177 30.0148 76.0787 29.3313C76.1145 29.2945 76.1625 29.2731 76.2136 29.2731H80.8052C80.938 29.2731 81.029 29.4069 80.9799 29.5316C79.6956 32.8266 76.4844 34.445 73.2721 34.3888C69.3129 34.302 65.3824 31.6435 65.3824 26.354C65.3824 20.9788 69.457 18.3192 73.5326 18.3489C77.55 18.3775 81.5378 21.037 81.5378 26.354C81.5378 26.9333 81.4898 27.4657 81.3937 27.9929C81.3784 28.0818 81.2997 28.1461 81.2098 28.1461ZM76.3107 24.5905C76.4394 24.5905 76.5324 24.4628 76.4885 24.3412C75.9939 22.9527 74.7812 22.308 73.3886 22.308C72.1073 22.308 70.9283 22.9762 70.4113 24.3382C70.3653 24.4608 70.4573 24.5916 70.588 24.5916H76.3107V24.5905Z" fill="#FF7A01"></path><path d="M81.2098 28.1461H70.4378C70.2979 28.1461 70.209 28.2932 70.2703 28.4199C70.8854 29.6828 72.2075 30.3162 73.504 30.3428C74.4879 30.3428 75.4177 30.0148 76.0787 29.3313C76.1145 29.2945 76.1625 29.2731 76.2136 29.2731H80.8052C80.938 29.2731 81.029 29.4069 80.9799 29.5316C79.6956 32.8266 76.4844 34.445 73.2721 34.3888C69.3129 34.302 65.3824 31.6435 65.3824 26.354C65.3824 20.9788 69.457 18.3192 73.5326 18.3489C77.55 18.3775 81.5378 21.037 81.5378 26.354C81.5378 26.9333 81.4898 27.4657 81.3937 27.9929C81.3784 28.0818 81.2997 28.1461 81.2098 28.1461ZM76.3107 24.5905C76.4394 24.5905 76.5324 24.4628 76.4885 24.3412C75.9939 22.9527 74.7812 22.308 73.3886 22.308C72.1073 22.308 70.9283 22.9762 70.4113 24.3382C70.3653 24.4608 70.4573 24.5916 70.588 24.5916H76.3107V24.5905Z" fill="black" fill-opacity="0.2"></path><path d="M19.8749 34.1853L11.5868 14.0197C11.5643 13.9645 11.5101 13.9277 11.4498 13.9277H8.12416C8.06388 13.9277 8.0087 13.9645 7.98623 14.0217L0.0107064 34.1874C-0.0281188 34.2844 0.043402 34.3897 0.148639 34.3897H4.69119C5.04062 34.3897 5.38596 34.3212 5.7078 34.1874L13.0172 31.1549C13.0948 31.1232 13.1837 31.161 13.2123 31.2397L14.2095 33.9299C14.3117 34.2068 14.5763 34.3897 14.8706 34.3897H19.737C19.8433 34.3897 19.9148 34.2824 19.8749 34.1853ZM7.12594 29.2821L9.67615 22.4509C9.72417 22.3222 9.90604 22.3222 9.95303 22.4509L11.7635 27.3337C11.7911 27.4072 11.7564 27.488 11.6848 27.5207L7.32416 29.4691C7.20462 29.5222 7.07997 29.4047 7.12594 29.2821Z" fill="#FF7A01"></path><path d="M19.8749 34.1853L11.5868 14.0197C11.5643 13.9645 11.5101 13.9277 11.4498 13.9277H8.12416C8.06388 13.9277 8.0087 13.9645 7.98623 14.0217L0.0107064 34.1874C-0.0281188 34.2844 0.043402 34.3897 0.148639 34.3897H4.69119C5.04062 34.3897 5.38596 34.3212 5.7078 34.1874L13.0172 31.1549C13.0948 31.1232 13.1837 31.161 13.2123 31.2397L14.2095 33.9299C14.3117 34.2068 14.5763 34.3897 14.8706 34.3897H19.737C19.8433 34.3897 19.9148 34.2824 19.8749 34.1853ZM7.12594 29.2821L9.67615 22.4509C9.72417 22.3222 9.90604 22.3222 9.95303 22.4509L11.7635 27.3337C11.7911 27.4072 11.7564 27.488 11.6848 27.5207L7.32416 29.4691C7.20462 29.5222 7.07997 29.4047 7.12594 29.2821Z" fill="black" fill-opacity="0.2"></path><path d="M105.971 18.8956C106.047 18.7791 105.964 18.6238 105.825 18.6238H105.688H101.325C101.267 18.6238 101.213 18.6524 101.18 18.7014L96.1246 26.1927C96.0868 26.2489 96.0847 26.3234 96.1205 26.3817L100.861 34.2039C100.893 34.256 100.95 34.2887 101.011 34.2887H105.746C105.885 34.2908 105.971 34.1375 105.897 34.02L101.125 26.4358C101.088 26.3776 101.089 26.304 101.127 26.2458L105.971 18.8956Z" fill="#FF7A01"></path><path d="M105.971 18.8956C106.047 18.7791 105.964 18.6238 105.825 18.6238H105.688H101.325C101.267 18.6238 101.213 18.6524 101.18 18.7014L96.1246 26.1927C96.0868 26.2489 96.0847 26.3234 96.1205 26.3817L100.861 34.2039C100.893 34.256 100.95 34.2887 101.011 34.2887H105.746C105.885 34.2908 105.971 34.1375 105.897 34.02L101.125 26.4358C101.088 26.3776 101.089 26.304 101.127 26.2458L105.971 18.8956Z" fill="black" fill-opacity="0.2"></path><path d="M98.1843 18.8956C98.2609 18.7791 98.1771 18.6238 98.0382 18.6238H97.9013H93.5385C93.4803 18.6238 93.4261 18.6524 93.3934 18.7014L89.8767 23.9122L86.3599 18.7014C86.3272 18.6534 86.2731 18.6238 86.2149 18.6238H81.8521H81.7152C81.5752 18.6238 81.4915 18.7791 81.5691 18.8956L86.4151 26.2468C86.4529 26.304 86.4539 26.3786 86.4172 26.4368L81.6447 34.0211C81.5712 34.1385 81.657 34.2918 81.7959 34.2898H86.5306C86.5919 34.2898 86.6481 34.2581 86.6808 34.205L89.8787 28.9288L93.0767 34.205C93.1084 34.2571 93.1656 34.2898 93.2269 34.2898H97.9615C98.1005 34.2918 98.1863 34.1385 98.1127 34.0211L93.3403 26.4368C93.3035 26.3786 93.3045 26.305 93.3424 26.2468L98.1843 18.8956Z" fill="#FF7A01"></path><path d="M98.1843 18.8956C98.2609 18.7791 98.1771 18.6238 98.0382 18.6238H97.9013H93.5385C93.4803 18.6238 93.4261 18.6524 93.3934 18.7014L89.8767 23.9122L86.3599 18.7014C86.3272 18.6534 86.2731 18.6238 86.2149 18.6238H81.8521H81.7152C81.5752 18.6238 81.4915 18.7791 81.5691 18.8956L86.4151 26.2468C86.4529 26.304 86.4539 26.3786 86.4172 26.4368L81.6447 34.0211C81.5712 34.1385 81.657 34.2918 81.7959 34.2898H86.5306C86.5919 34.2898 86.6481 34.2581 86.6808 34.205L89.8787 28.9288L93.0767 34.205C93.1084 34.2571 93.1656 34.2898 93.2269 34.2898H97.9615C98.1005 34.2918 98.1863 34.1385 98.1127 34.0211L93.3403 26.4368C93.3035 26.3786 93.3045 26.305 93.3424 26.2468L98.1843 18.8956Z" fill="black" fill-opacity="0.2"></path></svg>