<svg fill="#0d141a" viewBox="0 0 166.63500000000002 18.607" height="100%" width="100%" xmlns="http://www.w3.org/2000/svg"><path preserveAspectRatio="none" d="M0 10.33Q0 7.93 1.04 6.06Q2.07 4.19 3.92 3.14Q5.77 2.09 8.12 2.09L8.12 2.09Q10.99 2.09 13.04 3.61Q15.09 5.13 15.78 7.75L15.78 7.75L11.45 7.75Q10.97 6.74 10.09 6.21Q9.20 5.68 8.07 5.68L8.07 5.68Q6.26 5.68 5.13 6.95Q4.00 8.21 4.00 10.33L4.00 10.33Q4.00 12.44 5.13 13.71Q6.26 14.97 8.07 14.97L8.07 14.97Q9.20 14.97 10.09 14.44Q10.97 13.91 11.45 12.90L11.45 12.90L15.78 12.90Q15.09 15.52 13.04 17.03Q10.99 18.54 8.12 18.54L8.12 18.54Q5.77 18.54 3.92 17.49Q2.07 16.44 1.04 14.58Q0 12.72 0 10.33L0 10.33ZM17.41 11.98Q17.41 10.00 18.16 8.51Q18.91 7.01 20.19 6.21Q21.48 5.40 23.07 5.40L23.07 5.40Q24.43 5.40 25.45 5.96Q26.47 6.51 27.02 7.41L27.02 7.41L27.02 5.59L30.96 5.59L30.96 18.42L27.02 18.42L27.02 16.61Q26.45 17.50 25.43 18.05Q24.40 18.61 23.05 18.61L23.05 18.61Q21.48 18.61 20.19 17.79Q18.91 16.97 18.16 15.47Q17.41 13.96 17.41 11.98L17.41 11.98ZM27.02 12.01Q27.02 10.53 26.21 9.68Q25.39 8.83 24.22 8.83L24.22 8.83Q23.05 8.83 22.23 9.67Q21.41 10.51 21.41 11.98L21.41 11.98Q21.41 13.45 22.23 14.32Q23.05 15.18 24.22 15.18L24.22 15.18Q25.39 15.18 26.21 14.33Q27.02 13.48 27.02 12.01L27.02 12.01ZM41.63 5.45Q43.88 5.45 45.23 6.91Q46.58 8.37 46.58 10.92L46.58 10.92L46.58 18.42L42.66 18.42L42.66 11.45Q42.66 10.17 42.00 9.45Q41.33 8.74 40.20 8.74L40.20 8.74Q39.08 8.74 38.41 9.45Q37.74 10.17 37.74 11.45L37.74 11.45L37.74 18.42L33.81 18.42L33.81 5.59L37.74 5.59L37.74 7.29Q38.34 6.44 39.35 5.95Q40.37 5.45 41.63 5.45L41.63 5.45ZM51.29 4.25Q50.25 4.25 49.60 3.65Q48.94 3.04 48.94 2.14L48.94 2.14Q48.94 1.22 49.60 0.61Q50.25 0 51.29 0L51.29 0Q52.30 0 52.96 0.61Q53.61 1.22 53.61 2.14L53.61 2.14Q53.61 3.04 52.96 3.65Q52.30 4.25 51.29 4.25L51.29 4.25ZM49.31 5.59L53.24 5.59L53.24 18.42L49.31 18.42L49.31 5.59ZM56.10 1.40L60.03 1.40L60.03 18.42L56.10 18.42L56.10 1.40ZM73.81 2.28Q76.36 2.28 78.27 3.29Q80.18 4.30 81.22 6.13Q82.27 7.96 82.27 10.35L82.27 10.35Q82.27 12.72 81.22 14.56Q80.18 16.40 78.26 17.41Q76.34 18.42 73.81 18.42L73.81 18.42L67.76 18.42L67.76 2.28L73.81 2.28ZM73.55 15.02Q75.78 15.02 77.03 13.80Q78.27 12.58 78.27 10.35L78.27 10.35Q78.27 8.12 77.03 6.88Q75.78 5.63 73.55 5.63L73.55 5.63L71.69 5.63L71.69 15.02L73.55 15.02ZM90.32 18.61Q88.44 18.61 86.93 17.80Q85.42 17.00 84.56 15.50Q83.70 14.01 83.70 12.01L83.70 12.01Q83.70 10.03 84.57 8.52Q85.44 7.01 86.96 6.21Q88.48 5.40 90.37 5.40L90.37 5.40Q92.25 5.40 93.77 6.21Q95.29 7.01 96.16 8.52Q97.04 10.03 97.04 12.01L97.04 12.01Q97.04 13.98 96.15 15.49Q95.27 17.00 93.74 17.80Q92.21 18.61 90.32 18.61L90.32 18.61ZM90.32 15.20Q91.45 15.20 92.24 14.37Q93.03 13.55 93.03 12.01L93.03 12.01Q93.03 10.46 92.26 9.64Q91.49 8.81 90.37 8.81L90.37 8.81Q89.22 8.81 88.46 9.63Q87.70 10.44 87.70 12.01L87.70 12.01Q87.70 13.55 88.45 14.37Q89.19 15.20 90.32 15.20L90.32 15.20ZM98.35 12.01Q98.35 10.00 99.16 8.51Q99.98 7.01 101.44 6.21Q102.90 5.40 104.79 5.40L104.79 5.40Q107.20 5.40 108.82 6.67Q110.45 7.93 110.95 10.23L110.95 10.23L106.77 10.23Q106.24 8.76 104.72 8.76L104.72 8.76Q103.64 8.76 102.99 9.60Q102.35 10.44 102.35 12.01L102.35 12.01Q102.35 13.57 102.99 14.41Q103.64 15.25 104.72 15.25L104.72 15.25Q106.24 15.25 106.77 13.78L106.77 13.78L110.95 13.78Q110.45 16.03 108.81 17.32Q107.18 18.61 104.79 18.61L104.79 18.61Q102.90 18.61 101.44 17.80Q99.98 17.00 99.16 15.50Q98.35 14.01 98.35 12.01L98.35 12.01ZM125.14 11.80Q125.14 12.35 125.07 12.95L125.07 12.95L116.17 12.95Q116.27 14.14 116.94 14.78Q117.62 15.41 118.61 15.41L118.61 15.41Q120.08 15.41 120.66 14.17L120.66 14.17L124.84 14.17Q124.52 15.43 123.68 16.44Q122.84 17.46 121.58 18.03Q120.31 18.61 118.75 18.61L118.75 18.61Q116.86 18.61 115.39 17.80Q113.92 17.00 113.09 15.50Q112.26 14.01 112.26 12.01L112.26 12.01Q112.26 10.00 113.08 8.51Q113.90 7.01 115.37 6.21Q116.84 5.40 118.75 5.40L118.75 5.40Q120.61 5.40 122.06 6.19Q123.51 6.97 124.33 8.42Q125.14 9.87 125.14 11.80L125.14 11.80ZM116.20 10.76L121.12 10.76Q121.12 9.75 120.43 9.15Q119.74 8.56 118.70 8.56L118.70 8.56Q117.71 8.56 117.04 9.13Q116.36 9.71 116.20 10.76L116.20 10.76ZM136.02 2.28L136.02 15.39L141.17 15.39L141.17 18.42L132.09 18.42L132.09 2.28L136.02 2.28ZM142.28 11.98Q142.28 10.00 143.03 8.51Q143.77 7.01 145.06 6.21Q146.35 5.40 147.94 5.40L147.94 5.40Q149.29 5.40 150.32 5.96Q151.34 6.51 151.89 7.41L151.89 7.41L151.89 5.59L155.83 5.59L155.83 18.42L151.89 18.42L151.89 16.61Q151.32 17.50 150.29 18.05Q149.27 18.61 147.91 18.61L147.91 18.61Q146.35 18.61 145.06 17.79Q143.77 16.97 143.03 15.47Q142.28 13.96 142.28 11.98L142.28 11.98ZM151.89 12.01Q151.89 10.53 151.08 9.68Q150.26 8.83 149.09 8.83L149.09 8.83Q147.91 8.83 147.10 9.67Q146.28 10.51 146.28 11.98L146.28 11.98Q146.28 13.45 147.10 14.32Q147.91 15.18 149.09 15.18L149.09 15.18Q150.26 15.18 151.08 14.33Q151.89 13.48 151.89 12.01L151.89 12.01ZM162.61 7.73Q163.30 6.67 164.34 6.06Q165.37 5.45 166.63 5.45L166.63 5.45L166.63 9.61L165.55 9.61Q164.08 9.61 163.35 10.25Q162.61 10.88 162.61 12.47L162.61 12.47L162.61 18.42L158.68 18.42L158.68 5.59L162.61 5.59L162.61 7.73Z"></path></svg>